<?xml version="1.0" encoding="UTF-8" standalone="no"?>
<!-- Created with Inkscape (http://www.inkscape.org/) -->

<svg
   width="114.10872mm"
   height="40.041988mm"
   viewBox="0 0 114.10872 40.041989"
   version="1.1"
   id="svg1"
   xml:space="preserve"
   xmlns="http://www.w3.org/2000/svg"
   xmlns:svg="http://www.w3.org/2000/svg"><defs
     id="defs1"><clipPath
       clipPathUnits="userSpaceOnUse"
       id="clipPath2"><path
         d="M 0,800 H 800 V 0 H 0 Z"
         transform="translate(-383.82421,-530.77051)"
         id="path2" /></clipPath><clipPath
       clipPathUnits="userSpaceOnUse"
       id="clipPath4"><path
         d="M 0,800 H 800 V 0 H 0 Z"
         transform="translate(-75.006302,-544.00002)"
         id="path4" /></clipPath><clipPath
       clipPathUnits="userSpaceOnUse"
       id="clipPath6"><path
         d="M 0,800 H 800 V 0 H 0 Z"
         transform="translate(-208.03471,-559.33501)"
         id="path6" /></clipPath><clipPath
       clipPathUnits="userSpaceOnUse"
       id="clipPath8"><path
         d="M 0,800 H 800 V 0 H 0 Z"
         transform="translate(-210.5815,-559.33501)"
         id="path8" /></clipPath><clipPath
       clipPathUnits="userSpaceOnUse"
       id="clipPath10"><path
         d="M 0,800 H 800 V 0 H 0 Z"
         transform="translate(-171.60351,-506.09371)"
         id="path10" /></clipPath><clipPath
       clipPathUnits="userSpaceOnUse"
       id="clipPath12"><path
         d="M 0,800 H 800 V 0 H 0 Z"
         transform="translate(-160.54101,-506.03761)"
         id="path12" /></clipPath><clipPath
       clipPathUnits="userSpaceOnUse"
       id="clipPath14"><path
         d="M 0,800 H 800 V 0 H 0 Z"
         transform="translate(-150.8916,-506.03761)"
         id="path14" /></clipPath><clipPath
       clipPathUnits="userSpaceOnUse"
       id="clipPath16"><path
         d="M 0,800 H 800 V 0 H 0 Z"
         transform="translate(-143.1655,-506.06982)"
         id="path16" /></clipPath><clipPath
       clipPathUnits="userSpaceOnUse"
       id="clipPath17"><path
         d="m 124.765,512.134 h 12.126 v -12.128 h -12.126 z"
         transform="translate(-136.8906,-506.06982)"
         id="path17" /></clipPath><clipPath
       clipPathUnits="userSpaceOnUse"
       id="clipPath19"><path
         d="M 0,800 H 800 V 0 H 0 Z"
         transform="matrix(1.3333333,0,0,-1.3333333,0,1066.6667)"
         id="path19" /></clipPath><clipPath
       clipPathUnits="userSpaceOnUse"
       id="clipPath20"><path
         d="m 128.842,508.055 h 3.971 v -3.972 h -3.971 z"
         transform="translate(-132.813,-506.06982)"
         id="path20" /></clipPath><clipPath
       clipPathUnits="userSpaceOnUse"
       id="clipPath22"><path
         d="M 0,800 H 800 V 0 H 0 Z"
         transform="matrix(1.3333333,0,0,-1.3333333,0,1066.6667)"
         id="path22" /></clipPath><clipPath
       clipPathUnits="userSpaceOnUse"
       id="clipPath24"><path
         d="M 0,800 H 800 V 0 H 0 Z"
         transform="translate(-136.18161,-518.06251)"
         id="path24" /></clipPath><clipPath
       clipPathUnits="userSpaceOnUse"
       id="clipPath26"><path
         d="M 0,800 H 800 V 0 H 0 Z"
         transform="translate(-143.36721,-510.77052)"
         id="path26" /></clipPath><clipPath
       clipPathUnits="userSpaceOnUse"
       id="clipPath28"><path
         d="M 0,800 H 800 V 0 H 0 Z"
         transform="translate(-143.292,-500.53471)"
         id="path28" /></clipPath><clipPath
       clipPathUnits="userSpaceOnUse"
       id="clipPath30"><path
         d="M 0,800 H 800 V 0 H 0 Z"
         transform="translate(-136,-493.34771)"
         id="path30" /></clipPath><clipPath
       clipPathUnits="userSpaceOnUse"
       id="clipPath32"><path
         d="M 0,800 H 800 V 0 H 0 Z"
         transform="translate(-125.76171,-493.42331)"
         id="path32" /></clipPath><clipPath
       clipPathUnits="userSpaceOnUse"
       id="clipPath34"><path
         d="M 0,800 H 800 V 0 H 0 Z"
         transform="translate(-118.57671,-500.71482)"
         id="path34" /></clipPath><clipPath
       clipPathUnits="userSpaceOnUse"
       id="clipPath36"><path
         d="M 0,800 H 800 V 0 H 0 Z"
         transform="translate(-118.65231,-510.95262)"
         id="path36" /></clipPath><clipPath
       clipPathUnits="userSpaceOnUse"
       id="clipPath38"><path
         d="M 0,800 H 800 V 0 H 0 Z"
         transform="translate(-125.9434,-518.13721)"
         id="path38" /></clipPath><clipPath
       clipPathUnits="userSpaceOnUse"
       id="clipPath40"><path
         d="M 0,800 H 800 V 0 H 0 Z"
         transform="translate(-132.0151,-518.99172)"
         id="path40" /></clipPath><clipPath
       clipPathUnits="userSpaceOnUse"
       id="clipPath42"><path
         d="M 0,800 H 800 V 0 H 0 Z"
         transform="translate(-141.8755,-514.49412)"
         id="path42" /></clipPath><clipPath
       clipPathUnits="userSpaceOnUse"
       id="clipPath44"><path
         d="M 0,800 H 800 V 0 H 0 Z"
         transform="translate(-143.814,-504.88431)"
         id="path44" /></clipPath><clipPath
       clipPathUnits="userSpaceOnUse"
       id="clipPath46"><path
         d="M 0,800 H 800 V 0 H 0 Z"
         transform="translate(-140.2432,-495.02151)"
         id="path46" /></clipPath><clipPath
       clipPathUnits="userSpaceOnUse"
       id="clipPath48"><path
         d="M 0,800 H 800 V 0 H 0 Z"
         transform="translate(-129.70611,-492.15431)"
         id="path48" /></clipPath><clipPath
       clipPathUnits="userSpaceOnUse"
       id="clipPath50"><path
         d="M 0,800 H 800 V 0 H 0 Z"
         transform="translate(-120.771,-496.65381)"
         id="path50" /></clipPath><clipPath
       clipPathUnits="userSpaceOnUse"
       id="clipPath52"><path
         d="M 0,800 H 800 V 0 H 0 Z"
         transform="translate(-116.97711,-507.19092)"
         id="path52" /></clipPath><clipPath
       clipPathUnits="userSpaceOnUse"
       id="clipPath54"><path
         d="M 0,800 H 800 V 0 H 0 Z"
         transform="translate(-122.40231,-516.12651)"
         id="path54" /></clipPath><clipPath
       clipPathUnits="userSpaceOnUse"
       id="clipPath56"><path
         d="M 0,800 H 800 V 0 H 0 Z"
         transform="translate(-362.52731,-505.69341)"
         id="path56" /></clipPath><clipPath
       clipPathUnits="userSpaceOnUse"
       id="clipPath58"><path
         d="M 0,800 H 800 V 0 H 0 Z"
         transform="translate(-352.87791,-505.69341)"
         id="path58" /></clipPath><clipPath
       clipPathUnits="userSpaceOnUse"
       id="clipPath60"><path
         d="M 0,800 H 800 V 0 H 0 Z"
         transform="translate(-345.15141,-505.72561)"
         id="path60" /></clipPath><clipPath
       clipPathUnits="userSpaceOnUse"
       id="clipPath61"><path
         d="m 326.75,511.79 h 12.126 V 499.662 H 326.75 Z"
         transform="translate(-338.87651,-505.72561)"
         id="path61" /></clipPath><clipPath
       clipPathUnits="userSpaceOnUse"
       id="clipPath63"><path
         d="M 0,800 H 800 V 0 H 0 Z"
         transform="matrix(1.3333333,0,0,-1.3333333,0,1066.6667)"
         id="path63" /></clipPath><clipPath
       clipPathUnits="userSpaceOnUse"
       id="clipPath64"><path
         d="m 330.829,507.711 h 3.971 v -3.972 h -3.971 z"
         transform="translate(-334.79981,-505.72561)"
         id="path64" /></clipPath><clipPath
       clipPathUnits="userSpaceOnUse"
       id="clipPath66"><path
         d="M 0,800 H 800 V 0 H 0 Z"
         transform="matrix(1.3333333,0,0,-1.3333333,0,1066.6667)"
         id="path66" /></clipPath><clipPath
       clipPathUnits="userSpaceOnUse"
       id="clipPath68"><path
         d="M 0,800 H 800 V 0 H 0 Z"
         transform="translate(-338.16751,-517.71871)"
         id="path68" /></clipPath><clipPath
       clipPathUnits="userSpaceOnUse"
       id="clipPath70"><path
         d="M 0,800 H 800 V 0 H 0 Z"
         transform="translate(-345.35301,-510.42631)"
         id="path70" /></clipPath><clipPath
       clipPathUnits="userSpaceOnUse"
       id="clipPath72"><path
         d="M 0,800 H 800 V 0 H 0 Z"
         transform="translate(-345.27831,-500.19042)"
         id="path72" /></clipPath><clipPath
       clipPathUnits="userSpaceOnUse"
       id="clipPath74"><path
         d="M 0,800 H 800 V 0 H 0 Z"
         transform="translate(-337.98581,-493.00391)"
         id="path74" /></clipPath><clipPath
       clipPathUnits="userSpaceOnUse"
       id="clipPath76"><path
         d="M 0,800 H 800 V 0 H 0 Z"
         transform="translate(-327.74801,-493.07911)"
         id="path76" /></clipPath><clipPath
       clipPathUnits="userSpaceOnUse"
       id="clipPath78"><path
         d="M 0,800 H 800 V 0 H 0 Z"
         transform="translate(-320.56301,-500.37061)"
         id="path78" /></clipPath><clipPath
       clipPathUnits="userSpaceOnUse"
       id="clipPath80"><path
         d="M 0,800 H 800 V 0 H 0 Z"
         transform="translate(-320.63821,-510.60841)"
         id="path80" /></clipPath><clipPath
       clipPathUnits="userSpaceOnUse"
       id="clipPath82"><path
         d="M 0,800 H 800 V 0 H 0 Z"
         transform="translate(-327.92971,-517.79301)"
         id="path82" /></clipPath><clipPath
       clipPathUnits="userSpaceOnUse"
       id="clipPath84"><path
         d="M 0,800 H 800 V 0 H 0 Z"
         transform="translate(-334.00101,-518.64751)"
         id="path84" /></clipPath><clipPath
       clipPathUnits="userSpaceOnUse"
       id="clipPath86"><path
         d="M 0,800 H 800 V 0 H 0 Z"
         transform="translate(-343.86181,-514.14991)"
         id="path86" /></clipPath><clipPath
       clipPathUnits="userSpaceOnUse"
       id="clipPath88"><path
         d="M 0,800 H 800 V 0 H 0 Z"
         transform="translate(-345.79981,-504.54001)"
         id="path88" /></clipPath><clipPath
       clipPathUnits="userSpaceOnUse"
       id="clipPath90"><path
         d="M 0,800 H 800 V 0 H 0 Z"
         transform="translate(-342.22951,-494.67721)"
         id="path90" /></clipPath><clipPath
       clipPathUnits="userSpaceOnUse"
       id="clipPath92"><path
         d="M 0,800 H 800 V 0 H 0 Z"
         transform="translate(-331.69191,-491.81011)"
         id="path92" /></clipPath><clipPath
       clipPathUnits="userSpaceOnUse"
       id="clipPath94"><path
         d="M 0,800 H 800 V 0 H 0 Z"
         transform="translate(-322.75731,-496.30961)"
         id="path94" /></clipPath><clipPath
       clipPathUnits="userSpaceOnUse"
       id="clipPath96"><path
         d="M 0,800 H 800 V 0 H 0 Z"
         transform="translate(-318.96341,-506.84671)"
         id="path96" /></clipPath><clipPath
       clipPathUnits="userSpaceOnUse"
       id="clipPath98"><path
         d="M 0,800 H 800 V 0 H 0 Z"
         transform="translate(-324.38871,-515.78221)"
         id="path98" /></clipPath><clipPath
       clipPathUnits="userSpaceOnUse"
       id="clipPath100"><path
         d="M 0,800 H 800 V 0 H 0 Z"
         transform="translate(-369.72751,-532.97851)"
         id="path100" /></clipPath><clipPath
       clipPathUnits="userSpaceOnUse"
       id="clipPath102"><path
         d="M 0,800 H 800 V 0 H 0 Z"
         transform="translate(-282.2266,-553.38822)"
         id="path102" /></clipPath></defs><g
     id="layer-MC1"
     transform="matrix(0.26458334,0,0,0.26458335,-21.951394,-74.25365)"><path
       id="path1"
       d="m 0,0 c -1.546,1.03 -3.78,7.387 -7.043,14.43 -3.263,7.042 -71.624,14.255 -83.132,14.255 -11.508,0 -45.177,30.233 -98.078,30.061 -52.901,-0.171 -61.325,-21.121 -91.382,-23.698 -30.057,-2.576 -29.215,-3.595 -30.073,-7.89 -0.859,-4.294 -3.125,-20.417 -9.308,-25.57 -6.183,-5.153 0.451,-20.567 2.168,-25.205 1.369,-3.697 23.175,-5.374 31.959,-5.903 -0.144,1.233 -0.227,2.484 -0.227,3.756 0,17.644 14.303,31.947 31.947,31.947 17.645,0 31.947,-14.527 31.947,-32.171 0,-2.604 -0.319,-4.783 -0.907,-7.783 h 57.587 l 82.625,-0.931 c -0.784,2.771 -1.212,5.804 -1.212,8.826 0,17.644 14.302,32.003 31.946,32.003 10.129,0 19.15,-4.69 25.003,-12.043 0.024,-0.028 0.05,-0.042 0.074,-0.07 0.715,-0.849 1.332,-1.732 1.878,-2.646 3.156,-4.953 4.992,-10.826 4.992,-17.135 0,-2.654 -0.329,-5.229 -0.939,-7.693 5.445,-0.332 17.341,1.576 20.175,4.261 C 3.264,-26.108 1.546,-1.031 0,0"
       style="fill:#ffffff;fill-opacity:1;fill-rule:nonzero;stroke:none"
       transform="matrix(1.3333333,0,0,-1.3333333,511.7656,358.97267)"
       clip-path="url(#clipPath2)" /><path
       id="path3"
       d="m 0,0 h 6.183 c 0,0 8.352,8.615 7.351,10.317 -1.002,1.703 -9.512,0.714 -9.512,0.714 L -1.393,10.676 -3.722,0 Z"
       style="fill:#ee3e38;fill-opacity:1;fill-rule:nonzero;stroke:none"
       transform="matrix(1.3333333,0,0,-1.3333333,100.0084,341.33333)"
       clip-path="url(#clipPath4)" /><path
       id="path5"
       d="m 0,0 c 0.11,0.432 -1.883,26.096 -1.883,26.096 0,0 -25.802,0.971 -38.759,-3.234 C -53.598,18.656 -71.87,6.039 -72.867,3.775 Z"
       style="fill:#1a1a1a;fill-opacity:1;fill-rule:nonzero;stroke:none"
       transform="matrix(1.3333333,0,0,-1.3333333,277.3796,320.88667)"
       clip-path="url(#clipPath6)" /><path
       id="path7"
       d="m 0,0 -2.521,25.968 c 0,0 21.656,-0.644 41.524,-10.618 C 54.408,7.617 69.988,-3.02 70.431,-3.236 70.874,-3.451 0,0 0,0"
       style="fill:#1a1a1a;fill-opacity:1;fill-rule:nonzero;stroke:none"
       transform="matrix(1.3333333,0,0,-1.3333333,280.77533,320.88667)"
       clip-path="url(#clipPath8)" /><path
       id="path9"
       d="M 0,0 C 0,0 104.078,-4.028 120.53,0"
       style="fill:#1a1a1a;fill-opacity:1;fill-rule:nonzero;stroke:none"
       transform="matrix(1.3333333,0,0,-1.3333333,228.80467,391.87507)"
       clip-path="url(#clipPath10)" /><path
       id="path11"
       d="m 0,0 c 0,-16.393 -13.288,-29.681 -29.681,-29.681 -16.392,0 -29.681,13.288 -29.681,29.681 0,16.393 13.289,29.681 29.681,29.681 C -13.288,29.681 0,16.393 0,0"
       style="fill:#000000;fill-opacity:1;fill-rule:nonzero;stroke:none"
       transform="matrix(1.3333333,0,0,-1.3333333,214.05467,391.94987)"
       clip-path="url(#clipPath12)" /><path
       id="path13"
       d="m 0,0 c 0,-11.064 -8.968,-20.031 -20.031,-20.031 -11.064,0 -20.032,8.967 -20.032,20.031 0,11.063 8.968,20.032 20.032,20.032 C -8.968,20.032 0,11.063 0,0"
       style="fill:#fafcfb;fill-opacity:1;fill-rule:nonzero;stroke:none"
       transform="matrix(1.3333333,0,0,-1.3333333,201.1888,391.94987)"
       clip-path="url(#clipPath14)" /><path
       id="path15"
       d="m 0,0 c 0,-6.814 -5.524,-12.337 -12.338,-12.337 -6.814,0 -12.337,5.523 -12.337,12.337 0,6.814 5.523,12.337 12.337,12.337 C -5.524,12.337 0,6.814 0,0"
       style="fill:#bdbdbd;fill-opacity:1;fill-rule:nonzero;stroke:none"
       transform="matrix(1.3333333,0,0,-1.3333333,190.88733,391.90693)"
       clip-path="url(#clipPath16)" /><g
       opacity="0.199997"
       id="g18"
       clip-path="url(#clipPath19)"><path
         d="m 0,0 c 0,-3.35 -2.715,-6.063 -6.063,-6.063 -3.349,0 -6.063,2.713 -6.063,6.063 0,3.349 2.714,6.064 6.063,6.064 C -2.715,6.064 0,3.349 0,0"
         style="fill:#bdbdbd;fill-opacity:1;fill-rule:nonzero;stroke:none"
         transform="matrix(1.3333333,0,0,-1.3333333,182.5208,391.90693)"
         clip-path="url(#clipPath17)"
         id="path18" /></g><g
       opacity="0.199997"
       id="g21"
       clip-path="url(#clipPath22)"><path
         d="m 0,0 c 0,-1.097 -0.89,-1.987 -1.985,-1.987 -1.097,0 -1.986,0.89 -1.986,1.987 0,1.098 0.889,1.985 1.986,1.985 C -0.89,1.985 0,1.098 0,0"
         style="fill:#bdbdbd;fill-opacity:1;fill-rule:nonzero;stroke:none"
         transform="matrix(1.3333333,0,0,-1.3333333,177.084,391.90693)"
         clip-path="url(#clipPath20)"
         id="path21" /></g><path
       id="path23"
       d="m 0,0 c 0,-2.92 -2.368,-5.288 -5.289,-5.288 -2.921,0 -5.288,2.368 -5.288,5.288 0,2.922 2.367,5.29 5.288,5.29 C -2.368,5.29 0,2.922 0,0"
       style="fill:#bdbdbd;fill-opacity:1;fill-rule:nonzero;stroke:none"
       transform="matrix(1.3333333,0,0,-1.3333333,181.57547,375.91667)"
       clip-path="url(#clipPath24)" /><path
       id="path25"
       d="m 0,0 c -2.066,-2.064 -5.413,-2.064 -7.479,0 -2.066,2.066 -2.066,5.415 0,7.48 2.065,2.065 5.414,2.065 7.479,0 C 2.066,5.415 2.066,2.066 0,0"
       style="fill:#bdbdbd;fill-opacity:1;fill-rule:nonzero;stroke:none"
       transform="matrix(1.3333333,0,0,-1.3333333,191.15627,385.63933)"
       clip-path="url(#clipPath26)" /><path
       id="path27"
       d="m 0,0 c -2.921,0 -5.289,2.367 -5.289,5.288 0,2.92 2.368,5.288 5.289,5.288 C 2.921,10.575 5.29,8.208 5.29,5.288 5.29,2.366 2.921,0 0,0"
       style="fill:#bdbdbd;fill-opacity:1;fill-rule:nonzero;stroke:none"
       transform="matrix(1.3333333,0,0,-1.3333333,191.056,399.28707)"
       clip-path="url(#clipPath28)" /><path
       id="path29"
       d="m 0,0 c -2.065,2.065 -2.065,5.414 0,7.479 2.065,2.066 5.414,2.067 7.479,0 2.066,-2.065 2.065,-5.415 0,-7.48 C 5.413,-2.065 2.065,-2.065 0,0"
       style="fill:#bdbdbd;fill-opacity:1;fill-rule:nonzero;stroke:none"
       transform="matrix(1.3333333,0,0,-1.3333333,181.33333,408.86973)"
       clip-path="url(#clipPath30)" /><path
       id="path31"
       d="m 0,0 c 0,2.919 2.369,5.288 5.289,5.289 2.92,-10e-4 5.289,-2.369 5.289,-5.29 0,-2.921 -2.369,-5.29 -5.289,-5.29 C 2.368,-5.29 0,-2.922 0,0"
       style="fill:#bdbdbd;fill-opacity:1;fill-rule:nonzero;stroke:none"
       transform="matrix(1.3333333,0,0,-1.3333333,167.68227,408.76893)"
       clip-path="url(#clipPath32)" /><path
       id="path33"
       d="m 0,0 c 2.065,2.065 5.414,2.065 7.479,0.001 2.064,-2.066 2.066,-5.415 0,-7.481 -2.066,-2.066 -5.416,-2.066 -7.48,0 C -2.065,-5.414 -2.067,-2.065 0,0"
       style="fill:#bdbdbd;fill-opacity:1;fill-rule:nonzero;stroke:none"
       transform="matrix(1.3333333,0,0,-1.3333333,158.10227,399.04693)"
       clip-path="url(#clipPath34)" /><path
       id="path35"
       d="m 0,0 c 2.919,0 5.288,-2.368 5.289,-5.289 -0.002,-2.92 -2.368,-5.29 -5.29,-5.29 -2.922,0.003 -5.29,2.37 -5.29,5.29 C -5.289,-2.368 -2.923,0.001 0,0"
       style="fill:#bdbdbd;fill-opacity:1;fill-rule:nonzero;stroke:none"
       transform="matrix(1.3333333,0,0,-1.3333333,158.20307,385.39653)"
       clip-path="url(#clipPath36)" /><path
       id="path37"
       d="m 0,0 c 2.065,-2.063 2.065,-5.414 0.001,-7.479 -2.066,-2.063 -5.415,-2.066 -7.481,0 -2.065,2.067 -2.065,5.417 0,7.481 C -5.413,2.066 -2.065,2.067 0,0"
       style="fill:#bdbdbd;fill-opacity:1;fill-rule:nonzero;stroke:none"
       transform="matrix(1.3333333,0,0,-1.3333333,167.92453,375.81707)"
       clip-path="url(#clipPath38)" /><path
       id="path39"
       d="m 0,0 c 0,-0.621 -0.503,-1.122 -1.122,-1.122 -0.62,0 -1.122,0.501 -1.122,1.122 0,0.619 0.502,1.121 1.122,1.121 C -0.503,1.121 0,0.619 0,0"
       style="fill:#000000;fill-opacity:1;fill-rule:nonzero;stroke:none"
       transform="matrix(1.3333333,0,0,-1.3333333,176.02013,374.67773)"
       clip-path="url(#clipPath40)" /><path
       id="path41"
       d="m 0,0 c -0.438,-0.44 -1.148,-0.44 -1.586,-0.002 -0.438,0.439 -0.438,1.149 0,1.588 C -1.148,2.023 -0.438,2.023 0,1.585 0.438,1.147 0.438,0.437 0,0"
       style="fill:#000000;fill-opacity:1;fill-rule:nonzero;stroke:none"
       transform="matrix(1.3333333,0,0,-1.3333333,189.16733,380.67453)"
       clip-path="url(#clipPath42)" /><path
       id="path43"
       d="M 0,0 C -0.62,0 -1.122,0.501 -1.122,1.12 -1.123,1.741 -0.621,2.242 0,2.242 0.619,2.242 1.12,1.741 1.121,1.12 1.121,0.501 0.619,0 0,0"
       style="fill:#000000;fill-opacity:1;fill-rule:nonzero;stroke:none"
       transform="matrix(1.3333333,0,0,-1.3333333,191.752,393.4876)"
       clip-path="url(#clipPath44)" /><path
       id="path45"
       d="m 0,0 c -0.437,0.438 -0.438,1.148 0,1.586 0.438,0.439 1.148,0.439 1.586,0 C 2.024,1.148 2.024,0.439 1.586,0 1.148,-0.44 0.439,-0.438 0,0"
       style="fill:#000000;fill-opacity:1;fill-rule:nonzero;stroke:none"
       transform="matrix(1.3333333,0,0,-1.3333333,186.99093,406.638)"
       clip-path="url(#clipPath46)" /><path
       id="path47"
       d="M 0,0 C 0,0.621 0.501,1.124 1.122,1.124 1.74,1.124 2.243,0.622 2.243,0.002 2.243,-0.617 1.74,-1.119 1.121,-1.119 0.5,-1.12 0,-0.617 0,0"
       style="fill:#000000;fill-opacity:1;fill-rule:nonzero;stroke:none"
       transform="matrix(1.3333333,0,0,-1.3333333,172.94147,410.46093)"
       clip-path="url(#clipPath48)" /><path
       id="path49"
       d="m 0,0 c 0.438,0.438 1.148,0.44 1.587,0 0.438,-0.437 0.438,-1.148 0,-1.586 C 1.149,-2.023 0.439,-2.024 0,-1.586 -0.439,-1.148 -0.437,-0.437 0,0"
       style="fill:#000000;fill-opacity:1;fill-rule:nonzero;stroke:none"
       transform="matrix(1.3333333,0,0,-1.3333333,161.028,404.4616)"
       clip-path="url(#clipPath50)" /><path
       id="path51"
       d="m 0,0 c 0.621,0 1.124,-0.5 1.124,-1.121 0,-0.619 -0.502,-1.12 -1.122,-1.12 -0.619,0 -1.121,0.501 -1.121,1.12 C -1.121,-0.5 -0.617,0.002 0,0"
       style="fill:#000000;fill-opacity:1;fill-rule:nonzero;stroke:none"
       transform="matrix(1.3333333,0,0,-1.3333333,155.96947,390.41213)"
       clip-path="url(#clipPath52)" /><path
       id="path53"
       d="m 0,0 c 0.438,-0.44 0.441,-1.148 0.002,-1.587 -0.438,-0.438 -1.148,-0.439 -1.587,0 -0.437,0.438 -0.437,1.147 0,1.587 0.439,0.44 1.149,0.438 1.585,0"
       style="fill:#000000;fill-opacity:1;fill-rule:nonzero;stroke:none"
       transform="matrix(1.3333333,0,0,-1.3333333,163.20307,378.498)"
       clip-path="url(#clipPath54)" /><path
       id="path55"
       d="m 0,0 c 0,-16.393 -13.288,-29.681 -29.681,-29.681 -16.393,0 -29.681,13.288 -29.681,29.681 0,16.393 13.288,29.681 29.681,29.681 C -13.288,29.681 0,16.393 0,0"
       style="fill:#000000;fill-opacity:1;fill-rule:nonzero;stroke:none"
       transform="matrix(1.3333333,0,0,-1.3333333,483.36973,392.4088)"
       clip-path="url(#clipPath56)" /><path
       id="path57"
       d="m 0,0 c 0,-11.064 -8.968,-20.031 -20.032,-20.031 -11.063,0 -20.031,8.967 -20.031,20.031 0,11.063 8.968,20.032 20.031,20.032 C -8.968,20.032 0,11.063 0,0"
       style="fill:#fafcfb;fill-opacity:1;fill-rule:nonzero;stroke:none"
       transform="matrix(1.3333333,0,0,-1.3333333,470.50387,392.4088)"
       clip-path="url(#clipPath58)" /><path
       id="path59"
       d="m 0,0 c 0,-6.814 -5.524,-12.337 -12.338,-12.337 -6.813,0 -12.337,5.523 -12.337,12.337 0,6.814 5.524,12.337 12.337,12.337 C -5.524,12.337 0,6.814 0,0"
       style="fill:#bdbdbd;fill-opacity:1;fill-rule:nonzero;stroke:none"
       transform="matrix(1.3333333,0,0,-1.3333333,460.20187,392.36587)"
       clip-path="url(#clipPath60)" /><g
       opacity="0.199997"
       id="g62"
       clip-path="url(#clipPath63)"><path
         d="m 0,0 c 0,-3.35 -2.715,-6.063 -6.063,-6.063 -3.349,0 -6.063,2.713 -6.063,6.063 0,3.349 2.714,6.064 6.063,6.064 C -2.715,6.064 0,3.349 0,0"
         style="fill:#bdbdbd;fill-opacity:1;fill-rule:nonzero;stroke:none"
         transform="matrix(1.3333333,0,0,-1.3333333,451.83533,392.36587)"
         clip-path="url(#clipPath61)"
         id="path62" /></g><g
       opacity="0.199997"
       id="g65"
       clip-path="url(#clipPath66)"><path
         d="m 0,0 c 0,-1.097 -0.89,-1.987 -1.986,-1.987 -1.096,0 -1.985,0.89 -1.985,1.987 0,1.098 0.889,1.985 1.985,1.985 C -0.89,1.985 0,1.098 0,0"
         style="fill:#bdbdbd;fill-opacity:1;fill-rule:nonzero;stroke:none"
         transform="matrix(1.3333333,0,0,-1.3333333,446.39973,392.36587)"
         clip-path="url(#clipPath64)"
         id="path65" /></g><path
       id="path67"
       d="m 0,0 c 0,-2.921 -2.368,-5.289 -5.289,-5.289 -2.92,0 -5.288,2.368 -5.288,5.289 0,2.921 2.368,5.29 5.288,5.29 C -2.368,5.29 0,2.921 0,0"
       style="fill:#bdbdbd;fill-opacity:1;fill-rule:nonzero;stroke:none"
       transform="matrix(1.3333333,0,0,-1.3333333,450.89,376.37507)"
       clip-path="url(#clipPath68)" /><path
       id="path69"
       d="M 0,0 C -2.065,-2.064 -5.413,-2.064 -7.478,0 -9.545,2.066 -9.545,5.415 -7.479,7.48 -5.414,9.545 -2.064,9.545 0,7.48 2.066,5.415 2.066,2.066 0,0"
       style="fill:#bdbdbd;fill-opacity:1;fill-rule:nonzero;stroke:none"
       transform="matrix(1.3333333,0,0,-1.3333333,460.47067,386.09827)"
       clip-path="url(#clipPath70)" /><path
       id="path71"
       d="m 0,0 c -2.921,0 -5.289,2.367 -5.289,5.288 0,2.92 2.368,5.288 5.289,5.288 C 2.921,10.575 5.29,8.208 5.29,5.288 5.29,2.366 2.921,0 0,0"
       style="fill:#bdbdbd;fill-opacity:1;fill-rule:nonzero;stroke:none"
       transform="matrix(1.3333333,0,0,-1.3333333,460.37107,399.74613)"
       clip-path="url(#clipPath72)" /><path
       id="path73"
       d="m 0,0 c -2.065,2.065 -2.065,5.413 0,7.479 2.065,2.065 5.414,2.066 7.479,0 2.067,-2.066 2.065,-5.415 0,-7.48 C 5.414,-2.065 2.065,-2.065 0,0"
       style="fill:#bdbdbd;fill-opacity:1;fill-rule:nonzero;stroke:none"
       transform="matrix(1.3333333,0,0,-1.3333333,450.64773,409.32813)"
       clip-path="url(#clipPath74)" /><path
       id="path75"
       d="m 0,0 c 0,2.919 2.369,5.288 5.289,5.289 2.92,-10e-4 5.289,-2.369 5.289,-5.29 0,-2.921 -2.369,-5.29 -5.289,-5.29 C 2.367,-5.29 0,-2.922 0,0"
       style="fill:#bdbdbd;fill-opacity:1;fill-rule:nonzero;stroke:none"
       transform="matrix(1.3333333,0,0,-1.3333333,436.99733,409.22787)"
       clip-path="url(#clipPath76)" /><path
       id="path77"
       d="m 0,0 c 2.065,2.065 5.414,2.065 7.479,0.001 2.064,-2.066 2.066,-5.415 0,-7.481 -2.066,-2.066 -5.416,-2.066 -7.481,0 C -2.066,-5.414 -2.067,-2.065 0,0"
       style="fill:#bdbdbd;fill-opacity:1;fill-rule:nonzero;stroke:none"
       transform="matrix(1.3333333,0,0,-1.3333333,427.41733,399.50587)"
       clip-path="url(#clipPath78)" /><path
       id="path79"
       d="m 0,0 c 2.919,0 5.288,-2.368 5.289,-5.289 -0.002,-2.92 -2.368,-5.29 -5.29,-5.29 -2.921,0.003 -5.29,2.37 -5.29,5.29 C -5.289,-2.368 -2.922,0.001 0,0"
       style="fill:#bdbdbd;fill-opacity:1;fill-rule:nonzero;stroke:none"
       transform="matrix(1.3333333,0,0,-1.3333333,427.5176,385.85547)"
       clip-path="url(#clipPath80)" /><path
       id="path81"
       d="m 0,0 c 2.064,-2.063 2.064,-5.413 0.001,-7.479 -2.066,-2.063 -5.415,-2.066 -7.481,0 -2.065,2.067 -2.065,5.417 0,7.481 C -5.414,2.066 -2.065,2.067 0,0"
       style="fill:#bdbdbd;fill-opacity:1;fill-rule:nonzero;stroke:none"
       transform="matrix(1.3333333,0,0,-1.3333333,437.2396,376.276)"
       clip-path="url(#clipPath82)" /><path
       id="path83"
       d="m 0,0 c 0,-0.621 -0.502,-1.122 -1.122,-1.122 -0.62,0 -1.122,0.501 -1.122,1.122 0,0.619 0.502,1.121 1.122,1.121 C -0.502,1.121 0,0.619 0,0"
       style="fill:#000000;fill-opacity:1;fill-rule:nonzero;stroke:none"
       transform="matrix(1.3333333,0,0,-1.3333333,445.33467,375.13667)"
       clip-path="url(#clipPath84)" /><path
       id="path85"
       d="m 0,0 c -0.438,-0.44 -1.148,-0.44 -1.586,-0.002 -0.438,0.44 -0.438,1.149 0,1.588 C -1.148,2.023 -0.438,2.023 0,1.585 0.438,1.147 0.438,0.438 0,0"
       style="fill:#000000;fill-opacity:1;fill-rule:nonzero;stroke:none"
       transform="matrix(1.3333333,0,0,-1.3333333,458.4824,381.13347)"
       clip-path="url(#clipPath86)" /><path
       id="path87"
       d="M 0,0 C -0.62,0 -1.122,0.501 -1.122,1.12 -1.123,1.741 -0.62,2.242 0,2.242 0.619,2.242 1.12,1.741 1.121,1.12 1.121,0.501 0.619,0 0,0"
       style="fill:#000000;fill-opacity:1;fill-rule:nonzero;stroke:none"
       transform="matrix(1.3333333,0,0,-1.3333333,461.0664,393.94667)"
       clip-path="url(#clipPath88)" /><path
       id="path89"
       d="m 0,0 c -0.438,0.438 -0.438,1.148 0,1.586 0.437,0.439 1.147,0.439 1.586,0 C 2.024,1.148 2.024,0.439 1.586,0 1.147,-0.44 0.438,-0.437 0,0"
       style="fill:#000000;fill-opacity:1;fill-rule:nonzero;stroke:none"
       transform="matrix(1.3333333,0,0,-1.3333333,456.306,407.09707)"
       clip-path="url(#clipPath90)" /><path
       id="path91"
       d="m 0,0 c 0,0.621 0.501,1.124 1.122,1.124 0.619,0 1.121,-0.502 1.121,-1.122 0,-0.619 -0.502,-1.121 -1.122,-1.121 C 0.501,-1.12 0,-0.617 0,0"
       style="fill:#000000;fill-opacity:1;fill-rule:nonzero;stroke:none"
       transform="matrix(1.3333333,0,0,-1.3333333,442.25587,410.91987)"
       clip-path="url(#clipPath92)" /><path
       id="path93"
       d="m 0,0 c 0.438,0.438 1.147,0.44 1.587,0 0.438,-0.437 0.438,-1.148 0,-1.586 C 1.148,-2.023 0.438,-2.024 0,-1.586 -0.44,-1.148 -0.437,-0.437 0,0"
       style="fill:#000000;fill-opacity:1;fill-rule:nonzero;stroke:none"
       transform="matrix(1.3333333,0,0,-1.3333333,430.34307,404.92053)"
       clip-path="url(#clipPath94)" /><path
       id="path95"
       d="m 0,0 c 0.621,0 1.124,-0.5 1.124,-1.121 0,-0.619 -0.503,-1.12 -1.122,-1.12 -0.619,0 -1.121,0.501 -1.121,1.12 C -1.121,-0.5 -0.617,0.002 0,0"
       style="fill:#000000;fill-opacity:1;fill-rule:nonzero;stroke:none"
       transform="matrix(1.3333333,0,0,-1.3333333,425.28453,390.87107)"
       clip-path="url(#clipPath96)" /><path
       id="path97"
       d="m 0,0 c 0.438,-0.44 0.442,-1.148 0.002,-1.587 -0.438,-0.438 -1.148,-0.439 -1.587,0 -0.437,0.438 -0.438,1.147 0,1.587 0.439,0.44 1.149,0.438 1.585,0"
       style="fill:#000000;fill-opacity:1;fill-rule:nonzero;stroke:none"
       transform="matrix(1.3333333,0,0,-1.3333333,432.51827,378.95707)"
       clip-path="url(#clipPath98)" /><path
       id="path99"
       d="M 0,0 C -0.114,0.062 -16.982,11.185 -14.043,11.389 -8.606305,10.887426 -2.9201173,11.917914 -0.205,10.328 2.245,8.695 11.43,0.897 10.858,-0.409 10.287,-1.715 2.204,-1.185 0,0"
       style="fill:#b3b3b3;fill-opacity:1;fill-rule:nonzero;stroke:none"
       transform="matrix(1.3333333,0,0,-1.3333333,492.97,356.02867)"
       clip-path="url(#clipPath100)" /><path
       id="path101"
       d="M 0,0 C 0,0 -122.856,7.71 -147.649,6.907"
       style="fill:#1a1a1a;fill-opacity:1;fill-rule:nonzero;stroke:none"
       transform="matrix(1.3333333,0,0,-1.3333333,376.30213,328.81573)"
       clip-path="url(#clipPath102)" /></g></svg>
