<?xml version="1.0" encoding="UTF-8" standalone="no"?>
<!-- Created with Inkscape (http://www.inkscape.org/) -->

<svg
   width="113.45358mm"
   height="45.065327mm"
   viewBox="0 0 113.45358 45.065327"
   version="1.1"
   id="svg1"
   xml:space="preserve"
   xmlns="http://www.w3.org/2000/svg"
   xmlns:svg="http://www.w3.org/2000/svg"><defs
     id="defs1"><clipPath
       clipPathUnits="userSpaceOnUse"
       id="clipPath318"><path
         d="M 0,800 H 800 V 0 H 0 Z"
         transform="translate(-741.99222,-526.27782)"
         id="path318" /></clipPath><clipPath
       clipPathUnits="userSpaceOnUse"
       id="clipPath320"><path
         d="M 0,800 H 800 V 0 H 0 Z"
         transform="translate(-541.57811,-507.85992)"
         id="path320" /></clipPath><clipPath
       clipPathUnits="userSpaceOnUse"
       id="clipPath322"><path
         d="M 0,800 H 800 V 0 H 0 Z"
         transform="translate(-459.78321,-528.51901)"
         id="path322" /></clipPath><clipPath
       clipPathUnits="userSpaceOnUse"
       id="clipPath324"><path
         d="M 0,800 H 800 V 0 H 0 Z"
         transform="translate(-484.28121,-572.28081)"
         id="path324" /></clipPath><clipPath
       clipPathUnits="userSpaceOnUse"
       id="clipPath326"><path
         d="M 0,800 H 800 V 0 H 0 Z"
         transform="translate(-527.24411,-562.03561)"
         id="path326" /></clipPath><clipPath
       clipPathUnits="userSpaceOnUse"
       id="clipPath328"><path
         d="M 0,800 H 800 V 0 H 0 Z"
         transform="translate(-598.98052,-562.93851)"
         id="path328" /></clipPath><clipPath
       clipPathUnits="userSpaceOnUse"
       id="clipPath330"><path
         d="M 0,800 H 800 V 0 H 0 Z"
         transform="translate(-534.62701,-507.80761)"
         id="path330" /></clipPath><clipPath
       clipPathUnits="userSpaceOnUse"
       id="clipPath332"><path
         d="M 0,800 H 800 V 0 H 0 Z"
         transform="translate(-524.97851,-507.80761)"
         id="path332" /></clipPath><clipPath
       clipPathUnits="userSpaceOnUse"
       id="clipPath334"><path
         d="M 0,800 H 800 V 0 H 0 Z"
         transform="translate(-517.25201,-507.83982)"
         id="path334" /></clipPath><clipPath
       clipPathUnits="userSpaceOnUse"
       id="clipPath335"><path
         d="m 498.85,513.904 h 12.127 V 501.776 H 498.85 Z"
         transform="translate(-510.97661,-507.83982)"
         id="path335" /></clipPath><clipPath
       clipPathUnits="userSpaceOnUse"
       id="clipPath337"><path
         d="M 0,800 H 800 V 0 H 0 Z"
         transform="matrix(1.3333333,0,0,-1.3333333,0,1066.6667)"
         id="path337" /></clipPath><clipPath
       clipPathUnits="userSpaceOnUse"
       id="clipPath338"><path
         d="m 502.928,509.826 h 3.972 v -3.973 h -3.972 z"
         transform="translate(-506.90041,-507.83982)"
         id="path338" /></clipPath><clipPath
       clipPathUnits="userSpaceOnUse"
       id="clipPath340"><path
         d="M 0,800 H 800 V 0 H 0 Z"
         transform="matrix(1.3333333,0,0,-1.3333333,0,1066.6667)"
         id="path340" /></clipPath><clipPath
       clipPathUnits="userSpaceOnUse"
       id="clipPath342"><path
         d="M 0,800 H 800 V 0 H 0 Z"
         transform="translate(-510.26761,-519.83301)"
         id="path342" /></clipPath><clipPath
       clipPathUnits="userSpaceOnUse"
       id="clipPath344"><path
         d="M 0,800 H 800 V 0 H 0 Z"
         transform="translate(-517.45312,-512.54052)"
         id="path344" /></clipPath><clipPath
       clipPathUnits="userSpaceOnUse"
       id="clipPath346"><path
         d="M 0,800 H 800 V 0 H 0 Z"
         transform="translate(-517.37891,-502.30471)"
         id="path346" /></clipPath><clipPath
       clipPathUnits="userSpaceOnUse"
       id="clipPath348"><path
         d="M 0,800 H 800 V 0 H 0 Z"
         transform="translate(-510.08591,-495.11821)"
         id="path348" /></clipPath><clipPath
       clipPathUnits="userSpaceOnUse"
       id="clipPath350"><path
         d="M 0,800 H 800 V 0 H 0 Z"
         transform="translate(-499.84961,-495.19341)"
         id="path350" /></clipPath><clipPath
       clipPathUnits="userSpaceOnUse"
       id="clipPath352"><path
         d="M 0,800 H 800 V 0 H 0 Z"
         transform="translate(-492.66411,-502.48491)"
         id="path352" /></clipPath><clipPath
       clipPathUnits="userSpaceOnUse"
       id="clipPath354"><path
         d="M 0,800 H 800 V 0 H 0 Z"
         transform="translate(-492.73831,-512.72271)"
         id="path354" /></clipPath><clipPath
       clipPathUnits="userSpaceOnUse"
       id="clipPath356"><path
         d="M 0,800 H 800 V 0 H 0 Z"
         transform="translate(-500.02931,-519.90721)"
         id="path356" /></clipPath><clipPath
       clipPathUnits="userSpaceOnUse"
       id="clipPath358"><path
         d="M 0,800 H 800 V 0 H 0 Z"
         transform="translate(-506.10161,-520.76172)"
         id="path358" /></clipPath><clipPath
       clipPathUnits="userSpaceOnUse"
       id="clipPath360"><path
         d="M 0,800 H 800 V 0 H 0 Z"
         transform="translate(-515.96291,-516.26421)"
         id="path360" /></clipPath><clipPath
       clipPathUnits="userSpaceOnUse"
       id="clipPath362"><path
         d="M 0,800 H 800 V 0 H 0 Z"
         transform="translate(-517.90042,-506.65431)"
         id="path362" /></clipPath><clipPath
       clipPathUnits="userSpaceOnUse"
       id="clipPath364"><path
         d="M 0,800 H 800 V 0 H 0 Z"
         transform="translate(-514.33012,-496.79201)"
         id="path364" /></clipPath><clipPath
       clipPathUnits="userSpaceOnUse"
       id="clipPath366"><path
         d="M 0,800 H 800 V 0 H 0 Z"
         transform="translate(-503.79101,-493.92431)"
         id="path366" /></clipPath><clipPath
       clipPathUnits="userSpaceOnUse"
       id="clipPath368"><path
         d="M 0,800 H 800 V 0 H 0 Z"
         transform="translate(-494.85741,-498.42431)"
         id="path368" /></clipPath><clipPath
       clipPathUnits="userSpaceOnUse"
       id="clipPath370"><path
         d="M 0,800 H 800 V 0 H 0 Z"
         transform="translate(-491.06251,-508.96092)"
         id="path370" /></clipPath><clipPath
       clipPathUnits="userSpaceOnUse"
       id="clipPath372"><path
         d="M 0,800 H 800 V 0 H 0 Z"
         transform="translate(-496.49021,-517.89651)"
         id="path372" /></clipPath><clipPath
       clipPathUnits="userSpaceOnUse"
       id="clipPath374"><path
         d="M 0,800 H 800 V 0 H 0 Z"
         transform="translate(-735.58402,-507.80761)"
         id="path374" /></clipPath><clipPath
       clipPathUnits="userSpaceOnUse"
       id="clipPath376"><path
         d="M 0,800 H 800 V 0 H 0 Z"
         transform="translate(-725.93362,-507.80761)"
         id="path376" /></clipPath><clipPath
       clipPathUnits="userSpaceOnUse"
       id="clipPath378"><path
         d="M 0,800 H 800 V 0 H 0 Z"
         transform="translate(-718.20702,-507.83982)"
         id="path378" /></clipPath><clipPath
       clipPathUnits="userSpaceOnUse"
       id="clipPath379"><path
         d="m 699.807,513.904 h 12.127 v -12.128 h -12.127 z"
         transform="translate(-711.93362,-507.83982)"
         id="path379" /></clipPath><clipPath
       clipPathUnits="userSpaceOnUse"
       id="clipPath381"><path
         d="M 0,800 H 800 V 0 H 0 Z"
         transform="matrix(1.3333333,0,0,-1.3333333,0,1066.6667)"
         id="path381" /></clipPath><clipPath
       clipPathUnits="userSpaceOnUse"
       id="clipPath382"><path
         d="m 703.885,509.826 h 3.97 v -3.973 h -3.97 z"
         transform="translate(-707.85552,-507.83982)"
         id="path382" /></clipPath><clipPath
       clipPathUnits="userSpaceOnUse"
       id="clipPath384"><path
         d="M 0,800 H 800 V 0 H 0 Z"
         transform="matrix(1.3333333,0,0,-1.3333333,0,1066.6667)"
         id="path384" /></clipPath><clipPath
       clipPathUnits="userSpaceOnUse"
       id="clipPath386"><path
         d="M 0,800 H 800 V 0 H 0 Z"
         transform="translate(-711.22272,-519.83301)"
         id="path386" /></clipPath><clipPath
       clipPathUnits="userSpaceOnUse"
       id="clipPath388"><path
         d="M 0,800 H 800 V 0 H 0 Z"
         transform="translate(-718.40822,-512.54052)"
         id="path388" /></clipPath><clipPath
       clipPathUnits="userSpaceOnUse"
       id="clipPath390"><path
         d="M 0,800 H 800 V 0 H 0 Z"
         transform="translate(-718.33402,-502.30471)"
         id="path390" /></clipPath><clipPath
       clipPathUnits="userSpaceOnUse"
       id="clipPath392"><path
         d="M 0,800 H 800 V 0 H 0 Z"
         transform="translate(-711.04102,-495.11821)"
         id="path392" /></clipPath><clipPath
       clipPathUnits="userSpaceOnUse"
       id="clipPath394"><path
         d="M 0,800 H 800 V 0 H 0 Z"
         transform="translate(-700.80472,-495.19341)"
         id="path394" /></clipPath><clipPath
       clipPathUnits="userSpaceOnUse"
       id="clipPath396"><path
         d="M 0,800 H 800 V 0 H 0 Z"
         transform="translate(-693.61912,-502.48491)"
         id="path396" /></clipPath><clipPath
       clipPathUnits="userSpaceOnUse"
       id="clipPath398"><path
         d="M 0,800 H 800 V 0 H 0 Z"
         transform="translate(-693.69341,-512.72271)"
         id="path398" /></clipPath><clipPath
       clipPathUnits="userSpaceOnUse"
       id="clipPath400"><path
         d="M 0,800 H 800 V 0 H 0 Z"
         transform="translate(-700.98632,-519.90721)"
         id="path400" /></clipPath><clipPath
       clipPathUnits="userSpaceOnUse"
       id="clipPath402"><path
         d="M 0,800 H 800 V 0 H 0 Z"
         transform="translate(-707.05662,-520.76172)"
         id="path402" /></clipPath><clipPath
       clipPathUnits="userSpaceOnUse"
       id="clipPath404"><path
         d="M 0,800 H 800 V 0 H 0 Z"
         transform="translate(-716.91802,-516.26421)"
         id="path404" /></clipPath><clipPath
       clipPathUnits="userSpaceOnUse"
       id="clipPath406"><path
         d="M 0,800 H 800 V 0 H 0 Z"
         transform="translate(-718.85552,-506.65431)"
         id="path406" /></clipPath><clipPath
       clipPathUnits="userSpaceOnUse"
       id="clipPath408"><path
         d="M 0,800 H 800 V 0 H 0 Z"
         transform="translate(-715.28522,-496.79201)"
         id="path408" /></clipPath><clipPath
       clipPathUnits="userSpaceOnUse"
       id="clipPath410"><path
         d="M 0,800 H 800 V 0 H 0 Z"
         transform="translate(-704.74802,-493.92431)"
         id="path410" /></clipPath><clipPath
       clipPathUnits="userSpaceOnUse"
       id="clipPath412"><path
         d="M 0,800 H 800 V 0 H 0 Z"
         transform="translate(-695.81252,-498.42431)"
         id="path412" /></clipPath><clipPath
       clipPathUnits="userSpaceOnUse"
       id="clipPath414"><path
         d="M 0,800 H 800 V 0 H 0 Z"
         transform="translate(-692.01761,-508.96092)"
         id="path414" /></clipPath><clipPath
       clipPathUnits="userSpaceOnUse"
       id="clipPath416"><path
         d="M 0,800 H 800 V 0 H 0 Z"
         transform="translate(-697.44532,-517.89651)"
         id="path416" /></clipPath></defs><g
     id="layer-MC1"
     transform="matrix(0.26458334,0,0,0.26458335,-152.64006,-68.484127)"><path
       id="path317"
       d="m 0,0 c -1.17,19.605 -18.436,27.507 -33.652,35.115 -15.217,7.608 -55.014,8.194 -55.014,8.194 0,0 -11.998,16.972 -18.143,26.336 -6.144,9.364 -43.13,9.949 -43.13,9.949 -82.635,0 -98.5,-24.581 -116.936,-43.016 C -285.311,18.142 -289.045,0 -289.045,0 c 0,0 -19.969,3.218 -20.262,-6.308 -0.293,-9.527 13.315,-9.07 13.315,-9.07 v -5.06 c 23,-0.247 27.127,11.206 27.127,11.206 0,0 0.863,1.802 2.652,4.331 3.947,11.758 14.988,18.854 28.078,18.854 14.52,0 27.375,-8.991 31.561,-22.365 2.824,-9.028 1.271,-16.866 1.271,-16.866 h 136.817 c 0,0 -1.457,6.121 1.724,18.084 3.272,12.295 16.26,20.31 29.643,20.31 10.535,0 19.945,-3.914 26,-11.632 6.349,-8.095 6.437,-19.081 6.437,-19.081 l 6.436,0.313 -0.584,3.814 c 0,0 11.119,-2.629 11.119,5.564 C 12.289,0.288 0,0 0,0"
       style="fill:#ffffff;fill-opacity:1;fill-rule:nonzero;stroke:none"
       transform="matrix(1.3333333,0,0,-1.3333333,989.32293,364.96293)"
       clip-path="url(#clipPath318)" /><path
       id="path319"
       d="M 0,0 C 0,0 105.922,-1.573 127.195,0.464"
       style="fill:#1a1a1a;fill-opacity:1;fill-rule:nonzero;stroke:none"
       transform="matrix(1.3333333,0,0,-1.3333333,722.10413,389.52013)"
       clip-path="url(#clipPath320)" /><path
       id="path321"
       d="m 0,0 0.221,14.666 11.697,1.829 z"
       style="fill:#f9be06;fill-opacity:1;fill-rule:nonzero;stroke:none"
       transform="matrix(1.3333333,0,0,-1.3333333,613.04427,361.97467)"
       clip-path="url(#clipPath322)" /><path
       id="path323"
       d="m 0,0 c 0,0 0.674,-4.957 4.391,-3.526 3.718,1.43 16.496,12.965 19.259,15.445 2.766,2.478 7.864,9.078 3.983,8.256 C 16.273,17.771 1.371,1.878 0,0"
       style="fill:#1a1a1a;fill-opacity:1;fill-rule:nonzero;stroke:none"
       transform="matrix(1.3333333,0,0,-1.3333333,645.70827,303.6256)"
       clip-path="url(#clipPath324)" /><path
       id="path325"
       d="M 0,0 C 0,0 -11.422,-1.408 -12.66,8.031 -13.9,17.47 17.756,35.607 44.756,30.173 V 3.482 c 0,0 -0.912,-2.77 -5.965,-2.77 C 33.738,0.712 0,0 0,0"
       style="fill:#1a1a1a;fill-opacity:1;fill-rule:nonzero;stroke:none"
       transform="matrix(1.3333333,0,0,-1.3333333,702.99213,317.28587)"
       clip-path="url(#clipPath326)" /><path
       id="path327"
       d="m 0,0 -16.588,0.381 c 0,0 -3.433,-0.476 -3.719,4.291 -0.287,4.767 0,23.264 0,23.264 0,0 -0.763,2.658 5.719,2.33 6.484,-0.329 43.477,0.625 50.151,-9.291 C 42.236,11.059 50.34,0.477 40.996,0.381 31.654,0.286 0,0 0,0"
       style="fill:#1a1a1a;fill-opacity:1;fill-rule:nonzero;stroke:none"
       transform="matrix(1.3333333,0,0,-1.3333333,798.64067,316.082)"
       clip-path="url(#clipPath328)" /><path
       id="path329"
       d="m 0,0 c 0,-16.393 -13.287,-29.68 -29.68,-29.68 -16.392,0 -29.681,13.287 -29.681,29.68 0,16.393 13.289,29.682 29.681,29.682 C -13.287,29.682 0,16.393 0,0"
       style="fill:#000000;fill-opacity:1;fill-rule:nonzero;stroke:none"
       transform="matrix(1.3333333,0,0,-1.3333333,712.836,389.58987)"
       clip-path="url(#clipPath330)" /><path
       id="path331"
       d="m 0,0 c 0,-11.064 -8.969,-20.031 -20.031,-20.031 -11.065,0 -20.033,8.967 -20.033,20.031 0,11.063 8.968,20.032 20.033,20.032 C -8.969,20.032 0,11.063 0,0"
       style="fill:#fafcfb;fill-opacity:1;fill-rule:nonzero;stroke:none"
       transform="matrix(1.3333333,0,0,-1.3333333,699.97133,389.58987)"
       clip-path="url(#clipPath332)" /><path
       id="path333"
       d="m 0,0 c 0,-6.814 -5.523,-12.337 -12.338,-12.337 -6.814,0 -12.338,5.523 -12.338,12.337 0,6.814 5.524,12.337 12.338,12.337 C -5.523,12.337 0,6.814 0,0"
       style="fill:#bdbdbd;fill-opacity:1;fill-rule:nonzero;stroke:none"
       transform="matrix(1.3333333,0,0,-1.3333333,689.66933,389.54693)"
       clip-path="url(#clipPath334)" /><g
       opacity="0.199997"
       id="g336"
       clip-path="url(#clipPath337)"><path
         d="m 0,0 c 0,-3.349 -2.715,-6.063 -6.062,-6.063 -3.348,0 -6.065,2.714 -6.065,6.063 0,3.349 2.717,6.064 6.065,6.064 C -2.715,6.064 0,3.349 0,0"
         style="fill:#bdbdbd;fill-opacity:1;fill-rule:nonzero;stroke:none"
         transform="matrix(1.3333333,0,0,-1.3333333,681.30213,389.54693)"
         clip-path="url(#clipPath335)"
         id="path336" /></g><g
       opacity="0.199997"
       id="g339"
       clip-path="url(#clipPath340)"><path
         d="m 0,0 c 0,-1.097 -0.891,-1.987 -1.986,-1.987 -1.096,0 -1.987,0.89 -1.987,1.987 0,1.098 0.891,1.986 1.987,1.986 C -0.891,1.986 0,1.098 0,0"
         style="fill:#bdbdbd;fill-opacity:1;fill-rule:nonzero;stroke:none"
         transform="matrix(1.3333333,0,0,-1.3333333,675.8672,389.54693)"
         clip-path="url(#clipPath338)"
         id="path339" /></g><path
       id="path341"
       d="m 0,0 c 0,-2.92 -2.367,-5.289 -5.289,-5.289 -2.92,0 -5.287,2.369 -5.287,5.289 0,2.921 2.367,5.29 5.287,5.29 C -2.367,5.29 0,2.921 0,0"
       style="fill:#bdbdbd;fill-opacity:1;fill-rule:nonzero;stroke:none"
       transform="matrix(1.3333333,0,0,-1.3333333,680.3568,373.556)"
       clip-path="url(#clipPath342)" /><path
       id="path343"
       d="m 0,0 c -2.066,-2.064 -5.412,-2.064 -7.479,0 -2.066,2.066 -2.066,5.415 0,7.48 2.067,2.066 5.415,2.066 7.481,0 C 2.066,5.415 2.066,2.066 0,0"
       style="fill:#bdbdbd;fill-opacity:1;fill-rule:nonzero;stroke:none"
       transform="matrix(1.3333333,0,0,-1.3333333,689.93747,383.27933)"
       clip-path="url(#clipPath344)" /><path
       id="path345"
       d="m 0,0 c -2.922,0 -5.289,2.367 -5.289,5.288 0,2.92 2.367,5.288 5.289,5.288 C 2.92,10.575 5.289,8.208 5.289,5.288 5.289,2.366 2.92,0 0,0"
       style="fill:#bdbdbd;fill-opacity:1;fill-rule:nonzero;stroke:none"
       transform="matrix(1.3333333,0,0,-1.3333333,689.83853,396.92707)"
       clip-path="url(#clipPath346)" /><path
       id="path347"
       d="m 0,0 c -2.064,2.065 -2.064,5.413 0,7.479 2.064,2.065 5.414,2.066 7.479,0 2.068,-2.066 2.066,-5.415 0,-7.48 C 5.414,-2.065 2.066,-2.065 0,0"
       style="fill:#bdbdbd;fill-opacity:1;fill-rule:nonzero;stroke:none"
       transform="matrix(1.3333333,0,0,-1.3333333,680.11453,406.50907)"
       clip-path="url(#clipPath348)" /><path
       id="path349"
       d="m 0,0 c 0,2.92 2.369,5.288 5.287,5.289 2.92,-10e-4 5.289,-2.368 5.289,-5.29 0,-2.921 -2.369,-5.29 -5.289,-5.29 C 2.365,-5.29 0,-2.922 0,0"
       style="fill:#bdbdbd;fill-opacity:1;fill-rule:nonzero;stroke:none"
       transform="matrix(1.3333333,0,0,-1.3333333,666.46613,406.4088)"
       clip-path="url(#clipPath350)" /><path
       id="path351"
       d="m 0,0 c 2.064,2.065 5.414,2.065 7.479,0.001 2.062,-2.066 2.064,-5.415 0,-7.481 -2.067,-2.065 -5.416,-2.065 -7.483,0 C -2.066,-5.414 -2.068,-2.065 0,0"
       style="fill:#bdbdbd;fill-opacity:1;fill-rule:nonzero;stroke:none"
       transform="matrix(1.3333333,0,0,-1.3333333,656.88547,396.6868)"
       clip-path="url(#clipPath352)" /><path
       id="path353"
       d="m 0,0 c 2.92,0 5.289,-2.368 5.289,-5.289 -0.002,-2.92 -2.367,-5.29 -5.289,-5.29 -2.922,0.003 -5.291,2.37 -5.291,5.29 C -5.289,-2.368 -2.922,0.001 0,0"
       style="fill:#bdbdbd;fill-opacity:1;fill-rule:nonzero;stroke:none"
       transform="matrix(1.3333333,0,0,-1.3333333,656.9844,383.0364)"
       clip-path="url(#clipPath354)" /><path
       id="path355"
       d="m 0,0 c 2.066,-2.063 2.066,-5.413 0.002,-7.478 -2.066,-2.064 -5.416,-2.067 -7.481,0 -2.066,2.066 -2.066,5.416 0,7.48 C -5.412,2.066 -2.064,2.067 0,0"
       style="fill:#bdbdbd;fill-opacity:1;fill-rule:nonzero;stroke:none"
       transform="matrix(1.3333333,0,0,-1.3333333,666.70573,373.45707)"
       clip-path="url(#clipPath356)" /><path
       id="path357"
       d="m 0,0 c 0,-0.621 -0.502,-1.122 -1.123,-1.122 -0.619,0 -1.121,0.501 -1.121,1.122 0,0.619 0.502,1.121 1.121,1.121 C -0.502,1.121 0,0.619 0,0"
       style="fill:#000000;fill-opacity:1;fill-rule:nonzero;stroke:none"
       transform="matrix(1.3333333,0,0,-1.3333333,674.80213,372.31773)"
       clip-path="url(#clipPath358)" /><path
       id="path359"
       d="m 0,0 c -0.439,-0.439 -1.148,-0.439 -1.588,-0.002 -0.437,0.44 -0.437,1.149 0,1.588 C -1.148,2.023 -0.439,2.023 0,1.585 0.437,1.147 0.437,0.438 0,0"
       style="fill:#000000;fill-opacity:1;fill-rule:nonzero;stroke:none"
       transform="matrix(1.3333333,0,0,-1.3333333,687.95053,378.3144)"
       clip-path="url(#clipPath360)" /><path
       id="path361"
       d="m 0,0 c -0.619,0 -1.123,0.501 -1.123,1.12 0,0.621 0.502,1.122 1.123,1.122 0.619,0 1.119,-0.501 1.121,-1.122 C 1.121,0.501 0.619,0 0,0"
       style="fill:#000000;fill-opacity:1;fill-rule:nonzero;stroke:none"
       transform="matrix(1.3333333,0,0,-1.3333333,690.53387,391.1276)"
       clip-path="url(#clipPath362)" /><path
       id="path363"
       d="m 0,0 c -0.437,0.437 -0.437,1.148 0,1.586 0.437,0.438 1.148,0.438 1.586,0 C 2.023,1.148 2.023,0.438 1.586,0 1.148,-0.44 0.437,-0.438 0,0"
       style="fill:#000000;fill-opacity:1;fill-rule:nonzero;stroke:none"
       transform="matrix(1.3333333,0,0,-1.3333333,685.77347,404.27733)"
       clip-path="url(#clipPath364)" /><path
       id="path365"
       d="m 0,0 c 0,0.621 0.502,1.125 1.123,1.125 0.619,0 1.121,-0.503 1.121,-1.123 0,-0.619 -0.502,-1.121 -1.123,-1.121 C 0.502,-1.12 0,-0.617 0,0"
       style="fill:#000000;fill-opacity:1;fill-rule:nonzero;stroke:none"
       transform="matrix(1.3333333,0,0,-1.3333333,671.72133,408.10093)"
       clip-path="url(#clipPath366)" /><path
       id="path367"
       d="m 0,0 c 0.437,0.437 1.148,0.439 1.588,0 0.437,-0.438 0.437,-1.148 0,-1.586 C 1.148,-2.023 0.437,-2.024 0,-1.586 -0.439,-1.148 -0.437,-0.438 0,0"
       style="fill:#000000;fill-opacity:1;fill-rule:nonzero;stroke:none"
       transform="matrix(1.3333333,0,0,-1.3333333,659.80987,402.10093)"
       clip-path="url(#clipPath368)" /><path
       id="path369"
       d="m 0,0 c 0.623,0 1.125,-0.499 1.125,-1.121 0,-0.619 -0.502,-1.12 -1.121,-1.12 -0.619,0 -1.123,0.501 -1.123,1.12 C -1.121,-0.499 -0.615,0.002 0,0"
       style="fill:#000000;fill-opacity:1;fill-rule:nonzero;stroke:none"
       transform="matrix(1.3333333,0,0,-1.3333333,654.75,388.05213)"
       clip-path="url(#clipPath370)" /><path
       id="path371"
       d="m 0,0 c 0.437,-0.439 0.439,-1.148 0.002,-1.587 -0.439,-0.437 -1.15,-0.438 -1.588,0 -0.437,0.438 -0.437,1.148 0,1.587 0.438,0.44 1.149,0.438 1.586,0"
       style="fill:#000000;fill-opacity:1;fill-rule:nonzero;stroke:none"
       transform="matrix(1.3333333,0,0,-1.3333333,661.98693,376.138)"
       clip-path="url(#clipPath372)" /><path
       id="path373"
       d="m 0,0 c 0,-16.393 -13.289,-29.68 -29.682,-29.68 -16.392,0 -29.681,13.287 -29.681,29.68 0,16.393 13.289,29.682 29.681,29.682 C -13.289,29.682 0,16.393 0,0"
       style="fill:#000000;fill-opacity:1;fill-rule:nonzero;stroke:none"
       transform="matrix(1.3333333,0,0,-1.3333333,980.77867,389.58987)"
       clip-path="url(#clipPath374)" /><path
       id="path375"
       d="m 0,0 c 0,-11.064 -8.967,-20.031 -20.031,-20.031 -11.065,0 -20.032,8.967 -20.032,20.031 0,11.063 8.967,20.032 20.032,20.032 C -8.967,20.032 0,11.063 0,0"
       style="fill:#fafcfb;fill-opacity:1;fill-rule:nonzero;stroke:none"
       transform="matrix(1.3333333,0,0,-1.3333333,967.91147,389.58987)"
       clip-path="url(#clipPath376)" /><path
       id="path377"
       d="m 0,0 c 0,-6.814 -5.523,-12.337 -12.338,-12.337 -6.814,0 -12.338,5.523 -12.338,12.337 0,6.814 5.524,12.337 12.338,12.337 C -5.523,12.337 0,6.814 0,0"
       style="fill:#bdbdbd;fill-opacity:1;fill-rule:nonzero;stroke:none"
       transform="matrix(1.3333333,0,0,-1.3333333,957.60933,389.54693)"
       clip-path="url(#clipPath378)" /><g
       opacity="0.199997"
       id="g380"
       clip-path="url(#clipPath381)"><path
         d="m 0,0 c 0,-3.349 -2.717,-6.063 -6.064,-6.063 -3.348,0 -6.063,2.714 -6.063,6.063 0,3.349 2.715,6.064 6.063,6.064 C -2.717,6.064 0,3.349 0,0"
         style="fill:#bdbdbd;fill-opacity:1;fill-rule:nonzero;stroke:none"
         transform="matrix(1.3333333,0,0,-1.3333333,949.2448,389.54693)"
         clip-path="url(#clipPath379)"
         id="path380" /></g><g
       opacity="0.199997"
       id="g383"
       clip-path="url(#clipPath384)"><path
         d="m 0,0 c 0,-1.097 -0.891,-1.987 -1.986,-1.987 -1.096,0 -1.985,0.89 -1.985,1.987 0,1.098 0.889,1.986 1.985,1.986 C -0.891,1.986 0,1.098 0,0"
         style="fill:#bdbdbd;fill-opacity:1;fill-rule:nonzero;stroke:none"
         transform="matrix(1.3333333,0,0,-1.3333333,943.80733,389.54693)"
         clip-path="url(#clipPath382)"
         id="path383" /></g><path
       id="path385"
       d="m 0,0 c 0,-2.92 -2.367,-5.289 -5.287,-5.289 -2.922,0 -5.289,2.369 -5.289,5.289 0,2.921 2.367,5.29 5.289,5.29 C -2.367,5.29 0,2.921 0,0"
       style="fill:#bdbdbd;fill-opacity:1;fill-rule:nonzero;stroke:none"
       transform="matrix(1.3333333,0,0,-1.3333333,948.29693,373.556)"
       clip-path="url(#clipPath386)" /><path
       id="path387"
       d="m 0,0 c -2.064,-2.064 -5.412,-2.064 -7.479,0 -2.066,2.066 -2.066,5.415 0,7.48 2.067,2.066 5.416,2.066 7.481,0 C 2.066,5.415 2.066,2.066 0,0"
       style="fill:#bdbdbd;fill-opacity:1;fill-rule:nonzero;stroke:none"
       transform="matrix(1.3333333,0,0,-1.3333333,957.8776,383.27933)"
       clip-path="url(#clipPath388)" /><path
       id="path389"
       d="m 0,0 c -2.922,0 -5.287,2.367 -5.287,5.288 0,2.92 2.365,5.288 5.287,5.288 C 2.922,10.575 5.289,8.208 5.289,5.288 5.289,2.366 2.922,0 0,0"
       style="fill:#bdbdbd;fill-opacity:1;fill-rule:nonzero;stroke:none"
       transform="matrix(1.3333333,0,0,-1.3333333,957.77867,396.92707)"
       clip-path="url(#clipPath390)" /><path
       id="path391"
       d="m 0,0 c -2.064,2.065 -2.064,5.413 0,7.479 2.064,2.065 5.414,2.066 7.48,0 2.067,-2.066 2.065,-5.415 0,-7.48 C 5.414,-2.065 2.066,-2.065 0,0"
       style="fill:#bdbdbd;fill-opacity:1;fill-rule:nonzero;stroke:none"
       transform="matrix(1.3333333,0,0,-1.3333333,948.05467,406.50907)"
       clip-path="url(#clipPath392)" /><path
       id="path393"
       d="m 0,0 c 0,2.92 2.369,5.288 5.289,5.289 2.918,-10e-4 5.287,-2.368 5.287,-5.29 0,-2.921 -2.369,-5.29 -5.287,-5.29 C 2.367,-5.29 0,-2.922 0,0"
       style="fill:#bdbdbd;fill-opacity:1;fill-rule:nonzero;stroke:none"
       transform="matrix(1.3333333,0,0,-1.3333333,934.40627,406.4088)"
       clip-path="url(#clipPath394)" /><path
       id="path395"
       d="m 0,0 c 2.064,2.065 5.414,2.065 7.479,0.001 2.064,-2.066 2.066,-5.415 0,-7.481 -2.067,-2.065 -5.416,-2.065 -7.481,0 C -2.066,-5.414 -2.068,-2.065 0,0"
       style="fill:#bdbdbd;fill-opacity:1;fill-rule:nonzero;stroke:none"
       transform="matrix(1.3333333,0,0,-1.3333333,924.82547,396.6868)"
       clip-path="url(#clipPath396)" /><path
       id="path397"
       d="m 0,0 c 2.92,0 5.289,-2.368 5.289,-5.289 -0.002,-2.92 -2.367,-5.29 -5.289,-5.29 -2.922,0.003 -5.289,2.37 -5.289,5.29 C -5.287,-2.368 -2.922,0.001 0,0"
       style="fill:#bdbdbd;fill-opacity:1;fill-rule:nonzero;stroke:none"
       transform="matrix(1.3333333,0,0,-1.3333333,924.92453,383.0364)"
       clip-path="url(#clipPath398)" /><path
       id="path399"
       d="m 0,0 c 2.064,-2.063 2.064,-5.413 0.002,-7.478 -2.068,-2.064 -5.418,-2.067 -7.482,0 -2.065,2.066 -2.065,5.416 0,7.48 C -5.414,2.066 -2.066,2.067 0,0"
       style="fill:#bdbdbd;fill-opacity:1;fill-rule:nonzero;stroke:none"
       transform="matrix(1.3333333,0,0,-1.3333333,934.6484,373.45707)"
       clip-path="url(#clipPath400)" /><path
       id="path401"
       d="m 0,0 c 0,-0.621 -0.502,-1.122 -1.121,-1.122 -0.621,0 -1.121,0.501 -1.121,1.122 0,0.619 0.5,1.121 1.121,1.121 C -0.502,1.121 0,0.619 0,0"
       style="fill:#000000;fill-opacity:1;fill-rule:nonzero;stroke:none"
       transform="matrix(1.3333333,0,0,-1.3333333,942.74213,372.31773)"
       clip-path="url(#clipPath402)" /><path
       id="path403"
       d="m 0,0 c -0.437,-0.439 -1.148,-0.439 -1.586,-0.002 -0.437,0.44 -0.437,1.149 0,1.588 C -1.148,2.023 -0.437,2.023 0,1.585 0.437,1.147 0.437,0.438 0,0"
       style="fill:#000000;fill-opacity:1;fill-rule:nonzero;stroke:none"
       transform="matrix(1.3333333,0,0,-1.3333333,955.89067,378.3144)"
       clip-path="url(#clipPath404)" /><path
       id="path405"
       d="m 0,0 c -0.619,0 -1.121,0.501 -1.121,1.12 0,0.621 0.5,1.122 1.121,1.122 0.619,0 1.121,-0.501 1.121,-1.122 C 1.121,0.501 0.619,0 0,0"
       style="fill:#000000;fill-opacity:1;fill-rule:nonzero;stroke:none"
       transform="matrix(1.3333333,0,0,-1.3333333,958.474,391.1276)"
       clip-path="url(#clipPath406)" /><path
       id="path407"
       d="m 0,0 c -0.437,0.437 -0.437,1.148 0,1.586 0.437,0.438 1.148,0.438 1.586,0 C 2.023,1.148 2.023,0.438 1.586,0 1.148,-0.44 0.439,-0.438 0,0"
       style="fill:#000000;fill-opacity:1;fill-rule:nonzero;stroke:none"
       transform="matrix(1.3333333,0,0,-1.3333333,953.7136,404.27733)"
       clip-path="url(#clipPath408)" /><path
       id="path409"
       d="M 0,0 C 0,0.621 0.5,1.125 1.121,1.125 1.74,1.125 2.242,0.622 2.242,0.002 2.242,-0.617 1.74,-1.119 1.121,-1.119 0.5,-1.12 0,-0.617 0,0"
       style="fill:#000000;fill-opacity:1;fill-rule:nonzero;stroke:none"
       transform="matrix(1.3333333,0,0,-1.3333333,939.664,408.10093)"
       clip-path="url(#clipPath410)" /><path
       id="path411"
       d="m 0,0 c 0.439,0.437 1.148,0.439 1.588,0 0.437,-0.438 0.437,-1.148 0,-1.586 C 1.148,-2.023 0.439,-2.024 0,-1.586 -0.439,-1.148 -0.437,-0.438 0,0"
       style="fill:#000000;fill-opacity:1;fill-rule:nonzero;stroke:none"
       transform="matrix(1.3333333,0,0,-1.3333333,927.75,402.10093)"
       clip-path="url(#clipPath412)" /><path
       id="path413"
       d="m 0,0 c 0.623,0 1.127,-0.499 1.127,-1.121 0,-0.619 -0.504,-1.12 -1.123,-1.12 -0.619,0 -1.121,0.501 -1.121,1.12 C -1.121,-0.499 -0.615,0.002 0,0"
       style="fill:#000000;fill-opacity:1;fill-rule:nonzero;stroke:none"
       transform="matrix(1.3333333,0,0,-1.3333333,922.69013,388.05213)"
       clip-path="url(#clipPath414)" /><path
       id="path415"
       d="m 0,0 c 0.437,-0.439 0.441,-1.148 0.002,-1.587 -0.439,-0.437 -1.15,-0.438 -1.588,0 -0.437,0.438 -0.437,1.148 0,1.587 0.438,0.44 1.149,0.438 1.586,0"
       style="fill:#000000;fill-opacity:1;fill-rule:nonzero;stroke:none"
       transform="matrix(1.3333333,0,0,-1.3333333,929.92707,376.138)"
       clip-path="url(#clipPath416)" /></g></svg>
