<?xml version="1.0" encoding="UTF-8" standalone="no"?>
<!-- Created with Inkscape (http://www.inkscape.org/) -->

<svg
   width="74.237938mm"
   height="40.515476mm"
   viewBox="0 0 74.237938 40.515476"
   version="1.1"
   id="svg1"
   xml:space="preserve"
   xmlns="http://www.w3.org/2000/svg"
   xmlns:svg="http://www.w3.org/2000/svg"><defs
     id="defs1"><clipPath
       clipPathUnits="userSpaceOnUse"
       id="clipPath421"><path
         d="M 0,800 H 800 V 0 H 0 Z"
         transform="translate(-696.31052,-341.59771)"
         id="path421" /></clipPath><clipPath
       clipPathUnits="userSpaceOnUse"
       id="clipPath423"><path
         d="M 0,800 H 800 V 0 H 0 Z"
         transform="translate(-688.89062,-323.34081)"
         id="path423" /></clipPath><clipPath
       clipPathUnits="userSpaceOnUse"
       id="clipPath425"><path
         d="M 0,800 H 800 V 0 H 0 Z"
         transform="translate(-679.47662,-323.34081)"
         id="path425" /></clipPath><clipPath
       clipPathUnits="userSpaceOnUse"
       id="clipPath427"><path
         d="M 0,800 H 800 V 0 H 0 Z"
         transform="translate(-671.93552,-323.37211)"
         id="path427" /></clipPath><clipPath
       clipPathUnits="userSpaceOnUse"
       id="clipPath428"><path
         d="m 653.982,329.289 h 11.832 v -11.834 h -11.832 z"
         transform="translate(-665.81452,-323.37211)"
         id="path428" /></clipPath><clipPath
       clipPathUnits="userSpaceOnUse"
       id="clipPath430"><path
         d="M 0,800 H 800 V 0 H 0 Z"
         transform="matrix(1.3333333,0,0,-1.3333333,0,1066.6667)"
         id="path430" /></clipPath><clipPath
       clipPathUnits="userSpaceOnUse"
       id="clipPath431"><path
         d="m 657.961,325.31 h 3.875 v -3.876 h -3.875 z"
         transform="translate(-661.83592,-323.37211)"
         id="path431" /></clipPath><clipPath
       clipPathUnits="userSpaceOnUse"
       id="clipPath433"><path
         d="M 0,800 H 800 V 0 H 0 Z"
         transform="matrix(1.3333333,0,0,-1.3333333,0,1066.6667)"
         id="path433" /></clipPath><clipPath
       clipPathUnits="userSpaceOnUse"
       id="clipPath435"><path
         d="M 0,800 H 800 V 0 H 0 Z"
         transform="translate(-665.12302,-335.07321)"
         id="path435" /></clipPath><clipPath
       clipPathUnits="userSpaceOnUse"
       id="clipPath437"><path
         d="M 0,800 H 800 V 0 H 0 Z"
         transform="translate(-672.13282,-327.95901)"
         id="path437" /></clipPath><clipPath
       clipPathUnits="userSpaceOnUse"
       id="clipPath439"><path
         d="M 0,800 H 800 V 0 H 0 Z"
         transform="translate(-672.06052,-317.97171)"
         id="path439" /></clipPath><clipPath
       clipPathUnits="userSpaceOnUse"
       id="clipPath441"><path
         d="M 0,800 H 800 V 0 H 0 Z"
         transform="translate(-664.94531,-310.95801)"
         id="path441" /></clipPath><clipPath
       clipPathUnits="userSpaceOnUse"
       id="clipPath443"><path
         d="M 0,800 H 800 V 0 H 0 Z"
         transform="translate(-654.95702,-311.03221)"
         id="path443" /></clipPath><clipPath
       clipPathUnits="userSpaceOnUse"
       id="clipPath445"><path
         d="M 0,800 H 800 V 0 H 0 Z"
         transform="translate(-647.94532,-318.14551)"
         id="path445" /></clipPath><clipPath
       clipPathUnits="userSpaceOnUse"
       id="clipPath447"><path
         d="M 0,800 H 800 V 0 H 0 Z"
         transform="translate(-648.01952,-328.13671)"
         id="path447" /></clipPath><clipPath
       clipPathUnits="userSpaceOnUse"
       id="clipPath449"><path
         d="M 0,800 H 800 V 0 H 0 Z"
         transform="translate(-655.13282,-335.14651)"
         id="path449" /></clipPath><clipPath
       clipPathUnits="userSpaceOnUse"
       id="clipPath451"><path
         d="M 0,800 H 800 V 0 H 0 Z"
         transform="translate(-661.05662,-335.98141)"
         id="path451" /></clipPath><clipPath
       clipPathUnits="userSpaceOnUse"
       id="clipPath453"><path
         d="M 0,800 H 800 V 0 H 0 Z"
         transform="translate(-670.67771,-331.59081)"
         id="path453" /></clipPath><clipPath
       clipPathUnits="userSpaceOnUse"
       id="clipPath455"><path
         d="M 0,800 H 800 V 0 H 0 Z"
         transform="translate(-672.57032,-322.21581)"
         id="path455" /></clipPath><clipPath
       clipPathUnits="userSpaceOnUse"
       id="clipPath457"><path
         d="M 0,800 H 800 V 0 H 0 Z"
         transform="translate(-669.08591,-312.59281)"
         id="path457" /></clipPath><clipPath
       clipPathUnits="userSpaceOnUse"
       id="clipPath459"><path
         d="M 0,800 H 800 V 0 H 0 Z"
         transform="translate(-658.80272,-309.79491)"
         id="path459" /></clipPath><clipPath
       clipPathUnits="userSpaceOnUse"
       id="clipPath461"><path
         d="M 0,800 H 800 V 0 H 0 Z"
         transform="translate(-650.08592,-314.18461)"
         id="path461" /></clipPath><clipPath
       clipPathUnits="userSpaceOnUse"
       id="clipPath463"><path
         d="M 0,800 H 800 V 0 H 0 Z"
         transform="translate(-646.38482,-324.46581)"
         id="path463" /></clipPath><clipPath
       clipPathUnits="userSpaceOnUse"
       id="clipPath465"><path
         d="M 0,800 H 800 V 0 H 0 Z"
         transform="translate(-651.67772,-333.18551)"
         id="path465" /></clipPath><clipPath
       clipPathUnits="userSpaceOnUse"
       id="clipPath467"><path
         d="M 0,800 H 800 V 0 H 0 Z"
         transform="translate(-548.73631,-324.37111)"
         id="path467" /></clipPath><clipPath
       clipPathUnits="userSpaceOnUse"
       id="clipPath469"><path
         d="M 0,800 H 800 V 0 H 0 Z"
         transform="translate(-539.32231,-324.37111)"
         id="path469" /></clipPath><clipPath
       clipPathUnits="userSpaceOnUse"
       id="clipPath471"><path
         d="M 0,800 H 800 V 0 H 0 Z"
         transform="translate(-531.78322,-324.40231)"
         id="path471" /></clipPath><clipPath
       clipPathUnits="userSpaceOnUse"
       id="clipPath472"><path
         d="m 513.828,330.32 h 11.834 v -11.834 h -11.834 z"
         transform="translate(-525.66211,-324.40231)"
         id="path472" /></clipPath><clipPath
       clipPathUnits="userSpaceOnUse"
       id="clipPath474"><path
         d="M 0,800 H 800 V 0 H 0 Z"
         transform="matrix(1.3333333,0,0,-1.3333333,0,1066.6667)"
         id="path474" /></clipPath><clipPath
       clipPathUnits="userSpaceOnUse"
       id="clipPath475"><path
         d="m 517.809,326.34 h 3.873 v -3.876 h -3.873 z"
         transform="translate(-521.68162,-324.40231)"
         id="path475" /></clipPath><clipPath
       clipPathUnits="userSpaceOnUse"
       id="clipPath477"><path
         d="M 0,800 H 800 V 0 H 0 Z"
         transform="matrix(1.3333333,0,0,-1.3333333,0,1066.6667)"
         id="path477" /></clipPath><clipPath
       clipPathUnits="userSpaceOnUse"
       id="clipPath479"><path
         d="M 0,800 H 800 V 0 H 0 Z"
         transform="translate(-524.96872,-336.10351)"
         id="path479" /></clipPath><clipPath
       clipPathUnits="userSpaceOnUse"
       id="clipPath481"><path
         d="M 0,800 H 800 V 0 H 0 Z"
         transform="translate(-531.98051,-328.98931)"
         id="path481" /></clipPath><clipPath
       clipPathUnits="userSpaceOnUse"
       id="clipPath483"><path
         d="M 0,800 H 800 V 0 H 0 Z"
         transform="translate(-531.90622,-319.00201)"
         id="path483" /></clipPath><clipPath
       clipPathUnits="userSpaceOnUse"
       id="clipPath485"><path
         d="M 0,800 H 800 V 0 H 0 Z"
         transform="translate(-524.79101,-311.98831)"
         id="path485" /></clipPath><clipPath
       clipPathUnits="userSpaceOnUse"
       id="clipPath487"><path
         d="M 0,800 H 800 V 0 H 0 Z"
         transform="translate(-514.80271,-312.06351)"
         id="path487" /></clipPath><clipPath
       clipPathUnits="userSpaceOnUse"
       id="clipPath489"><path
         d="M 0,800 H 800 V 0 H 0 Z"
         transform="translate(-507.79102,-319.17681)"
         id="path489" /></clipPath><clipPath
       clipPathUnits="userSpaceOnUse"
       id="clipPath491"><path
         d="M 0,800 H 800 V 0 H 0 Z"
         transform="translate(-507.86521,-329.16701)"
         id="path491" /></clipPath><clipPath
       clipPathUnits="userSpaceOnUse"
       id="clipPath493"><path
         d="M 0,800 H 800 V 0 H 0 Z"
         transform="translate(-514.98052,-336.17771)"
         id="path493" /></clipPath><clipPath
       clipPathUnits="userSpaceOnUse"
       id="clipPath495"><path
         d="M 0,800 H 800 V 0 H 0 Z"
         transform="translate(-520.90432,-337.01171)"
         id="path495" /></clipPath><clipPath
       clipPathUnits="userSpaceOnUse"
       id="clipPath497"><path
         d="M 0,800 H 800 V 0 H 0 Z"
         transform="translate(-530.52541,-332.62211)"
         id="path497" /></clipPath><clipPath
       clipPathUnits="userSpaceOnUse"
       id="clipPath499"><path
         d="M 0,800 H 800 V 0 H 0 Z"
         transform="translate(-532.41601,-323.24611)"
         id="path499" /></clipPath><clipPath
       clipPathUnits="userSpaceOnUse"
       id="clipPath501"><path
         d="M 0,800 H 800 V 0 H 0 Z"
         transform="translate(-528.93161,-313.62301)"
         id="path501" /></clipPath><clipPath
       clipPathUnits="userSpaceOnUse"
       id="clipPath503"><path
         d="M 0,800 H 800 V 0 H 0 Z"
         transform="translate(-518.65042,-310.82521)"
         id="path503" /></clipPath><clipPath
       clipPathUnits="userSpaceOnUse"
       id="clipPath505"><path
         d="M 0,800 H 800 V 0 H 0 Z"
         transform="translate(-509.93161,-315.21481)"
         id="path505" /></clipPath><clipPath
       clipPathUnits="userSpaceOnUse"
       id="clipPath507"><path
         d="M 0,800 H 800 V 0 H 0 Z"
         transform="translate(-506.23051,-325.49611)"
         id="path507" /></clipPath><clipPath
       clipPathUnits="userSpaceOnUse"
       id="clipPath509"><path
         d="M 0,800 H 800 V 0 H 0 Z"
         transform="translate(-511.52542,-334.21581)"
         id="path509" /></clipPath><clipPath
       clipPathUnits="userSpaceOnUse"
       id="clipPath511"><path
         d="M 0,800 H 800 V 0 H 0 Z"
         transform="translate(-492.10551,-359.08201)"
         id="path511" /></clipPath><clipPath
       clipPathUnits="userSpaceOnUse"
       id="clipPath513"><path
         d="M 0,800 H 800 V 0 H 0 Z"
         transform="translate(-493.16801,-378.48631)"
         id="path513" /></clipPath><clipPath
       clipPathUnits="userSpaceOnUse"
       id="clipPath515"><path
         d="M 0,800 H 800 V 0 H 0 Z"
         transform="translate(-543.20512,-377.77151)"
         id="path515" /></clipPath><clipPath
       clipPathUnits="userSpaceOnUse"
       id="clipPath517"><path
         d="M 0,800 H 800 V 0 H 0 Z"
         transform="translate(-662.31052,-371.33011)"
         id="path517" /></clipPath><clipPath
       clipPathUnits="userSpaceOnUse"
       id="clipPath519"><path
         d="M 0,800 H 800 V 0 H 0 Z"
         transform="translate(-552.84961,-322.34671)"
         id="path519" /></clipPath></defs><g
     id="layer-MC1"
     transform="matrix(0.26458334,0,0,0.26458335,-171.49245,-137.85578)"><path
       id="path420"
       d="m 0,0 c -0.602,7.966 -3.426,12.418 -7.109,21.067 -3.684,8.651 -25.692,10.535 -29.717,10.62 -4.026,0.085 -12.758,1.027 -35.797,18.755 -23.039,17.729 -50.703,16.267 -62.029,16.663 -10.825,0.378 -46.989,2.519 -57.522,-5.789 -10.535,-8.308 -12.83,-36.149 -12.916,-39.575 -0.088,-3.426 -2.084,-7.749 -2.084,-7.749 -6.506,-8.601 -0.556,-35.061 0.072,-36.95 0.235,-0.704 0.928,-1.035 1.704,-1.175 -0.53,2.217 -0.817,4.528 -0.817,6.906 0,16.393 13.289,29.681 29.682,29.681 16.392,0 29.679,-13.337 29.679,-29.728 0,-3.242 -0.525,-6.324 -1.486,-9.324 h 70.533 12.914 c -0.755,3 -1.168,5.431 -1.168,8.292 0,16.393 13.288,29.704 29.682,29.704 16.391,0 29.68,-13.275 29.68,-29.667 0,-2.752 -0.383,-5.408 -1.084,-7.937 3.213,0.232 7.838,1.018 7.781,3.592 C -0.088,-18.674 0.6,-7.966 0,0"
       style="fill:#ffffff;fill-opacity:1;fill-rule:nonzero;stroke:none"
       transform="matrix(1.3333333,0,0,-1.3333333,928.414,611.20307)"
       clip-path="url(#clipPath421)" /><path
       id="path422"
       d="m 0,0 c 0,-15.996 -12.965,-28.96 -28.959,-28.96 -15.996,0 -28.961,12.964 -28.961,28.96 0,15.994 12.965,28.96 28.961,28.96 C -12.965,28.96 0,15.994 0,0"
       style="fill:#000000;fill-opacity:1;fill-rule:nonzero;stroke:none"
       transform="matrix(1.3333333,0,0,-1.3333333,918.5208,635.5456)"
       clip-path="url(#clipPath423)" /><path
       id="path424"
       d="m 0,0 c 0,-10.796 -8.752,-19.545 -19.545,-19.545 -10.797,0 -19.547,8.749 -19.547,19.545 0,10.795 8.75,19.545 19.547,19.545 C -8.752,19.545 0,10.795 0,0"
       style="fill:#fafcfb;fill-opacity:1;fill-rule:nonzero;stroke:none"
       transform="matrix(1.3333333,0,0,-1.3333333,905.9688,635.5456)"
       clip-path="url(#clipPath425)" /><path
       id="path426"
       d="m 0,0 c 0,-6.648 -5.389,-12.037 -12.037,-12.037 -6.649,0 -12.039,5.389 -12.039,12.037 0,6.649 5.39,12.037 12.039,12.037 C -5.389,12.037 0,6.649 0,0"
       style="fill:#bdbdbd;fill-opacity:1;fill-rule:nonzero;stroke:none"
       transform="matrix(1.3333333,0,0,-1.3333333,895.914,635.50387)"
       clip-path="url(#clipPath427)" /><g
       opacity="0.199997"
       id="g429"
       clip-path="url(#clipPath430)"><path
         d="m 0,0 c 0,-3.268 -2.648,-5.917 -5.916,-5.917 -3.266,0 -5.916,2.649 -5.916,5.917 0,3.268 2.65,5.917 5.916,5.917 C -2.648,5.917 0,3.268 0,0"
         style="fill:#bdbdbd;fill-opacity:1;fill-rule:nonzero;stroke:none"
         transform="matrix(1.3333333,0,0,-1.3333333,887.75267,635.50387)"
         clip-path="url(#clipPath428)"
         id="path429" /></g><g
       opacity="0.199997"
       id="g432"
       clip-path="url(#clipPath433)"><path
         d="m 0,0 c 0,-1.07 -0.869,-1.938 -1.937,-1.938 -1.071,0 -1.938,0.868 -1.938,1.938 0,1.07 0.867,1.937 1.938,1.937 C -0.869,1.937 0,1.07 0,0"
         style="fill:#bdbdbd;fill-opacity:1;fill-rule:nonzero;stroke:none"
         transform="matrix(1.3333333,0,0,-1.3333333,882.44787,635.50387)"
         clip-path="url(#clipPath431)"
         id="path432" /></g><path
       id="path434"
       d="m 0,0 c 0,-2.85 -2.311,-5.16 -5.16,-5.16 -2.85,0 -5.16,2.31 -5.16,5.16 0,2.852 2.31,5.161 5.16,5.161 C -2.311,5.161 0,2.852 0,0"
       style="fill:#bdbdbd;fill-opacity:1;fill-rule:nonzero;stroke:none"
       transform="matrix(1.3333333,0,0,-1.3333333,886.83067,619.9024)"
       clip-path="url(#clipPath435)" /><path
       id="path436"
       d="m 0,0 c -2.016,-2.014 -5.281,-2.014 -7.295,0 -2.018,2.016 -2.018,5.281 -0.002,7.299 2.016,2.015 5.283,2.015 7.299,0 C 2.016,5.281 2.016,2.016 0,0"
       style="fill:#bdbdbd;fill-opacity:1;fill-rule:nonzero;stroke:none"
       transform="matrix(1.3333333,0,0,-1.3333333,896.17707,629.388)"
       clip-path="url(#clipPath437)" /><path
       id="path438"
       d="m 0,0 c -2.85,0 -5.16,2.31 -5.16,5.159 0,2.85 2.31,5.16 5.16,5.16 C 2.85,10.318 5.16,8.009 5.16,5.159 5.16,2.309 2.85,0 0,0"
       style="fill:#bdbdbd;fill-opacity:1;fill-rule:nonzero;stroke:none"
       transform="matrix(1.3333333,0,0,-1.3333333,896.08067,642.7044)"
       clip-path="url(#clipPath439)" /><path
       id="path440"
       d="m 0,0 c -2.016,2.016 -2.016,5.284 0,7.299 2.014,2.014 5.281,2.016 7.297,0 C 9.314,5.284 9.313,2.015 7.297,0 5.281,-2.015 2.016,-2.015 0,0"
       style="fill:#bdbdbd;fill-opacity:1;fill-rule:nonzero;stroke:none"
       transform="matrix(1.3333333,0,0,-1.3333333,886.59373,652.056)"
       clip-path="url(#clipPath441)" /><path
       id="path442"
       d="m 0,0 c 0,2.85 2.311,5.16 5.158,5.16 2.85,0 5.162,-2.309 5.162,-5.161 0,-2.85 -2.312,-5.16 -5.162,-5.16 C 2.309,-5.16 0,-2.851 0,0"
       style="fill:#bdbdbd;fill-opacity:1;fill-rule:nonzero;stroke:none"
       transform="matrix(1.3333333,0,0,-1.3333333,873.276,651.95707)"
       clip-path="url(#clipPath443)" /><path
       id="path444"
       d="m 0,0 c 2.014,2.018 5.283,2.018 7.297,0.002 2.014,-2.017 2.016,-5.282 0,-7.299 -2.016,-2.015 -5.283,-2.015 -7.299,0 C -2.016,-5.28 -2.018,-2.015 0,0"
       style="fill:#bdbdbd;fill-opacity:1;fill-rule:nonzero;stroke:none"
       transform="matrix(1.3333333,0,0,-1.3333333,863.92707,642.47267)"
       clip-path="url(#clipPath445)" /><path
       id="path446"
       d="m 0,0 c 2.848,0 5.16,-2.311 5.16,-5.161 -0.002,-2.85 -2.31,-5.161 -5.162,-5.161 -2.85,0.002 -5.16,2.311 -5.16,5.161 C -5.16,-2.311 -2.852,0.001 0,0"
       style="fill:#bdbdbd;fill-opacity:1;fill-rule:nonzero;stroke:none"
       transform="matrix(1.3333333,0,0,-1.3333333,864.026,629.15107)"
       clip-path="url(#clipPath447)" /><path
       id="path448"
       d="m 0,0 c 2.016,-2.014 2.016,-5.281 0.002,-7.297 -2.018,-2.014 -5.285,-2.016 -7.299,0 -2.016,2.016 -2.016,5.285 0,7.299 C -5.281,2.016 -2.016,2.017 0,0"
       style="fill:#bdbdbd;fill-opacity:1;fill-rule:nonzero;stroke:none"
       transform="matrix(1.3333333,0,0,-1.3333333,873.5104,619.80467)"
       clip-path="url(#clipPath449)" /><path
       id="path450"
       d="m 0,0 c 0,-0.608 -0.49,-1.096 -1.094,-1.096 -0.605,0 -1.095,0.488 -1.095,1.096 0,0.603 0.49,1.093 1.095,1.093 C -0.49,1.093 0,0.603 0,0"
       style="fill:#000000;fill-opacity:1;fill-rule:nonzero;stroke:none"
       transform="matrix(1.3333333,0,0,-1.3333333,881.4088,618.69147)"
       clip-path="url(#clipPath451)" /><path
       id="path452"
       d="m 0,0 c -0.426,-0.428 -1.119,-0.428 -1.547,-0.001 -0.428,0.429 -0.428,1.12 0,1.549 0.428,0.427 1.121,0.427 1.547,0 C 0.428,1.119 0.428,0.428 0,0"
       style="fill:#000000;fill-opacity:1;fill-rule:nonzero;stroke:none"
       transform="matrix(1.3333333,0,0,-1.3333333,894.23693,624.5456)"
       clip-path="url(#clipPath453)" /><path
       id="path454"
       d="m 0,0 c -0.605,0 -1.096,0.489 -1.096,1.092 0,0.606 0.489,1.096 1.096,1.096 0.604,0 1.092,-0.49 1.094,-1.096 C 1.094,0.489 0.604,0 0,0"
       style="fill:#000000;fill-opacity:1;fill-rule:nonzero;stroke:none"
       transform="matrix(1.3333333,0,0,-1.3333333,896.7604,637.0456)"
       clip-path="url(#clipPath455)" /><path
       id="path456"
       d="m 0,0 c -0.428,0.426 -0.428,1.119 0,1.547 0.426,0.429 1.121,0.429 1.547,0 C 1.975,1.119 1.975,0.428 1.547,0 1.121,-0.431 0.428,-0.428 0,0"
       style="fill:#000000;fill-opacity:1;fill-rule:nonzero;stroke:none"
       transform="matrix(1.3333333,0,0,-1.3333333,892.11453,649.87627)"
       clip-path="url(#clipPath457)" /><path
       id="path458"
       d="m 0,0 c 0,0.605 0.49,1.097 1.096,1.097 0.603,0 1.093,-0.491 1.093,-1.095 0,-0.604 -0.49,-1.094 -1.093,-1.094 C 0.49,-1.093 0,-0.602 0,0"
       style="fill:#000000;fill-opacity:1;fill-rule:nonzero;stroke:none"
       transform="matrix(1.3333333,0,0,-1.3333333,878.4036,653.6068)"
       clip-path="url(#clipPath459)" /><path
       id="path460"
       d="m 0,0 c 0.428,0.427 1.121,0.429 1.549,0 0.428,-0.427 0.428,-1.12 0,-1.547 C 1.121,-1.974 0.428,-1.976 0,-1.547 -0.428,-1.12 -0.426,-0.427 0,0"
       style="fill:#000000;fill-opacity:1;fill-rule:nonzero;stroke:none"
       transform="matrix(1.3333333,0,0,-1.3333333,866.7812,647.75387)"
       clip-path="url(#clipPath461)" /><path
       id="path462"
       d="m 0,0 c 0.605,0 1.098,-0.487 1.098,-1.094 0,-0.604 -0.493,-1.094 -1.096,-1.094 -0.604,0 -1.096,0.49 -1.096,1.094 C -1.096,-0.487 -0.602,0.002 0,0"
       style="fill:#000000;fill-opacity:1;fill-rule:nonzero;stroke:none"
       transform="matrix(1.3333333,0,0,-1.3333333,861.8464,634.0456)"
       clip-path="url(#clipPath463)" /><path
       id="path464"
       d="m 0,0 c 0.428,-0.43 0.43,-1.121 0.002,-1.549 -0.428,-0.429 -1.121,-0.429 -1.549,0 -0.426,0.427 -0.426,1.119 0,1.549 0.428,0.429 1.121,0.427 1.547,0"
       style="fill:#000000;fill-opacity:1;fill-rule:nonzero;stroke:none"
       transform="matrix(1.3333333,0,0,-1.3333333,868.9036,622.41933)"
       clip-path="url(#clipPath465)" /><path
       id="path466"
       d="m 0,0 c 0,-15.996 -12.965,-28.96 -28.959,-28.96 -15.996,0 -28.961,12.964 -28.961,28.96 0,15.995 12.965,28.96 28.961,28.96 C -12.965,28.96 0,15.995 0,0"
       style="fill:#000000;fill-opacity:1;fill-rule:nonzero;stroke:none"
       transform="matrix(1.3333333,0,0,-1.3333333,731.6484,634.17187)"
       clip-path="url(#clipPath467)" /><path
       id="path468"
       d="m 0,0 c 0,-10.795 -8.75,-19.545 -19.545,-19.545 -10.795,0 -19.547,8.75 -19.547,19.545 0,10.795 8.752,19.545 19.547,19.545 C -8.75,19.545 0,10.795 0,0"
       style="fill:#fafcfb;fill-opacity:1;fill-rule:nonzero;stroke:none"
       transform="matrix(1.3333333,0,0,-1.3333333,719.0964,634.17187)"
       clip-path="url(#clipPath469)" /><path
       id="path470"
       d="m 0,0 c 0,-6.648 -5.391,-12.037 -12.039,-12.037 -6.648,0 -12.037,5.389 -12.037,12.037 0,6.649 5.389,12.037 12.037,12.037 C -5.391,12.037 0,6.649 0,0"
       style="fill:#bdbdbd;fill-opacity:1;fill-rule:nonzero;stroke:none"
       transform="matrix(1.3333333,0,0,-1.3333333,709.04427,634.13027)"
       clip-path="url(#clipPath471)" /><g
       opacity="0.199997"
       id="g473"
       clip-path="url(#clipPath474)"><path
         d="m 0,0 c 0,-3.268 -2.65,-5.916 -5.918,-5.916 -3.266,0 -5.916,2.648 -5.916,5.916 0,3.268 2.65,5.918 5.916,5.918 C -2.65,5.918 0,3.268 0,0"
         style="fill:#bdbdbd;fill-opacity:1;fill-rule:nonzero;stroke:none"
         transform="matrix(1.3333333,0,0,-1.3333333,700.8828,634.13027)"
         clip-path="url(#clipPath472)"
         id="path473" /></g><g
       opacity="0.199997"
       id="g476"
       clip-path="url(#clipPath477)"><path
         d="m 0,0 c 0,-1.069 -0.867,-1.938 -1.937,-1.938 -1.069,0 -1.936,0.869 -1.936,1.938 0,1.071 0.867,1.937 1.936,1.937 C -0.867,1.937 0,1.071 0,0"
         style="fill:#bdbdbd;fill-opacity:1;fill-rule:nonzero;stroke:none"
         transform="matrix(1.3333333,0,0,-1.3333333,695.57547,634.13027)"
         clip-path="url(#clipPath475)"
         id="path476" /></g><path
       id="path478"
       d="m 0,0 c 0,-2.85 -2.311,-5.159 -5.16,-5.159 -2.85,0 -5.158,2.309 -5.158,5.159 0,2.852 2.308,5.161 5.158,5.161 C -2.311,5.161 0,2.852 0,0"
       style="fill:#bdbdbd;fill-opacity:1;fill-rule:nonzero;stroke:none"
       transform="matrix(1.3333333,0,0,-1.3333333,699.95827,618.52867)"
       clip-path="url(#clipPath479)" /><path
       id="path480"
       d="M 0,0 C -2.016,-2.014 -5.283,-2.014 -7.297,0 -9.314,2.017 -9.314,5.282 -7.299,7.299 -5.283,9.314 -2.014,9.314 0,7.299 2.016,5.282 2.016,2.017 0,0"
       style="fill:#bdbdbd;fill-opacity:1;fill-rule:nonzero;stroke:none"
       transform="matrix(1.3333333,0,0,-1.3333333,709.30733,628.01427)"
       clip-path="url(#clipPath481)" /><path
       id="path482"
       d="m 0,0 c -2.85,0 -5.158,2.31 -5.158,5.159 0,2.85 2.308,5.16 5.158,5.16 C 2.852,10.318 5.16,8.009 5.16,5.159 5.16,2.309 2.852,0 0,0"
       style="fill:#bdbdbd;fill-opacity:1;fill-rule:nonzero;stroke:none"
       transform="matrix(1.3333333,0,0,-1.3333333,709.20827,641.33067)"
       clip-path="url(#clipPath483)" /><path
       id="path484"
       d="m 0,0 c -2.016,2.017 -2.016,5.284 0,7.299 2.016,2.014 5.283,2.016 7.299,0 C 9.314,5.284 9.313,2.016 7.299,0 5.283,-2.015 2.016,-2.015 0,0"
       style="fill:#bdbdbd;fill-opacity:1;fill-rule:nonzero;stroke:none"
       transform="matrix(1.3333333,0,0,-1.3333333,699.72133,650.68227)"
       clip-path="url(#clipPath485)" /><path
       id="path486"
       d="m 0,0 c 0,2.849 2.313,5.159 5.16,5.159 2.848,0 5.16,-2.309 5.16,-5.16 0,-2.851 -2.312,-5.161 -5.16,-5.161 C 2.311,-5.161 0,-2.852 0,0"
       style="fill:#bdbdbd;fill-opacity:1;fill-rule:nonzero;stroke:none"
       transform="matrix(1.3333333,0,0,-1.3333333,686.4036,650.582)"
       clip-path="url(#clipPath487)" /><path
       id="path488"
       d="m 0,0 c 2.016,2.017 5.283,2.017 7.299,0.002 2.012,-2.018 2.014,-5.283 0,-7.3 -2.018,-2.015 -5.285,-2.015 -7.301,0 C -2.014,-5.281 -2.018,-2.016 0,0"
       style="fill:#bdbdbd;fill-opacity:1;fill-rule:nonzero;stroke:none"
       transform="matrix(1.3333333,0,0,-1.3333333,677.05467,641.0976)"
       clip-path="url(#clipPath489)" /><path
       id="path490"
       d="M 0,0 C 2.848,0 5.16,-2.31 5.16,-5.161 5.158,-8.01 2.85,-10.321 0,-10.321 -2.852,-10.319 -5.162,-8.01 -5.162,-5.161 -5.16,-2.31 -2.852,0.001 0,0"
       style="fill:#bdbdbd;fill-opacity:1;fill-rule:nonzero;stroke:none"
       transform="matrix(1.3333333,0,0,-1.3333333,677.1536,627.77733)"
       clip-path="url(#clipPath491)" /><path
       id="path492"
       d="m 0,0 c 2.014,-2.015 2.014,-5.282 0.002,-7.298 -2.018,-2.014 -5.287,-2.016 -7.301,0 -2.015,2.016 -2.015,5.285 0,7.3 C -5.283,2.016 -2.016,2.017 0,0"
       style="fill:#bdbdbd;fill-opacity:1;fill-rule:nonzero;stroke:none"
       transform="matrix(1.3333333,0,0,-1.3333333,686.64067,618.42973)"
       clip-path="url(#clipPath493)" /><path
       id="path494"
       d="m 0,0 c 0,-0.608 -0.49,-1.095 -1.096,-1.095 -0.605,0 -1.093,0.487 -1.093,1.095 0,0.603 0.488,1.093 1.093,1.093 C -0.49,1.093 0,0.603 0,0"
       style="fill:#000000;fill-opacity:1;fill-rule:nonzero;stroke:none"
       transform="matrix(1.3333333,0,0,-1.3333333,694.53907,617.31773)"
       clip-path="url(#clipPath495)" /><path
       id="path496"
       d="m 0,0 c -0.428,-0.428 -1.121,-0.428 -1.547,-0.001 -0.428,0.429 -0.428,1.12 0,1.549 0.426,0.427 1.119,0.427 1.547,0 C 0.428,1.119 0.428,0.428 0,0"
       style="fill:#000000;fill-opacity:1;fill-rule:nonzero;stroke:none"
       transform="matrix(1.3333333,0,0,-1.3333333,707.3672,623.17053)"
       clip-path="url(#clipPath497)" /><path
       id="path498"
       d="m 0,0 c -0.604,0 -1.094,0.489 -1.094,1.092 0,0.607 0.489,1.096 1.094,1.096 0.604,0 1.092,-0.489 1.094,-1.096 C 1.094,0.489 0.604,0 0,0"
       style="fill:#000000;fill-opacity:1;fill-rule:nonzero;stroke:none"
       transform="matrix(1.3333333,0,0,-1.3333333,709.888,635.67187)"
       clip-path="url(#clipPath499)" /><path
       id="path500"
       d="m 0,0 c -0.428,0.426 -0.428,1.119 0,1.547 0.428,0.429 1.121,0.429 1.547,0 C 1.975,1.119 1.975,0.428 1.547,0 1.121,-0.431 0.428,-0.428 0,0"
       style="fill:#000000;fill-opacity:1;fill-rule:nonzero;stroke:none"
       transform="matrix(1.3333333,0,0,-1.3333333,705.24213,648.50267)"
       clip-path="url(#clipPath501)" /><path
       id="path502"
       d="m 0,0 c 0,0.606 0.488,1.097 1.094,1.097 0.605,0 1.095,-0.49 1.095,-1.095 0,-0.604 -0.49,-1.094 -1.095,-1.094 C 0.488,-1.093 0,-0.602 0,0"
       style="fill:#000000;fill-opacity:1;fill-rule:nonzero;stroke:none"
       transform="matrix(1.3333333,0,0,-1.3333333,691.53387,652.23307)"
       clip-path="url(#clipPath503)" /><path
       id="path504"
       d="m 0,0 c 0.43,0.427 1.121,0.429 1.551,0 0.426,-0.427 0.426,-1.12 0,-1.547 C 1.123,-1.973 0.43,-1.976 0,-1.547 -0.428,-1.12 -0.426,-0.427 0,0"
       style="fill:#000000;fill-opacity:1;fill-rule:nonzero;stroke:none"
       transform="matrix(1.3333333,0,0,-1.3333333,679.9088,646.38027)"
       clip-path="url(#clipPath505)" /><path
       id="path506"
       d="m 0,0 c 0.607,0 1.098,-0.486 1.098,-1.094 0,-0.604 -0.491,-1.094 -1.096,-1.094 -0.604,0 -1.094,0.49 -1.094,1.094 C -1.094,-0.486 -0.602,0.002 0,0"
       style="fill:#000000;fill-opacity:1;fill-rule:nonzero;stroke:none"
       transform="matrix(1.3333333,0,0,-1.3333333,674.974,632.67187)"
       clip-path="url(#clipPath507)" /><path
       id="path508"
       d="m 0,0 c 0.426,-0.43 0.43,-1.121 0.002,-1.549 -0.428,-0.429 -1.121,-0.429 -1.551,0 -0.426,0.427 -0.426,1.119 0,1.549 0.43,0.429 1.123,0.427 1.549,0"
       style="fill:#000000;fill-opacity:1;fill-rule:nonzero;stroke:none"
       transform="matrix(1.3333333,0,0,-1.3333333,682.03387,621.0456)"
       clip-path="url(#clipPath509)" /><path
       id="path510"
       d="m 0,0 c 0,0 4.752,4.646 10.453,3.801 0,0 -0.424,9.715 3.485,13.304 0,0 -10.983,5.174 -11.827,0 C 1.266,11.932 -1.057,3.483 0,0"
       style="fill:#ee3e38;fill-opacity:1;fill-rule:nonzero;stroke:none"
       transform="matrix(1.3333333,0,0,-1.3333333,656.14067,587.89067)"
       clip-path="url(#clipPath511)" /><path
       id="path512"
       d="m 0,0 c 0,0 1.152,0.13 7.17,1.503 6.018,1.373 11.299,2.007 13.41,0 0,0 11.615,5.384 13.938,8.341 2.322,2.957 5.068,7.285 1.373,9.186 -3.696,1.902 -25.936,4.55 -25.43,4.974 C 10.969,24.428 3.391,19.193 0,0"
       style="fill:#1a1a1a;fill-opacity:1;fill-rule:nonzero;stroke:none"
       transform="matrix(1.3333333,0,0,-1.3333333,657.55733,562.01827)"
       clip-path="url(#clipPath513)" /><path
       id="path514"
       d="M 0,0 C 0,0 -1.371,21.963 3.697,23.44 8.764,24.919 35.484,25.352 54.172,20.283 72.861,15.215 85.211,5.279 89.223,1.267 93.236,-2.746 97.459,-5.596 85.527,-4.646 73.596,-3.695 0,0 0,0"
       style="fill:#1a1a1a;fill-opacity:1;fill-rule:nonzero;stroke:none"
       transform="matrix(1.3333333,0,0,-1.3333333,724.27347,562.97133)"
       clip-path="url(#clipPath515)" /><path
       id="path516"
       d="m 0,0 c 0,0 19.535,-5.49 20.379,-8.342 0.844,-2.85 4.328,-8.658 2.217,-8.763 C 20.484,-17.211 5.912,-12.354 1.479,-7.496 -2.957,-2.64 -3.908,-3.801 0,0"
       style="fill:#b3b3b3;fill-opacity:1;fill-rule:nonzero;stroke:none"
       transform="matrix(1.3333333,0,0,-1.3333333,883.08067,571.55987)"
       clip-path="url(#clipPath517)" /><path
       id="path518"
       d="M 0,0 C 0,0 58.387,-1.371 70.113,0.343"
       style="fill:#1a1a1a;fill-opacity:1;fill-rule:nonzero;stroke:none"
       transform="matrix(1.3333333,0,0,-1.3333333,737.1328,636.87107)"
       clip-path="url(#clipPath519)" /></g></svg>
