<?xml version="1.0" encoding="UTF-8" standalone="no"?>
<!-- Created with Inkscape (http://www.inkscape.org/) -->

<svg
   width="119.0894mm"
   height="100mm"
   viewBox="0 0 119.0894 100"
   version="1.1"
   id="svg1"
   xml:space="preserve"
   sodipodi:docname="4.svg"
   inkscape:version="1.4 (e7c3feb100, 2024-10-09)"
   xmlns:inkscape="http://www.inkscape.org/namespaces/inkscape"
   xmlns:sodipodi="http://sodipodi.sourceforge.net/DTD/sodipodi-0.dtd"
   xmlns="http://www.w3.org/2000/svg"
   xmlns:svg="http://www.w3.org/2000/svg"><sodipodi:namedview
     id="namedview1"
     pagecolor="#505050"
     bordercolor="#eeeeee"
     borderopacity="1"
     inkscape:showpageshadow="0"
     inkscape:pageopacity="0"
     inkscape:pagecheckerboard="0"
     inkscape:deskcolor="#505050"
     inkscape:document-units="mm"
     inkscape:zoom="1.0930864"
     inkscape:cx="225.05084"
     inkscape:cy="79.59115"
     inkscape:window-width="1241"
     inkscape:window-height="755"
     inkscape:window-x="26"
     inkscape:window-y="23"
     inkscape:window-maximized="0"
     inkscape:current-layer="svg1" /><defs
     id="defs1"><clipPath
       clipPathUnits="userSpaceOnUse"
       id="clipPath107"><path
         d="M 0,800 H 800 V 0 H 0 Z"
         transform="translate(-371.48781,-321.22661)"
         id="path107" /></clipPath><clipPath
       clipPathUnits="userSpaceOnUse"
       id="clipPath109"><path
         d="M 0,800 H 800 V 0 H 0 Z"
         transform="translate(-361.83891,-321.22661)"
         id="path109" /></clipPath><clipPath
       clipPathUnits="userSpaceOnUse"
       id="clipPath111"><path
         d="M 0,800 H 800 V 0 H 0 Z"
         transform="translate(-354.11231,-321.25881)"
         id="path111" /></clipPath><clipPath
       clipPathUnits="userSpaceOnUse"
       id="clipPath112"><path
         d="m 335.711,327.323 h 12.126 v -12.129 h -12.126 z"
         transform="translate(-347.83741,-321.25881)"
         id="path112" /></clipPath><clipPath
       clipPathUnits="userSpaceOnUse"
       id="clipPath114"><path
         d="M 0,800 H 800 V 0 H 0 Z"
         transform="matrix(1.3333333,0,0,-1.3333333,0,1066.6667)"
         id="path114" /></clipPath><clipPath
       clipPathUnits="userSpaceOnUse"
       id="clipPath115"><path
         d="m 339.79,323.244 h 3.971 v -3.973 h -3.971 z"
         transform="translate(-343.76071,-321.25881)"
         id="path115" /></clipPath><clipPath
       clipPathUnits="userSpaceOnUse"
       id="clipPath117"><path
         d="M 0,800 H 800 V 0 H 0 Z"
         transform="matrix(1.3333333,0,0,-1.3333333,0,1066.6667)"
         id="path117" /></clipPath><clipPath
       clipPathUnits="userSpaceOnUse"
       id="clipPath119"><path
         d="M 0,800 H 800 V 0 H 0 Z"
         transform="translate(-347.12841,-333.25101)"
         id="path119" /></clipPath><clipPath
       clipPathUnits="userSpaceOnUse"
       id="clipPath121"><path
         d="M 0,800 H 800 V 0 H 0 Z"
         transform="translate(-354.31401,-325.95901)"
         id="path121" /></clipPath><clipPath
       clipPathUnits="userSpaceOnUse"
       id="clipPath123"><path
         d="M 0,800 H 800 V 0 H 0 Z"
         transform="translate(-354.23931,-315.72361)"
         id="path123" /></clipPath><clipPath
       clipPathUnits="userSpaceOnUse"
       id="clipPath125"><path
         d="M 0,800 H 800 V 0 H 0 Z"
         transform="translate(-346.94681,-308.53611)"
         id="path125" /></clipPath><clipPath
       clipPathUnits="userSpaceOnUse"
       id="clipPath127"><path
         d="M 0,800 H 800 V 0 H 0 Z"
         transform="translate(-336.70901,-308.61231)"
         id="path127" /></clipPath><clipPath
       clipPathUnits="userSpaceOnUse"
       id="clipPath129"><path
         d="M 0,800 H 800 V 0 H 0 Z"
         transform="translate(-329.52391,-315.90231)"
         id="path129" /></clipPath><clipPath
       clipPathUnits="userSpaceOnUse"
       id="clipPath131"><path
         d="M 0,800 H 800 V 0 H 0 Z"
         transform="translate(-329.59911,-326.14161)"
         id="path131" /></clipPath><clipPath
       clipPathUnits="userSpaceOnUse"
       id="clipPath133"><path
         d="M 0,800 H 800 V 0 H 0 Z"
         transform="translate(-336.89061,-333.32621)"
         id="path133" /></clipPath><clipPath
       clipPathUnits="userSpaceOnUse"
       id="clipPath135"><path
         d="M 0,800 H 800 V 0 H 0 Z"
         transform="translate(-342.96191,-334.18071)"
         id="path135" /></clipPath><clipPath
       clipPathUnits="userSpaceOnUse"
       id="clipPath137"><path
         d="M 0,800 H 800 V 0 H 0 Z"
         transform="translate(-352.82281,-329.68161)"
         id="path137" /></clipPath><clipPath
       clipPathUnits="userSpaceOnUse"
       id="clipPath139"><path
         d="M 0,800 H 800 V 0 H 0 Z"
         transform="translate(-354.76071,-320.07321)"
         id="path139" /></clipPath><clipPath
       clipPathUnits="userSpaceOnUse"
       id="clipPath141"><path
         d="M 0,800 H 800 V 0 H 0 Z"
         transform="translate(-351.18991,-310.21091)"
         id="path141" /></clipPath><clipPath
       clipPathUnits="userSpaceOnUse"
       id="clipPath143"><path
         d="M 0,800 H 800 V 0 H 0 Z"
         transform="translate(-340.65281,-307.34371)"
         id="path143" /></clipPath><clipPath
       clipPathUnits="userSpaceOnUse"
       id="clipPath145"><path
         d="M 0,800 H 800 V 0 H 0 Z"
         transform="translate(-331.71831,-311.84281)"
         id="path145" /></clipPath><clipPath
       clipPathUnits="userSpaceOnUse"
       id="clipPath147"><path
         d="M 0,800 H 800 V 0 H 0 Z"
         transform="translate(-327.92381,-322.37991)"
         id="path147" /></clipPath><clipPath
       clipPathUnits="userSpaceOnUse"
       id="clipPath149"><path
         d="M 0,800 H 800 V 0 H 0 Z"
         transform="translate(-333.34961,-331.31541)"
         id="path149" /></clipPath><clipPath
       clipPathUnits="userSpaceOnUse"
       id="clipPath151"><path
         d="M 0,800 H 800 V 0 H 0 Z"
         transform="translate(-161.2578,-321.22661)"
         id="path151" /></clipPath><clipPath
       clipPathUnits="userSpaceOnUse"
       id="clipPath153"><path
         d="M 0,800 H 800 V 0 H 0 Z"
         transform="translate(-151.6084,-321.22661)"
         id="path153" /></clipPath><clipPath
       clipPathUnits="userSpaceOnUse"
       id="clipPath155"><path
         d="M 0,800 H 800 V 0 H 0 Z"
         transform="translate(-143.8818,-321.25881)"
         id="path155" /></clipPath><clipPath
       clipPathUnits="userSpaceOnUse"
       id="clipPath156"><path
         d="m 125.481,327.323 h 12.126 v -12.129 h -12.126 z"
         transform="translate(-137.60691,-321.25881)"
         id="path156" /></clipPath><clipPath
       clipPathUnits="userSpaceOnUse"
       id="clipPath158"><path
         d="M 0,800 H 800 V 0 H 0 Z"
         transform="matrix(1.3333333,0,0,-1.3333333,0,1066.6667)"
         id="path158" /></clipPath><clipPath
       clipPathUnits="userSpaceOnUse"
       id="clipPath159"><path
         d="m 129.559,323.244 h 3.971 v -3.973 h -3.971 z"
         transform="translate(-133.5303,-321.25881)"
         id="path159" /></clipPath><clipPath
       clipPathUnits="userSpaceOnUse"
       id="clipPath161"><path
         d="M 0,800 H 800 V 0 H 0 Z"
         transform="matrix(1.3333333,0,0,-1.3333333,0,1066.6667)"
         id="path161" /></clipPath><clipPath
       clipPathUnits="userSpaceOnUse"
       id="clipPath163"><path
         d="M 0,800 H 800 V 0 H 0 Z"
         transform="translate(-136.8979,-333.25101)"
         id="path163" /></clipPath><clipPath
       clipPathUnits="userSpaceOnUse"
       id="clipPath165"><path
         d="M 0,800 H 800 V 0 H 0 Z"
         transform="translate(-144.0835,-325.95901)"
         id="path165" /></clipPath><clipPath
       clipPathUnits="userSpaceOnUse"
       id="clipPath167"><path
         d="M 0,800 H 800 V 0 H 0 Z"
         transform="translate(-144.0088,-315.72361)"
         id="path167" /></clipPath><clipPath
       clipPathUnits="userSpaceOnUse"
       id="clipPath169"><path
         d="M 0,800 H 800 V 0 H 0 Z"
         transform="translate(-136.7163,-308.53611)"
         id="path169" /></clipPath><clipPath
       clipPathUnits="userSpaceOnUse"
       id="clipPath171"><path
         d="M 0,800 H 800 V 0 H 0 Z"
         transform="translate(-126.4785,-308.61231)"
         id="path171" /></clipPath><clipPath
       clipPathUnits="userSpaceOnUse"
       id="clipPath173"><path
         d="M 0,800 H 800 V 0 H 0 Z"
         transform="translate(-119.2935,-315.90231)"
         id="path173" /></clipPath><clipPath
       clipPathUnits="userSpaceOnUse"
       id="clipPath175"><path
         d="M 0,800 H 800 V 0 H 0 Z"
         transform="translate(-119.36871,-326.14161)"
         id="path175" /></clipPath><clipPath
       clipPathUnits="userSpaceOnUse"
       id="clipPath177"><path
         d="M 0,800 H 800 V 0 H 0 Z"
         transform="translate(-126.66021,-333.32621)"
         id="path177" /></clipPath><clipPath
       clipPathUnits="userSpaceOnUse"
       id="clipPath179"><path
         d="M 0,800 H 800 V 0 H 0 Z"
         transform="translate(-132.7314,-334.18071)"
         id="path179" /></clipPath><clipPath
       clipPathUnits="userSpaceOnUse"
       id="clipPath181"><path
         d="M 0,800 H 800 V 0 H 0 Z"
         transform="translate(-142.59231,-329.68161)"
         id="path181" /></clipPath><clipPath
       clipPathUnits="userSpaceOnUse"
       id="clipPath183"><path
         d="M 0,800 H 800 V 0 H 0 Z"
         transform="translate(-144.53031,-320.07321)"
         id="path183" /></clipPath><clipPath
       clipPathUnits="userSpaceOnUse"
       id="clipPath185"><path
         d="M 0,800 H 800 V 0 H 0 Z"
         transform="translate(-140.96001,-310.21091)"
         id="path185" /></clipPath><clipPath
       clipPathUnits="userSpaceOnUse"
       id="clipPath187"><path
         d="M 0,800 H 800 V 0 H 0 Z"
         transform="translate(-130.4224,-307.34371)"
         id="path187" /></clipPath><clipPath
       clipPathUnits="userSpaceOnUse"
       id="clipPath189"><path
         d="M 0,800 H 800 V 0 H 0 Z"
         transform="translate(-121.4878,-311.84281)"
         id="path189" /></clipPath><clipPath
       clipPathUnits="userSpaceOnUse"
       id="clipPath191"><path
         d="M 0,800 H 800 V 0 H 0 Z"
         transform="translate(-117.69381,-322.37991)"
         id="path191" /></clipPath><clipPath
       clipPathUnits="userSpaceOnUse"
       id="clipPath193"><path
         d="M 0,800 H 800 V 0 H 0 Z"
         transform="translate(-123.1191,-331.31541)"
         id="path193" /></clipPath><clipPath
       clipPathUnits="userSpaceOnUse"
       id="clipPath195"><path
         d="M 0,800 H 800 V 0 H 0 Z"
         transform="translate(-390.00241,-336.12301)"
         id="path195" /></clipPath><clipPath
       clipPathUnits="userSpaceOnUse"
       id="clipPath197"><path
         d="M 0,800 H 800 V 0 H 0 Z"
         transform="translate(-74.190402,-355.00001)"
         id="path197" /></clipPath><clipPath
       clipPathUnits="userSpaceOnUse"
       id="clipPath199"><path
         d="M 0,800 H 800 V 0 H 0 Z"
         transform="translate(-70.759802,-375.50201)"
         id="path199" /></clipPath><clipPath
       clipPathUnits="userSpaceOnUse"
       id="clipPath201"><path
         d="M 0,800 H 800 V 0 H 0 Z"
         transform="translate(-230.437,-371.46481)"
         id="path201" /></clipPath><clipPath
       clipPathUnits="userSpaceOnUse"
       id="clipPath203"><path
         d="M 0,800 H 800 V 0 H 0 Z"
         transform="translate(-290.374,-371.46481)"
         id="path203" /></clipPath><clipPath
       clipPathUnits="userSpaceOnUse"
       id="clipPath205"><path
         d="M 0,800 H 800 V 0 H 0 Z"
         transform="translate(-376.27881,-346.38771)"
         id="path205" /></clipPath><clipPath
       clipPathUnits="userSpaceOnUse"
       id="clipPath207"><path
         d="M 0,800 H 800 V 0 H 0 Z"
         transform="translate(-294.376,-367.46681)"
         id="path207" /></clipPath><clipPath
       clipPathUnits="userSpaceOnUse"
       id="clipPath209"><path
         d="M 0,800 H 800 V 0 H 0 Z"
         transform="translate(-169.23831,-319.21781)"
         id="path209" /></clipPath><clipPath
       clipPathUnits="userSpaceOnUse"
       id="clipPath210"><path
         d="M 66.8525,301.195 H 381.054 v -9.649 H 66.8525 Z"
         transform="translate(-381.05421,-296.37111)"
         id="path210" /></clipPath><clipPath
       clipPathUnits="userSpaceOnUse"
       id="clipPath212"><path
         d="M 0,800 H 800 V 0 H 0 Z"
         transform="matrix(1.3333333,0,0,-1.3333333,0,1066.6667)"
         id="path212" /></clipPath></defs><g
     id="layer-MC1"
     transform="matrix(0.26458334,0,0,0.26458335,-19.461084,-108.26504)"><path
       id="path106"
       d="m 0,0 c 0,-16.395 -13.288,-29.681 -29.681,-29.681 -16.392,0 -29.68,13.286 -29.68,29.681 0,16.392 13.288,29.681 29.68,29.681 C -13.288,29.681 0,16.392 0,0"
       style="fill:#000000;fill-opacity:1;fill-rule:nonzero;stroke:none"
       transform="matrix(1.3333333,0,0,-1.3333333,495.31707,638.36453)"
       clip-path="url(#clipPath107)" /><path
       id="path108"
       d="m 0,0 c 0,-11.064 -8.968,-20.031 -20.032,-20.031 -11.063,0 -20.031,8.967 -20.031,20.031 0,11.063 8.968,20.031 20.031,20.031 C -8.968,20.031 0,11.063 0,0"
       style="fill:#fafcfb;fill-opacity:1;fill-rule:nonzero;stroke:none"
       transform="matrix(1.3333333,0,0,-1.3333333,482.45187,638.36453)"
       clip-path="url(#clipPath109)" /><path
       id="path110"
       d="m 0,0 c 0,-6.814 -5.524,-12.338 -12.338,-12.338 -6.814,0 -12.337,5.524 -12.337,12.338 0,6.814 5.523,12.336 12.337,12.336 C -5.524,12.336 0,6.814 0,0"
       style="fill:#bdbdbd;fill-opacity:1;fill-rule:nonzero;stroke:none"
       transform="matrix(1.3333333,0,0,-1.3333333,472.14973,638.3216)"
       clip-path="url(#clipPath111)" /><g
       opacity="0.199997"
       id="g113"
       clip-path="url(#clipPath114)"><path
         d="m 0,0 c 0,-3.35 -2.715,-6.064 -6.063,-6.064 -3.349,0 -6.063,2.714 -6.063,6.064 0,3.349 2.714,6.064 6.063,6.064 C -2.715,6.064 0,3.349 0,0"
         style="fill:#bdbdbd;fill-opacity:1;fill-rule:nonzero;stroke:none"
         transform="matrix(1.3333333,0,0,-1.3333333,463.7832,638.3216)"
         clip-path="url(#clipPath112)"
         id="path113" /></g><g
       opacity="0.199997"
       id="g116"
       clip-path="url(#clipPath117)"><path
         d="m 0,0 c 0,-1.097 -0.89,-1.987 -1.986,-1.987 -1.097,0 -1.985,0.89 -1.985,1.987 0,1.097 0.888,1.985 1.985,1.985 C -0.89,1.985 0,1.097 0,0"
         style="fill:#bdbdbd;fill-opacity:1;fill-rule:nonzero;stroke:none"
         transform="matrix(1.3333333,0,0,-1.3333333,458.3476,638.3216)"
         clip-path="url(#clipPath115)"
         id="path116" /></g><path
       id="path118"
       d="m 0,0 c 0,-2.921 -2.368,-5.288 -5.289,-5.288 -2.92,0 -5.288,2.367 -5.288,5.288 0,2.922 2.368,5.289 5.288,5.289 C -2.368,5.289 0,2.922 0,0"
       style="fill:#bdbdbd;fill-opacity:1;fill-rule:nonzero;stroke:none"
       transform="matrix(1.3333333,0,0,-1.3333333,462.83787,622.332)"
       clip-path="url(#clipPath119)" /><path
       id="path120"
       d="M 0,0 C -2.065,-2.063 -5.413,-2.063 -7.478,0 -9.545,2.066 -9.545,5.414 -7.479,7.48 -5.414,9.546 -2.064,9.546 0,7.48 2.066,5.414 2.066,2.066 0,0"
       style="fill:#bdbdbd;fill-opacity:1;fill-rule:nonzero;stroke:none"
       transform="matrix(1.3333333,0,0,-1.3333333,472.41867,632.05467)"
       clip-path="url(#clipPath121)" /><path
       id="path122"
       d="m 0,0 c -2.921,0 -5.289,2.367 -5.289,5.287 0,2.921 2.368,5.289 5.289,5.289 C 2.921,10.575 5.29,8.208 5.29,5.287 5.29,2.366 2.921,0 0,0"
       style="fill:#bdbdbd;fill-opacity:1;fill-rule:nonzero;stroke:none"
       transform="matrix(1.3333333,0,0,-1.3333333,472.31907,645.70187)"
       clip-path="url(#clipPath123)" /><path
       id="path124"
       d="m 0,0 c -2.065,2.065 -2.065,5.414 0,7.479 2.065,2.065 5.414,2.067 7.479,0 C 9.545,5.414 9.544,2.064 7.479,0 5.413,-2.065 2.065,-2.065 0,0"
       style="fill:#bdbdbd;fill-opacity:1;fill-rule:nonzero;stroke:none"
       transform="matrix(1.3333333,0,0,-1.3333333,462.59573,655.2852)"
       clip-path="url(#clipPath125)" /><path
       id="path126"
       d="m 0,0 c 0,2.92 2.369,5.287 5.289,5.287 2.92,0 5.289,-2.366 5.289,-5.288 0,-2.922 -2.369,-5.29 -5.289,-5.29 C 2.367,-5.29 0,-2.923 0,0"
       style="fill:#bdbdbd;fill-opacity:1;fill-rule:nonzero;stroke:none"
       transform="matrix(1.3333333,0,0,-1.3333333,448.94533,655.1836)"
       clip-path="url(#clipPath127)" /><path
       id="path128"
       d="m 0,0 c 2.065,2.066 5.414,2.066 7.479,0.002 2.064,-2.066 2.066,-5.414 0,-7.481 -2.066,-2.065 -5.416,-2.065 -7.481,0 C -2.066,-5.412 -2.067,-2.064 0,0"
       style="fill:#bdbdbd;fill-opacity:1;fill-rule:nonzero;stroke:none"
       transform="matrix(1.3333333,0,0,-1.3333333,439.3652,645.4636)"
       clip-path="url(#clipPath129)" /><path
       id="path130"
       d="m 0,0 c 2.919,0 5.288,-2.368 5.289,-5.29 -0.002,-2.919 -2.368,-5.289 -5.29,-5.289 -2.921,0.002 -5.29,2.37 -5.29,5.289 C -5.289,-2.368 -2.922,0.001 0,0"
       style="fill:#bdbdbd;fill-opacity:1;fill-rule:nonzero;stroke:none"
       transform="matrix(1.3333333,0,0,-1.3333333,439.46547,631.8112)"
       clip-path="url(#clipPath131)" /><path
       id="path132"
       d="m 0,0 c 2.064,-2.064 2.064,-5.413 0.001,-7.479 -2.066,-2.064 -5.415,-2.067 -7.481,0 -2.065,2.066 -2.065,5.416 0,7.481 C -5.414,2.066 -2.065,2.067 0,0"
       style="fill:#bdbdbd;fill-opacity:1;fill-rule:nonzero;stroke:none"
       transform="matrix(1.3333333,0,0,-1.3333333,449.18747,622.23173)"
       clip-path="url(#clipPath133)" /><path
       id="path134"
       d="m 0,0 c 0,-0.622 -0.502,-1.122 -1.122,-1.122 -0.62,0 -1.122,0.5 -1.122,1.122 0,0.618 0.502,1.121 1.122,1.121 C -0.502,1.121 0,0.618 0,0"
       style="fill:#000000;fill-opacity:1;fill-rule:nonzero;stroke:none"
       transform="matrix(1.3333333,0,0,-1.3333333,457.28253,621.0924)"
       clip-path="url(#clipPath135)" /><path
       id="path136"
       d="m 0,0 c -0.438,-0.438 -1.148,-0.438 -1.586,-0.001 -0.438,0.44 -0.438,1.148 0,1.588 0.438,0.437 1.148,0.437 1.586,0 C 0.438,1.147 0.438,0.439 0,0"
       style="fill:#000000;fill-opacity:1;fill-rule:nonzero;stroke:none"
       transform="matrix(1.3333333,0,0,-1.3333333,470.4304,627.0912)"
       clip-path="url(#clipPath137)" /><path
       id="path138"
       d="M 0,0 C -0.62,0 -1.122,0.501 -1.122,1.119 -1.123,1.741 -0.62,2.242 0,2.242 0.619,2.242 1.12,1.741 1.121,1.119 1.121,0.501 0.619,0 0,0"
       style="fill:#000000;fill-opacity:1;fill-rule:nonzero;stroke:none"
       transform="matrix(1.3333333,0,0,-1.3333333,473.01427,639.9024)"
       clip-path="url(#clipPath139)" /><path
       id="path140"
       d="m 0,0 c -0.437,0.437 -0.438,1.146 0,1.586 0.438,0.438 1.148,0.438 1.586,0 C 2.024,1.146 2.024,0.438 1.586,0 1.148,-0.441 0.439,-0.438 0,0"
       style="fill:#000000;fill-opacity:1;fill-rule:nonzero;stroke:none"
       transform="matrix(1.3333333,0,0,-1.3333333,468.2532,653.05213)"
       clip-path="url(#clipPath141)" /><path
       id="path142"
       d="m 0,0 c 0,0.62 0.501,1.124 1.122,1.124 0.619,0 1.121,-0.503 1.121,-1.122 0,-0.619 -0.502,-1.121 -1.122,-1.121 C 0.5,-1.121 0,-0.617 0,0"
       style="fill:#000000;fill-opacity:1;fill-rule:nonzero;stroke:none"
       transform="matrix(1.3333333,0,0,-1.3333333,454.20373,656.87507)"
       clip-path="url(#clipPath143)" /><path
       id="path144"
       d="m 0,0 c 0.438,0.437 1.147,0.438 1.587,0 0.438,-0.437 0.438,-1.148 0,-1.586 C 1.148,-2.022 0.438,-2.024 0,-1.586 -0.44,-1.148 -0.437,-0.437 0,0"
       style="fill:#000000;fill-opacity:1;fill-rule:nonzero;stroke:none"
       transform="matrix(1.3333333,0,0,-1.3333333,442.29107,650.87627)"
       clip-path="url(#clipPath145)" /><path
       id="path146"
       d="m 0,0 c 0.621,0 1.125,-0.499 1.125,-1.121 0,-0.62 -0.503,-1.121 -1.123,-1.121 -0.619,0 -1.121,0.501 -1.121,1.121 C -1.121,-0.499 -0.617,0.002 0,0"
       style="fill:#000000;fill-opacity:1;fill-rule:nonzero;stroke:none"
       transform="matrix(1.3333333,0,0,-1.3333333,437.23173,636.8268)"
       clip-path="url(#clipPath147)" /><path
       id="path148"
       d="m 0,0 c 0.438,-0.439 0.442,-1.148 0.002,-1.587 -0.438,-0.439 -1.148,-0.439 -1.587,0 -0.437,0.438 -0.438,1.148 0,1.587 0.439,0.439 1.149,0.437 1.585,0"
       style="fill:#000000;fill-opacity:1;fill-rule:nonzero;stroke:none"
       transform="matrix(1.3333333,0,0,-1.3333333,444.46613,624.9128)"
       clip-path="url(#clipPath149)" /><path
       id="path150"
       d="m 0,0 c 0,-16.395 -13.288,-29.681 -29.681,-29.681 -16.393,0 -29.681,13.286 -29.681,29.681 0,16.392 13.288,29.681 29.681,29.681 C -13.288,29.681 0,16.392 0,0"
       style="fill:#000000;fill-opacity:1;fill-rule:nonzero;stroke:none"
       transform="matrix(1.3333333,0,0,-1.3333333,215.0104,638.36453)"
       clip-path="url(#clipPath151)" /><path
       id="path152"
       d="m 0,0 c 0,-11.064 -8.968,-20.031 -20.032,-20.031 -11.063,0 -20.031,8.967 -20.031,20.031 0,11.063 8.968,20.031 20.031,20.031 C -8.968,20.031 0,11.063 0,0"
       style="fill:#fafcfb;fill-opacity:1;fill-rule:nonzero;stroke:none"
       transform="matrix(1.3333333,0,0,-1.3333333,202.14453,638.36453)"
       clip-path="url(#clipPath153)" /><path
       id="path154"
       d="m 0,0 c 0,-6.814 -5.524,-12.338 -12.338,-12.338 -6.813,0 -12.337,5.524 -12.337,12.338 0,6.814 5.524,12.336 12.337,12.336 C -5.524,12.336 0,6.814 0,0"
       style="fill:#bdbdbd;fill-opacity:1;fill-rule:nonzero;stroke:none"
       transform="matrix(1.3333333,0,0,-1.3333333,191.8424,638.3216)"
       clip-path="url(#clipPath155)" /><g
       opacity="0.199997"
       id="g157"
       clip-path="url(#clipPath158)"><path
         d="m 0,0 c 0,-3.35 -2.715,-6.064 -6.063,-6.064 -3.349,0 -6.063,2.714 -6.063,6.064 0,3.349 2.714,6.064 6.063,6.064 C -2.715,6.064 0,3.349 0,0"
         style="fill:#bdbdbd;fill-opacity:1;fill-rule:nonzero;stroke:none"
         transform="matrix(1.3333333,0,0,-1.3333333,183.47587,638.3216)"
         clip-path="url(#clipPath156)"
         id="path157" /></g><g
       opacity="0.199997"
       id="g160"
       clip-path="url(#clipPath161)"><path
         d="m 0,0 c 0,-1.097 -0.89,-1.987 -1.986,-1.987 -1.096,0 -1.985,0.89 -1.985,1.987 0,1.097 0.889,1.985 1.985,1.985 C -0.89,1.985 0,1.097 0,0"
         style="fill:#bdbdbd;fill-opacity:1;fill-rule:nonzero;stroke:none"
         transform="matrix(1.3333333,0,0,-1.3333333,178.0404,638.3216)"
         clip-path="url(#clipPath159)"
         id="path160" /></g><path
       id="path162"
       d="m 0,0 c 0,-2.921 -2.368,-5.288 -5.289,-5.288 -2.92,0 -5.288,2.367 -5.288,5.288 0,2.922 2.368,5.289 5.288,5.289 C -2.368,5.289 0,2.922 0,0"
       style="fill:#bdbdbd;fill-opacity:1;fill-rule:nonzero;stroke:none"
       transform="matrix(1.3333333,0,0,-1.3333333,182.53053,622.332)"
       clip-path="url(#clipPath163)" /><path
       id="path164"
       d="M 0,0 C -2.065,-2.063 -5.413,-2.063 -7.478,0 -9.545,2.066 -9.545,5.414 -7.479,7.48 -5.414,9.546 -2.064,9.546 0,7.48 2.066,5.414 2.066,2.066 0,0"
       style="fill:#bdbdbd;fill-opacity:1;fill-rule:nonzero;stroke:none"
       transform="matrix(1.3333333,0,0,-1.3333333,192.11133,632.05467)"
       clip-path="url(#clipPath165)" /><path
       id="path166"
       d="m 0,0 c -2.921,0 -5.289,2.367 -5.289,5.287 0,2.921 2.368,5.289 5.289,5.289 C 2.921,10.575 5.29,8.208 5.29,5.287 5.29,2.366 2.921,0 0,0"
       style="fill:#bdbdbd;fill-opacity:1;fill-rule:nonzero;stroke:none"
       transform="matrix(1.3333333,0,0,-1.3333333,192.01173,645.70187)"
       clip-path="url(#clipPath167)" /><path
       id="path168"
       d="m 0,0 c -2.065,2.065 -2.065,5.414 0,7.479 2.065,2.065 5.414,2.067 7.479,0 C 9.545,5.414 9.544,2.064 7.479,0 5.414,-2.065 2.065,-2.065 0,0"
       style="fill:#bdbdbd;fill-opacity:1;fill-rule:nonzero;stroke:none"
       transform="matrix(1.3333333,0,0,-1.3333333,182.2884,655.2852)"
       clip-path="url(#clipPath169)" /><path
       id="path170"
       d="m 0,0 c 0,2.92 2.369,5.287 5.289,5.287 2.92,0 5.289,-2.366 5.289,-5.288 0,-2.922 -2.369,-5.29 -5.289,-5.29 C 2.367,-5.29 0,-2.923 0,0"
       style="fill:#bdbdbd;fill-opacity:1;fill-rule:nonzero;stroke:none"
       transform="matrix(1.3333333,0,0,-1.3333333,168.638,655.1836)"
       clip-path="url(#clipPath171)" /><path
       id="path172"
       d="m 0,0 c 2.065,2.066 5.414,2.066 7.479,0.002 2.064,-2.066 2.066,-5.414 0,-7.481 -2.066,-2.065 -5.416,-2.065 -7.48,0 C -2.066,-5.412 -2.067,-2.064 0,0"
       style="fill:#bdbdbd;fill-opacity:1;fill-rule:nonzero;stroke:none"
       transform="matrix(1.3333333,0,0,-1.3333333,159.058,645.4636)"
       clip-path="url(#clipPath173)" /><path
       id="path174"
       d="m 0,0 c 2.919,0 5.288,-2.368 5.289,-5.29 -0.002,-2.919 -2.368,-5.289 -5.29,-5.289 -2.921,0.002 -5.29,2.37 -5.29,5.289 C -5.289,-2.368 -2.922,0.001 0,0"
       style="fill:#bdbdbd;fill-opacity:1;fill-rule:nonzero;stroke:none"
       transform="matrix(1.3333333,0,0,-1.3333333,159.15827,631.8112)"
       clip-path="url(#clipPath175)" /><path
       id="path176"
       d="m 0,0 c 2.064,-2.064 2.064,-5.413 0.001,-7.479 -2.066,-2.064 -5.415,-2.067 -7.481,0 -2.065,2.066 -2.065,5.416 0,7.481 C -5.414,2.066 -2.065,2.067 0,0"
       style="fill:#bdbdbd;fill-opacity:1;fill-rule:nonzero;stroke:none"
       transform="matrix(1.3333333,0,0,-1.3333333,168.88027,622.23173)"
       clip-path="url(#clipPath177)" /><path
       id="path178"
       d="m 0,0 c 0,-0.622 -0.502,-1.122 -1.122,-1.122 -0.62,0 -1.122,0.5 -1.122,1.122 0,0.618 0.502,1.121 1.122,1.121 C -0.502,1.121 0,0.618 0,0"
       style="fill:#000000;fill-opacity:1;fill-rule:nonzero;stroke:none"
       transform="matrix(1.3333333,0,0,-1.3333333,176.9752,621.0924)"
       clip-path="url(#clipPath179)" /><path
       id="path180"
       d="m 0,0 c -0.438,-0.438 -1.148,-0.438 -1.586,-0.001 -0.438,0.44 -0.438,1.148 0,1.588 0.438,0.437 1.148,0.437 1.586,0 C 0.438,1.147 0.438,0.439 0,0"
       style="fill:#000000;fill-opacity:1;fill-rule:nonzero;stroke:none"
       transform="matrix(1.3333333,0,0,-1.3333333,190.12307,627.0912)"
       clip-path="url(#clipPath181)" /><path
       id="path182"
       d="M 0,0 C -0.62,0 -1.122,0.501 -1.122,1.119 -1.123,1.741 -0.62,2.242 0,2.242 0.619,2.242 1.12,1.741 1.121,1.119 1.121,0.501 0.619,0 0,0"
       style="fill:#000000;fill-opacity:1;fill-rule:nonzero;stroke:none"
       transform="matrix(1.3333333,0,0,-1.3333333,192.70707,639.9024)"
       clip-path="url(#clipPath183)" /><path
       id="path184"
       d="m 0,0 c -0.438,0.437 -0.438,1.146 0,1.586 0.437,0.438 1.147,0.438 1.586,0 C 2.024,1.146 2.024,0.438 1.586,0 1.147,-0.441 0.438,-0.438 0,0"
       style="fill:#000000;fill-opacity:1;fill-rule:nonzero;stroke:none"
       transform="matrix(1.3333333,0,0,-1.3333333,187.94667,653.05213)"
       clip-path="url(#clipPath185)" /><path
       id="path186"
       d="m 0,0 c 0,0.62 0.501,1.124 1.122,1.124 0.619,0 1.121,-0.503 1.121,-1.122 0,-0.619 -0.502,-1.121 -1.122,-1.121 C 0.5,-1.121 0,-0.617 0,0"
       style="fill:#000000;fill-opacity:1;fill-rule:nonzero;stroke:none"
       transform="matrix(1.3333333,0,0,-1.3333333,173.89653,656.87507)"
       clip-path="url(#clipPath187)" /><path
       id="path188"
       d="m 0,0 c 0.438,0.437 1.147,0.438 1.587,0 0.438,-0.437 0.438,-1.148 0,-1.586 C 1.149,-2.022 0.438,-2.024 0,-1.586 -0.44,-1.148 -0.437,-0.437 0,0"
       style="fill:#000000;fill-opacity:1;fill-rule:nonzero;stroke:none"
       transform="matrix(1.3333333,0,0,-1.3333333,161.98373,650.87627)"
       clip-path="url(#clipPath189)" /><path
       id="path190"
       d="m 0,0 c 0.621,0 1.124,-0.499 1.124,-1.121 0,-0.62 -0.503,-1.121 -1.122,-1.121 -0.619,0 -1.121,0.501 -1.121,1.121 C -1.122,-0.499 -0.617,0.002 0,0"
       style="fill:#000000;fill-opacity:1;fill-rule:nonzero;stroke:none"
       transform="matrix(1.3333333,0,0,-1.3333333,156.92507,636.8268)"
       clip-path="url(#clipPath191)" /><path
       id="path192"
       d="m 0,0 c 0.438,-0.439 0.442,-1.148 0.002,-1.587 -0.438,-0.439 -1.148,-0.439 -1.587,0 -0.437,0.438 -0.438,1.148 0,1.587 0.439,0.439 1.149,0.437 1.585,0"
       style="fill:#000000;fill-opacity:1;fill-rule:nonzero;stroke:none"
       transform="matrix(1.3333333,0,0,-1.3333333,164.1588,624.9128)"
       clip-path="url(#clipPath193)" /><path
       id="path194"
       d="m 0,0 c 4.116,2.057 2.939,5.879 0,8.818 -2.94,2.941 -1.177,8.819 -5.881,17.344 -4.703,8.526 -52.62,11.464 -64.965,12.052 -12.343,0.587 -34.105,15.872 -48.215,27.043 -14.11,11.171 -178.443,10.873 -189.025,8.467 -10.583,-2.408 -20.593,-33.169 -22.945,-43.165 -2.351,-9.996 2.616,-21.178 -1.243,-25.293 -3.86,-4.116 -2.374,-12.374 -1.787,-15.314 0.588,-2.939 43.933,-7.289 43.933,-7.289 -0.544,7.061 2.022,16.202 8.81,23.935 5.442,6.256 13.95,9.095 22.892,9.216 12.954,0.175 22.494,-6.869 27.886,-17.126 4.488,-8.538 2.826,-22.811 2.826,-22.811 h 147.67 c -0.063,8 -0.815,10.883 1.412,17.637 4.137,12.539 15.589,22.054 29.406,22.054 11.12,0 22.544,-4.638 27.628,-13.688 1.318,-1.814 2.451,-4.03 3.083,-5.668 3.131,-8.098 1.172,-17.996 1.172,-17.996 19.108,-0.883 19.401,7.658 20.007,11.186 C 3.271,-7.07 0,0 0,0"
       style="fill:#ffffff;fill-opacity:1;fill-rule:nonzero;stroke:none"
       transform="matrix(1.3333333,0,0,-1.3333333,520.0032,618.50267)"
       clip-path="url(#clipPath195)" /><path
       id="path196"
       d="m 0,0 c 0,0 -1.504,10.781 -3.667,13.133 -2.164,2.349 -10.64,2.256 -10.64,2.256 0,0 -2.725,-7.389 -1.262,-15.389 z"
       style="fill:#ea3e14;fill-opacity:1;fill-rule:nonzero;stroke:none"
       transform="matrix(1.3333333,0,0,-1.3333333,98.920533,593.33333)"
       clip-path="url(#clipPath197)" /><path
       id="path198"
       d="m 0,0 c 0,0 10.825,30.104 16.546,29.838 5.722,-0.264 71.734,0.002 71.734,0.002 0,0 6.249,1.141 2.817,-6.955 C 87.664,14.787 82.735,-3.257 76.311,-3.081 69.885,-2.904 -2.466,-3.345 0,0"
       style="fill:#1a1a1a;fill-opacity:1;fill-rule:nonzero;stroke:none"
       transform="matrix(1.3333333,0,0,-1.3333333,94.3464,565.99733)"
       clip-path="url(#clipPath199)" /><path
       id="path200"
       d="m 0,0 -1.704,31.174 h -42.742 c 0,0 -3.972,-0.125 -6.262,-6.824 C -52.867,18.031 -57.966,1.821 -58.538,0 Z"
       style="fill:#1a1a1a;fill-opacity:1;fill-rule:nonzero;stroke:none"
       transform="matrix(1.3333333,0,0,-1.3333333,307.24933,571.38027)"
       clip-path="url(#clipPath201)" /><path
       id="path202"
       d="m 0,0 c 0.792,5.606 -13.845,15.138 -22.488,23.289 -9.295,8.766 -37.371,7.695 -37.371,7.695 L -58.091,0 Z"
       style="fill:#1a1a1a;fill-opacity:1;fill-rule:nonzero;stroke:none"
       transform="matrix(1.3333333,0,0,-1.3333333,387.16533,571.38027)"
       clip-path="url(#clipPath203)" /><path
       id="path204"
       d="m 0,0 c 0,0 -3.801,-0.685 -3.988,3.303 -0.186,3.987 -1.121,8.97 3.552,9.219 4.672,0.25 9.884,0 9.884,0 0,0 2.967,-7.912 2.967,-11.79 z"
       style="fill:#b3b3b3;fill-opacity:1;fill-rule:nonzero;stroke:none"
       transform="matrix(1.3333333,0,0,-1.3333333,501.70507,604.8164)"
       clip-path="url(#clipPath205)" /><path
       id="path206"
       d="M 0,0 C 0,0 -152.249,1.514 -182.826,-0.536"
       style="fill:#1a1a1a;fill-opacity:1;fill-rule:nonzero;stroke:none"
       transform="matrix(1.3333333,0,0,-1.3333333,392.50133,576.71093)"
       clip-path="url(#clipPath207)" /><path
       id="path208"
       d="M 0,0 C 0,0 105.923,-1.573 127.196,0.464"
       style="fill:#1a1a1a;fill-opacity:1;fill-rule:nonzero;stroke:none"
       transform="matrix(1.3333333,0,0,-1.3333333,225.65107,641.04293)"
       clip-path="url(#clipPath209)" /><g
       opacity="0.100006"
       id="g211"
       clip-path="url(#clipPath212)"><path
         d="m 0,0 c 0,-2.665 -70.336,-4.825 -157.101,-4.825 -86.764,0 -157.101,2.16 -157.101,4.825 0,2.663 70.337,4.824 157.101,4.824 C -70.336,4.824 0,2.663 0,0"
         style="fill:#1d1d1b;fill-opacity:1;fill-rule:nonzero;stroke:none"
         transform="matrix(1.3333333,0,0,-1.3333333,508.07227,671.5052)"
         clip-path="url(#clipPath210)"
         id="path211" /></g></g></svg>
