<?xml version="1.0" encoding="UTF-8" standalone="no"?>
<!-- Created with Inkscape (http://www.inkscape.org/) -->

<svg
   width="125.75491mm"
   height="39.728653mm"
   viewBox="0 0 125.75491 39.728653"
   version="1.1"
   id="svg1"
   xml:space="preserve"
   xmlns="http://www.w3.org/2000/svg"
   xmlns:svg="http://www.w3.org/2000/svg"><defs
     id="defs1"><clipPath
       clipPathUnits="userSpaceOnUse"
       id="clipPath214"><path
         d="M 0,800 H 800 V 0 H 0 Z"
         transform="translate(-168.9546,-217.46871)"
         id="path214" /></clipPath><clipPath
       clipPathUnits="userSpaceOnUse"
       id="clipPath216"><path
         d="M 0,800 H 800 V 0 H 0 Z"
         transform="translate(-143.7886,-155.3096)"
         id="path216" /></clipPath><clipPath
       clipPathUnits="userSpaceOnUse"
       id="clipPath218"><path
         d="M 0,800 H 800 V 0 H 0 Z"
         transform="translate(-133.36041,-155.3096)"
         id="path218" /></clipPath><clipPath
       clipPathUnits="userSpaceOnUse"
       id="clipPath220"><path
         d="M 0,800 H 800 V 0 H 0 Z"
         transform="translate(-125.0107,-155.3447)"
         id="path220" /></clipPath><clipPath
       clipPathUnits="userSpaceOnUse"
       id="clipPath221"><path
         d="m 105.125,161.898 h 13.104 v -13.107 h -13.104 z"
         transform="translate(-118.2295,-155.3447)"
         id="path221" /></clipPath><clipPath
       clipPathUnits="userSpaceOnUse"
       id="clipPath223"><path
         d="M 0,800 H 800 V 0 H 0 Z"
         transform="matrix(1.3333333,0,0,-1.3333333,0,1066.6667)"
         id="path223" /></clipPath><clipPath
       clipPathUnits="userSpaceOnUse"
       id="clipPath224"><path
         d="m 109.532,157.49 h 4.292 v -4.293 h -4.292 z"
         transform="translate(-113.8237,-155.3447)"
         id="path224" /></clipPath><clipPath
       clipPathUnits="userSpaceOnUse"
       id="clipPath226"><path
         d="M 0,800 H 800 V 0 H 0 Z"
         transform="matrix(1.3333333,0,0,-1.3333333,0,1066.6667)"
         id="path226" /></clipPath><clipPath
       clipPathUnits="userSpaceOnUse"
       id="clipPath228"><path
         d="M 0,800 H 800 V 0 H 0 Z"
         transform="translate(-117.46341,-168.30371)"
         id="path228" /></clipPath><clipPath
       clipPathUnits="userSpaceOnUse"
       id="clipPath230"><path
         d="M 0,800 H 800 V 0 H 0 Z"
         transform="translate(-125.2285,-160.4238)"
         id="path230" /></clipPath><clipPath
       clipPathUnits="userSpaceOnUse"
       id="clipPath232"><path
         d="M 0,800 H 800 V 0 H 0 Z"
         transform="translate(-125.14791,-149.36231)"
         id="path232" /></clipPath><clipPath
       clipPathUnits="userSpaceOnUse"
       id="clipPath234"><path
         d="M 0,800 H 800 V 0 H 0 Z"
         transform="translate(-117.2671,-141.5957)"
         id="path234" /></clipPath><clipPath
       clipPathUnits="userSpaceOnUse"
       id="clipPath236"><path
         d="M 0,800 H 800 V 0 H 0 Z"
         transform="translate(-106.20261,-141.6768)"
         id="path236" /></clipPath><clipPath
       clipPathUnits="userSpaceOnUse"
       id="clipPath238"><path
         d="M 0,800 H 800 V 0 H 0 Z"
         transform="translate(-98.438005,-149.5557)"
         id="path238" /></clipPath><clipPath
       clipPathUnits="userSpaceOnUse"
       id="clipPath240"><path
         d="M 0,800 H 800 V 0 H 0 Z"
         transform="translate(-98.5195,-160.6211)"
         id="path240" /></clipPath><clipPath
       clipPathUnits="userSpaceOnUse"
       id="clipPath242"><path
         d="M 0,800 H 800 V 0 H 0 Z"
         transform="translate(-106.3989,-168.3848)"
         id="path242" /></clipPath><clipPath
       clipPathUnits="userSpaceOnUse"
       id="clipPath244"><path
         d="M 0,800 H 800 V 0 H 0 Z"
         transform="translate(-112.96041,-169.3086)"
         id="path244" /></clipPath><clipPath
       clipPathUnits="userSpaceOnUse"
       id="clipPath246"><path
         d="M 0,800 H 800 V 0 H 0 Z"
         transform="translate(-123.61671,-164.4473)"
         id="path246" /></clipPath><clipPath
       clipPathUnits="userSpaceOnUse"
       id="clipPath248"><path
         d="M 0,800 H 800 V 0 H 0 Z"
         transform="translate(-125.71191,-154.0635)"
         id="path248" /></clipPath><clipPath
       clipPathUnits="userSpaceOnUse"
       id="clipPath250"><path
         d="M 0,800 H 800 V 0 H 0 Z"
         transform="translate(-121.85301,-143.40431)"
         id="path250" /></clipPath><clipPath
       clipPathUnits="userSpaceOnUse"
       id="clipPath252"><path
         d="M 0,800 H 800 V 0 H 0 Z"
         transform="translate(-110.4648,-140.3057)"
         id="path252" /></clipPath><clipPath
       clipPathUnits="userSpaceOnUse"
       id="clipPath254"><path
         d="M 0,800 H 800 V 0 H 0 Z"
         transform="translate(-100.81011,-145.16891)"
         id="path254" /></clipPath><clipPath
       clipPathUnits="userSpaceOnUse"
       id="clipPath256"><path
         d="M 0,800 H 800 V 0 H 0 Z"
         transform="translate(-96.709502,-156.5547)"
         id="path256" /></clipPath><clipPath
       clipPathUnits="userSpaceOnUse"
       id="clipPath258"><path
         d="M 0,800 H 800 V 0 H 0 Z"
         transform="translate(-102.57231,-166.2129)"
         id="path258" /></clipPath><clipPath
       clipPathUnits="userSpaceOnUse"
       id="clipPath260"><path
         d="M 0,800 H 800 V 0 H 0 Z"
         transform="translate(-358.14111,-154.2783)"
         id="path260" /></clipPath><clipPath
       clipPathUnits="userSpaceOnUse"
       id="clipPath262"><path
         d="M 0,800 H 800 V 0 H 0 Z"
         transform="translate(-347.71341,-154.2783)"
         id="path262" /></clipPath><clipPath
       clipPathUnits="userSpaceOnUse"
       id="clipPath264"><path
         d="M 0,800 H 800 V 0 H 0 Z"
         transform="translate(-339.36331,-154.3145)"
         id="path264" /></clipPath><clipPath
       clipPathUnits="userSpaceOnUse"
       id="clipPath265"><path
         d="m 319.478,160.867 h 13.104 v -13.106 h -13.104 z"
         transform="translate(-332.58201,-154.3145)"
         id="path265" /></clipPath><clipPath
       clipPathUnits="userSpaceOnUse"
       id="clipPath267"><path
         d="M 0,800 H 800 V 0 H 0 Z"
         transform="matrix(1.3333333,0,0,-1.3333333,0,1066.6667)"
         id="path267" /></clipPath><clipPath
       clipPathUnits="userSpaceOnUse"
       id="clipPath268"><path
         d="m 323.885,156.46 h 4.291 v -4.294 h -4.291 z"
         transform="translate(-328.17631,-154.3145)"
         id="path268" /></clipPath><clipPath
       clipPathUnits="userSpaceOnUse"
       id="clipPath270"><path
         d="M 0,800 H 800 V 0 H 0 Z"
         transform="matrix(1.3333333,0,0,-1.3333333,0,1066.6667)"
         id="path270" /></clipPath><clipPath
       clipPathUnits="userSpaceOnUse"
       id="clipPath272"><path
         d="M 0,800 H 800 V 0 H 0 Z"
         transform="translate(-331.81591,-167.2734)"
         id="path272" /></clipPath><clipPath
       clipPathUnits="userSpaceOnUse"
       id="clipPath274"><path
         d="M 0,800 H 800 V 0 H 0 Z"
         transform="translate(-339.58111,-159.3936)"
         id="path274" /></clipPath><clipPath
       clipPathUnits="userSpaceOnUse"
       id="clipPath276"><path
         d="M 0,800 H 800 V 0 H 0 Z"
         transform="translate(-339.50051,-148.332)"
         id="path276" /></clipPath><clipPath
       clipPathUnits="userSpaceOnUse"
       id="clipPath278"><path
         d="M 0,800 H 800 V 0 H 0 Z"
         transform="translate(-331.61961,-140.56451)"
         id="path278" /></clipPath><clipPath
       clipPathUnits="userSpaceOnUse"
       id="clipPath280"><path
         d="M 0,800 H 800 V 0 H 0 Z"
         transform="translate(-320.55521,-140.6465)"
         id="path280" /></clipPath><clipPath
       clipPathUnits="userSpaceOnUse"
       id="clipPath282"><path
         d="M 0,800 H 800 V 0 H 0 Z"
         transform="translate(-312.79051,-148.5254)"
         id="path282" /></clipPath><clipPath
       clipPathUnits="userSpaceOnUse"
       id="clipPath284"><path
         d="M 0,800 H 800 V 0 H 0 Z"
         transform="translate(-312.87211,-159.59081)"
         id="path284" /></clipPath><clipPath
       clipPathUnits="userSpaceOnUse"
       id="clipPath286"><path
         d="M 0,800 H 800 V 0 H 0 Z"
         transform="translate(-320.75151,-167.35451)"
         id="path286" /></clipPath><clipPath
       clipPathUnits="userSpaceOnUse"
       id="clipPath288"><path
         d="M 0,800 H 800 V 0 H 0 Z"
         transform="translate(-327.31301,-168.27731)"
         id="path288" /></clipPath><clipPath
       clipPathUnits="userSpaceOnUse"
       id="clipPath290"><path
         d="M 0,800 H 800 V 0 H 0 Z"
         transform="translate(-337.96921,-163.41701)"
         id="path290" /></clipPath><clipPath
       clipPathUnits="userSpaceOnUse"
       id="clipPath292"><path
         d="M 0,800 H 800 V 0 H 0 Z"
         transform="translate(-340.06451,-153.0332)"
         id="path292" /></clipPath><clipPath
       clipPathUnits="userSpaceOnUse"
       id="clipPath294"><path
         d="M 0,800 H 800 V 0 H 0 Z"
         transform="translate(-336.20561,-142.374)"
         id="path294" /></clipPath><clipPath
       clipPathUnits="userSpaceOnUse"
       id="clipPath296"><path
         d="M 0,800 H 800 V 0 H 0 Z"
         transform="translate(-324.81741,-139.27541)"
         id="path296" /></clipPath><clipPath
       clipPathUnits="userSpaceOnUse"
       id="clipPath298"><path
         d="M 0,800 H 800 V 0 H 0 Z"
         transform="translate(-315.16261,-144.13871)"
         id="path298" /></clipPath><clipPath
       clipPathUnits="userSpaceOnUse"
       id="clipPath300"><path
         d="M 0,800 H 800 V 0 H 0 Z"
         transform="translate(-311.06201,-155.5244)"
         id="path300" /></clipPath><clipPath
       clipPathUnits="userSpaceOnUse"
       id="clipPath302"><path
         d="M 0,800 H 800 V 0 H 0 Z"
         transform="translate(-316.92481,-165.18161)"
         id="path302" /></clipPath><clipPath
       clipPathUnits="userSpaceOnUse"
       id="clipPath304"><path
         d="M 0,800 H 800 V 0 H 0 Z"
         transform="translate(-399.70951,-153.8486)"
         id="path304" /></clipPath><clipPath
       clipPathUnits="userSpaceOnUse"
       id="clipPath306"><path
         d="M 0,800 H 800 V 0 H 0 Z"
         transform="translate(-57.697801,-191.61041)"
         id="path306" /></clipPath><clipPath
       clipPathUnits="userSpaceOnUse"
       id="clipPath308"><path
         d="M 0,800 H 800 V 0 H 0 Z"
         transform="translate(-353.29641,-198.26951)"
         id="path308" /></clipPath><clipPath
       clipPathUnits="userSpaceOnUse"
       id="clipPath310"><path
         d="M 0,800 H 800 V 0 H 0 Z"
         transform="translate(-155.5576,-149.17871)"
         id="path310" /></clipPath></defs><g
     id="layer-MC1"
     transform="matrix(0.26458334,0,0,0.26458335,-16.128411,-199.38301)"><path
       id="path213"
       d="m 0,0 c 0,0 82.774,-3.343 83.401,-3.553 0.627,-0.209 19.647,-12.123 19.647,-12.123 l -35.95,-7.105 -59.149,3.135 z"
       style="fill:#1d1d1b;fill-opacity:1;fill-rule:nonzero;stroke:none"
       transform="matrix(1.3333333,0,0,-1.3333333,225.2728,776.7084)"
       clip-path="url(#clipPath214)" /><path
       id="path215"
       d="m 0,0 c 0,-17.718 -14.36,-32.076 -32.076,-32.076 -17.716,0 -32.076,14.358 -32.076,32.076 0,17.714 14.36,32.075 32.076,32.075 C -14.36,32.075 0,17.714 0,0"
       style="fill:#000000;fill-opacity:1;fill-rule:nonzero;stroke:none"
       transform="matrix(1.3333333,0,0,-1.3333333,191.71813,859.5872)"
       clip-path="url(#clipPath216)" /><path
       id="path217"
       d="m 0,0 c 0,-11.957 -9.691,-21.647 -21.647,-21.647 -11.957,0 -21.648,9.69 -21.648,21.647 0,11.956 9.691,21.647 21.648,21.647 C -9.691,21.647 0,11.956 0,0"
       style="fill:#fafcfb;fill-opacity:1;fill-rule:nonzero;stroke:none"
       transform="matrix(1.3333333,0,0,-1.3333333,177.81387,859.5872)"
       clip-path="url(#clipPath218)" /><path
       id="path219"
       d="m 0,0 c 0,-7.365 -5.97,-13.334 -13.333,-13.334 -7.364,0 -13.333,5.969 -13.333,13.334 0,7.363 5.969,13.331 13.333,13.331 C -5.97,13.331 0,7.363 0,0"
       style="fill:#bdbdbd;fill-opacity:1;fill-rule:nonzero;stroke:none"
       transform="matrix(1.3333333,0,0,-1.3333333,166.68093,859.5404)"
       clip-path="url(#clipPath220)" /><g
       opacity="0.199997"
       id="g222"
       clip-path="url(#clipPath223)"><path
         d="m 0,0 c 0,-3.62 -2.934,-6.554 -6.552,-6.554 -3.619,0 -6.552,2.934 -6.552,6.554 0,3.618 2.933,6.554 6.552,6.554 C -2.934,6.554 0,3.618 0,0"
         style="fill:#bdbdbd;fill-opacity:1;fill-rule:nonzero;stroke:none"
         transform="matrix(1.3333333,0,0,-1.3333333,157.63933,859.5404)"
         clip-path="url(#clipPath221)"
         id="path222" /></g><g
       opacity="0.199997"
       id="g225"
       clip-path="url(#clipPath226)"><path
         d="m 0,0 c 0,-1.186 -0.961,-2.147 -2.146,-2.147 -1.185,0 -2.146,0.961 -2.146,2.147 0,1.186 0.961,2.146 2.146,2.146 C -0.961,2.146 0,1.186 0,0"
         style="fill:#bdbdbd;fill-opacity:1;fill-rule:nonzero;stroke:none"
         transform="matrix(1.3333333,0,0,-1.3333333,151.76493,859.5404)"
         clip-path="url(#clipPath224)"
         id="path225" /></g><path
       id="path227"
       d="m 0,0 c 0,-3.156 -2.559,-5.714 -5.715,-5.714 -3.157,0 -5.715,2.558 -5.715,5.714 0,3.159 2.558,5.716 5.715,5.716 C -2.559,5.716 0,3.159 0,0"
       style="fill:#bdbdbd;fill-opacity:1;fill-rule:nonzero;stroke:none"
       transform="matrix(1.3333333,0,0,-1.3333333,156.61787,842.26173)"
       clip-path="url(#clipPath228)" /><path
       id="path229"
       d="m 0,0 c -2.232,-2.23 -5.849,-2.23 -8.082,0 -2.233,2.233 -2.233,5.85 -10e-4,8.084 2.232,2.232 5.852,2.232 8.083,0 C 2.233,5.85 2.233,2.233 0,0"
       style="fill:#bdbdbd;fill-opacity:1;fill-rule:nonzero;stroke:none"
       transform="matrix(1.3333333,0,0,-1.3333333,166.97133,852.76827)"
       clip-path="url(#clipPath230)" /><path
       id="path231"
       d="M 0,0 C -3.157,0 -5.716,2.559 -5.716,5.715 -5.716,8.87 -3.157,11.43 0,11.43 3.157,11.429 5.716,8.87 5.716,5.715 5.716,2.558 3.157,0 0,0"
       style="fill:#bdbdbd;fill-opacity:1;fill-rule:nonzero;stroke:none"
       transform="matrix(1.3333333,0,0,-1.3333333,166.86387,867.51693)"
       clip-path="url(#clipPath232)" /><path
       id="path233"
       d="m 0,0 c -2.232,2.231 -2.232,5.851 0,8.082 2.232,2.231 5.851,2.234 8.083,0 C 10.315,5.851 10.315,2.23 8.083,0 5.85,-2.232 2.232,-2.232 0,0"
       style="fill:#bdbdbd;fill-opacity:1;fill-rule:nonzero;stroke:none"
       transform="matrix(1.3333333,0,0,-1.3333333,156.35613,877.8724)"
       clip-path="url(#clipPath234)" /><path
       id="path235"
       d="m 0,0 c 0,3.156 2.56,5.715 5.716,5.715 3.156,0 5.716,-2.558 5.716,-5.716 0,-3.157 -2.56,-5.715 -5.716,-5.715 C 2.559,-5.716 0,-3.158 0,0"
       style="fill:#bdbdbd;fill-opacity:1;fill-rule:nonzero;stroke:none"
       transform="matrix(1.3333333,0,0,-1.3333333,141.60347,877.76427)"
       clip-path="url(#clipPath236)" /><path
       id="path237"
       d="m 0,0 c 2.232,2.233 5.851,2.233 8.083,0.003 2.23,-2.235 2.232,-5.851 0,-8.086 -2.233,-2.231 -5.853,-2.231 -8.084,0 C -2.232,-5.848 -2.233,-2.232 0,0"
       style="fill:#bdbdbd;fill-opacity:1;fill-rule:nonzero;stroke:none"
       transform="matrix(1.3333333,0,0,-1.3333333,131.25067,867.25907)"
       clip-path="url(#clipPath238)" /><path
       id="path239"
       d="m 0,0 c 3.155,0 5.715,-2.56 5.716,-5.717 -0.002,-3.154 -2.559,-5.716 -5.717,-5.716 -3.157,0.002 -5.716,2.562 -5.716,5.716 C -5.716,-2.56 -3.158,0.001 0,0"
       style="fill:#bdbdbd;fill-opacity:1;fill-rule:nonzero;stroke:none"
       transform="matrix(1.3333333,0,0,-1.3333333,131.35933,852.5052)"
       clip-path="url(#clipPath240)" /><path
       id="path241"
       d="m 0,0 c 2.231,-2.229 2.231,-5.85 0.002,-8.081 -2.233,-2.232 -5.853,-2.234 -8.085,0 -2.232,2.231 -2.232,5.853 0,8.083 C -5.85,2.233 -2.231,2.233 0,0"
       style="fill:#bdbdbd;fill-opacity:1;fill-rule:nonzero;stroke:none"
       transform="matrix(1.3333333,0,0,-1.3333333,141.8652,842.1536)"
       clip-path="url(#clipPath242)" /><path
       id="path243"
       d="m 0,0 c 0,-0.672 -0.543,-1.212 -1.212,-1.212 -0.67,0 -1.213,0.54 -1.213,1.212 0,0.669 0.543,1.212 1.213,1.212 C -0.543,1.212 0,0.669 0,0"
       style="fill:#000000;fill-opacity:1;fill-rule:nonzero;stroke:none"
       transform="matrix(1.3333333,0,0,-1.3333333,150.61387,840.92187)"
       clip-path="url(#clipPath244)" /><path
       id="path245"
       d="m 0,0 c -0.474,-0.475 -1.241,-0.475 -1.714,-0.001 -0.474,0.476 -0.474,1.241 0,1.715 0.473,0.473 1.24,0.473 1.714,0 C 0.474,1.24 0.474,0.475 0,0"
       style="fill:#000000;fill-opacity:1;fill-rule:nonzero;stroke:none"
       transform="matrix(1.3333333,0,0,-1.3333333,164.82227,847.4036)"
       clip-path="url(#clipPath246)" /><path
       id="path247"
       d="M 0,0 C -0.67,0 -1.212,0.541 -1.212,1.208 -1.213,1.881 -0.671,2.422 0,2.422 0.668,2.422 1.21,1.881 1.211,1.208 1.211,0.541 0.668,0 0,0"
       style="fill:#000000;fill-opacity:1;fill-rule:nonzero;stroke:none"
       transform="matrix(1.3333333,0,0,-1.3333333,167.61587,861.24867)"
       clip-path="url(#clipPath248)" /><path
       id="path249"
       d="m 0,0 c -0.474,0.473 -0.474,1.24 0,1.714 0.473,0.474 1.24,0.474 1.714,0 C 2.187,1.24 2.187,0.475 1.714,0 1.24,-0.477 0.474,-0.473 0,0"
       style="fill:#000000;fill-opacity:1;fill-rule:nonzero;stroke:none"
       transform="matrix(1.3333333,0,0,-1.3333333,162.47067,875.46093)"
       clip-path="url(#clipPath250)" /><path
       id="path251"
       d="m 0,0 c 0,0.672 0.542,1.215 1.212,1.215 0.669,0 1.212,-0.542 1.212,-1.213 0,-0.668 -0.543,-1.211 -1.212,-1.211 C 0.542,-1.21 0,-0.666 0,0"
       style="fill:#000000;fill-opacity:1;fill-rule:nonzero;stroke:none"
       transform="matrix(1.3333333,0,0,-1.3333333,147.2864,879.5924)"
       clip-path="url(#clipPath252)" /><path
       id="path253"
       d="m 0,0 c 0.473,0.472 1.24,0.474 1.714,0 0.474,-0.474 0.474,-1.242 0,-1.714 -0.473,-0.472 -1.24,-0.474 -1.714,0 -0.476,0.472 -0.473,1.24 0,1.714"
       style="fill:#000000;fill-opacity:1;fill-rule:nonzero;stroke:none"
       transform="matrix(1.3333333,0,0,-1.3333333,134.41347,873.10813)"
       clip-path="url(#clipPath254)" /><path
       id="path255"
       d="m 0,0 c 0.671,0 1.215,-0.538 1.215,-1.21 0,-0.671 -0.543,-1.212 -1.213,-1.212 -0.669,0 -1.212,0.541 -1.212,1.212 C -1.212,-0.538 -0.667,0.002 0,0"
       style="fill:#000000;fill-opacity:1;fill-rule:nonzero;stroke:none"
       transform="matrix(1.3333333,0,0,-1.3333333,128.946,857.92707)"
       clip-path="url(#clipPath256)" /><path
       id="path257"
       d="m 0,0 c 0.474,-0.476 0.478,-1.242 0.002,-1.715 -0.473,-0.475 -1.24,-0.475 -1.715,0 -0.472,0.473 -0.473,1.239 0,1.715 0.475,0.475 1.242,0.473 1.713,0"
       style="fill:#000000;fill-opacity:1;fill-rule:nonzero;stroke:none"
       transform="matrix(1.3333333,0,0,-1.3333333,136.76307,845.04947)"
       clip-path="url(#clipPath258)" /><path
       id="path259"
       d="m 0,0 c 0,-17.717 -14.36,-32.075 -32.076,-32.075 -17.716,0 -32.076,14.358 -32.076,32.075 0,17.715 14.36,32.076 32.076,32.076 C -14.36,32.076 0,17.715 0,0"
       style="fill:#000000;fill-opacity:1;fill-rule:nonzero;stroke:none"
       transform="matrix(1.3333333,0,0,-1.3333333,477.52147,860.96227)"
       clip-path="url(#clipPath260)" /><path
       id="path261"
       d="m 0,0 c 0,-11.956 -9.692,-21.647 -21.648,-21.647 -11.956,0 -21.648,9.691 -21.648,21.647 0,11.956 9.692,21.647 21.648,21.647 C -9.692,21.647 0,11.956 0,0"
       style="fill:#fafcfb;fill-opacity:1;fill-rule:nonzero;stroke:none"
       transform="matrix(1.3333333,0,0,-1.3333333,463.61787,860.96227)"
       clip-path="url(#clipPath262)" /><path
       id="path263"
       d="m 0,0 c 0,-7.365 -5.97,-13.334 -13.333,-13.334 -7.364,0 -13.333,5.969 -13.333,13.334 0,7.363 5.969,13.331 13.333,13.331 C -5.97,13.331 0,7.363 0,0"
       style="fill:#bdbdbd;fill-opacity:1;fill-rule:nonzero;stroke:none"
       transform="matrix(1.3333333,0,0,-1.3333333,452.4844,860.914)"
       clip-path="url(#clipPath264)" /><g
       opacity="0.199997"
       id="g266"
       clip-path="url(#clipPath267)"><path
         d="m 0,0 c 0,-3.62 -2.934,-6.554 -6.552,-6.554 -3.619,0 -6.552,2.934 -6.552,6.554 0,3.618 2.933,6.553 6.552,6.553 C -2.934,6.553 0,3.618 0,0"
         style="fill:#bdbdbd;fill-opacity:1;fill-rule:nonzero;stroke:none"
         transform="matrix(1.3333333,0,0,-1.3333333,443.44267,860.914)"
         clip-path="url(#clipPath265)"
         id="path266" /></g><g
       opacity="0.199997"
       id="g269"
       clip-path="url(#clipPath270)"><path
         d="m 0,0 c 0,-1.186 -0.961,-2.148 -2.146,-2.148 -1.185,0 -2.146,0.962 -2.146,2.148 0,1.185 0.961,2.146 2.146,2.146 C -0.961,2.146 0,1.185 0,0"
         style="fill:#bdbdbd;fill-opacity:1;fill-rule:nonzero;stroke:none"
         transform="matrix(1.3333333,0,0,-1.3333333,437.5684,860.914)"
         clip-path="url(#clipPath268)"
         id="path269" /></g><path
       id="path271"
       d="m 0,0 c 0,-3.156 -2.559,-5.715 -5.715,-5.715 -3.157,0 -5.715,2.559 -5.715,5.715 0,3.159 2.558,5.716 5.715,5.716 C -2.559,5.716 0,3.159 0,0"
       style="fill:#bdbdbd;fill-opacity:1;fill-rule:nonzero;stroke:none"
       transform="matrix(1.3333333,0,0,-1.3333333,442.4212,843.63547)"
       clip-path="url(#clipPath272)" /><path
       id="path273"
       d="m 0,0 c -2.232,-2.23 -5.849,-2.23 -8.082,0 -2.233,2.232 -2.233,5.85 -10e-4,8.084 2.232,2.232 5.852,2.232 8.083,0 C 2.233,5.85 2.233,2.232 0,0"
       style="fill:#bdbdbd;fill-opacity:1;fill-rule:nonzero;stroke:none"
       transform="matrix(1.3333333,0,0,-1.3333333,452.7748,854.14187)"
       clip-path="url(#clipPath274)" /><path
       id="path275"
       d="M 0,0 C -3.157,0 -5.716,2.559 -5.716,5.714 -5.716,8.87 -3.157,11.43 0,11.43 3.157,11.429 5.716,8.87 5.716,5.714 5.716,2.557 3.157,0 0,0"
       style="fill:#bdbdbd;fill-opacity:1;fill-rule:nonzero;stroke:none"
       transform="matrix(1.3333333,0,0,-1.3333333,452.66733,868.89067)"
       clip-path="url(#clipPath276)" /><path
       id="path277"
       d="m 0,0 c -2.232,2.232 -2.232,5.852 0,8.082 2.232,2.231 5.851,2.234 8.083,0 C 10.315,5.852 10.315,2.231 8.083,0 5.85,-2.232 2.232,-2.232 0,0"
       style="fill:#bdbdbd;fill-opacity:1;fill-rule:nonzero;stroke:none"
       transform="matrix(1.3333333,0,0,-1.3333333,442.15947,879.24733)"
       clip-path="url(#clipPath278)" /><path
       id="path279"
       d="m 0,0 c 0,3.156 2.561,5.715 5.716,5.715 3.156,0 5.716,-2.559 5.716,-5.716 0,-3.157 -2.56,-5.716 -5.716,-5.716 C 2.559,-5.716 0,-3.158 0,0"
       style="fill:#bdbdbd;fill-opacity:1;fill-rule:nonzero;stroke:none"
       transform="matrix(1.3333333,0,0,-1.3333333,427.40693,879.138)"
       clip-path="url(#clipPath280)" /><path
       id="path281"
       d="m 0,0 c 2.232,2.232 5.851,2.232 8.083,0.003 2.23,-2.235 2.232,-5.852 0,-8.087 -2.233,-2.23 -5.853,-2.23 -8.084,0 C -2.232,-5.849 -2.233,-2.232 0,0"
       style="fill:#bdbdbd;fill-opacity:1;fill-rule:nonzero;stroke:none"
       transform="matrix(1.3333333,0,0,-1.3333333,417.054,868.6328)"
       clip-path="url(#clipPath282)" /><path
       id="path283"
       d="m 0,0 c 3.155,0 5.715,-2.56 5.716,-5.717 -0.002,-3.155 -2.559,-5.716 -5.717,-5.716 -3.157,0.002 -5.716,2.561 -5.716,5.716 C -5.716,-2.56 -3.158,0.001 0,0"
       style="fill:#bdbdbd;fill-opacity:1;fill-rule:nonzero;stroke:none"
       transform="matrix(1.3333333,0,0,-1.3333333,417.1628,853.87893)"
       clip-path="url(#clipPath284)" /><path
       id="path285"
       d="m 0,0 c 2.231,-2.229 2.231,-5.85 0.002,-8.081 -2.233,-2.232 -5.853,-2.234 -8.085,0 -2.232,2.231 -2.232,5.853 0,8.083 C -5.85,2.233 -2.231,2.233 0,0"
       style="fill:#bdbdbd;fill-opacity:1;fill-rule:nonzero;stroke:none"
       transform="matrix(1.3333333,0,0,-1.3333333,427.66867,843.52733)"
       clip-path="url(#clipPath286)" /><path
       id="path287"
       d="m 0,0 c 0,-0.671 -0.543,-1.211 -1.212,-1.211 -0.67,0 -1.213,0.54 -1.213,1.211 0,0.67 0.543,1.213 1.213,1.213 C -0.543,1.213 0,0.67 0,0"
       style="fill:#000000;fill-opacity:1;fill-rule:nonzero;stroke:none"
       transform="matrix(1.3333333,0,0,-1.3333333,436.41733,842.29693)"
       clip-path="url(#clipPath288)" /><path
       id="path289"
       d="m 0,0 c -0.474,-0.476 -1.241,-0.476 -1.714,-0.001 -0.474,0.476 -0.474,1.24 0,1.715 0.473,0.473 1.24,0.473 1.714,0 C 0.474,1.239 0.474,0.475 0,0"
       style="fill:#000000;fill-opacity:1;fill-rule:nonzero;stroke:none"
       transform="matrix(1.3333333,0,0,-1.3333333,450.6256,848.77733)"
       clip-path="url(#clipPath290)" /><path
       id="path291"
       d="M 0,0 C -0.67,0 -1.212,0.541 -1.212,1.208 -1.213,1.881 -0.671,2.422 0,2.422 0.668,2.422 1.21,1.881 1.211,1.208 1.211,0.541 0.668,0 0,0"
       style="fill:#000000;fill-opacity:1;fill-rule:nonzero;stroke:none"
       transform="matrix(1.3333333,0,0,-1.3333333,453.41933,862.6224)"
       clip-path="url(#clipPath292)" /><path
       id="path293"
       d="m 0,0 c -0.474,0.472 -0.474,1.24 0,1.714 0.473,0.474 1.24,0.474 1.714,0 C 2.187,1.24 2.187,0.474 1.714,0 1.24,-0.477 0.474,-0.473 0,0"
       style="fill:#000000;fill-opacity:1;fill-rule:nonzero;stroke:none"
       transform="matrix(1.3333333,0,0,-1.3333333,448.27413,876.83467)"
       clip-path="url(#clipPath294)" /><path
       id="path295"
       d="M 0,0 C 0,0.672 0.542,1.215 1.212,1.215 1.881,1.215 2.424,0.672 2.424,0.002 2.424,-0.666 1.881,-1.21 1.212,-1.21 0.542,-1.211 0,-0.666 0,0"
       style="fill:#000000;fill-opacity:1;fill-rule:nonzero;stroke:none"
       transform="matrix(1.3333333,0,0,-1.3333333,433.08987,880.96613)"
       clip-path="url(#clipPath296)" /><path
       id="path297"
       d="m 0,0 c 0.473,0.472 1.24,0.474 1.714,0 0.474,-0.475 0.474,-1.242 0,-1.714 C 1.241,-2.187 0.474,-2.189 0,-1.714 -0.476,-1.242 -0.473,-0.475 0,0"
       style="fill:#000000;fill-opacity:1;fill-rule:nonzero;stroke:none"
       transform="matrix(1.3333333,0,0,-1.3333333,420.2168,874.48173)"
       clip-path="url(#clipPath298)" /><path
       id="path299"
       d="m 0,0 c 0.671,0 1.215,-0.538 1.215,-1.21 0,-0.671 -0.543,-1.212 -1.213,-1.212 -0.669,0 -1.212,0.541 -1.212,1.212 C -1.212,-0.538 -0.667,0.002 0,0"
       style="fill:#000000;fill-opacity:1;fill-rule:nonzero;stroke:none"
       transform="matrix(1.3333333,0,0,-1.3333333,414.74933,859.3008)"
       clip-path="url(#clipPath300)" /><path
       id="path301"
       d="m 0,0 c 0.474,-0.475 0.478,-1.241 0.002,-1.715 -0.473,-0.474 -1.24,-0.474 -1.715,0 -0.472,0.474 -0.473,1.24 0,1.715 0.475,0.476 1.242,0.474 1.713,0"
       style="fill:#000000;fill-opacity:1;fill-rule:nonzero;stroke:none"
       transform="matrix(1.3333333,0,0,-1.3333333,422.5664,846.42453)"
       clip-path="url(#clipPath302)" /><path
       id="path303"
       d="m 0,0 c -1.619,0.932 -0.243,9.537 -0.01,15.817 0.233,6.282 -3.721,9.537 -23.726,21.412 -20.004,11.874 -62.804,18.13 -75.132,19.062 -12.328,0.931 -33.728,11.63 -50.941,20.236 -17.212,8.607 -19.539,1.396 -21.399,-2.093 -1.861,-3.49 36.751,-24.657 36.751,-24.657 l -51.252,0.604 c 0,0 -22.949,-0.371 -35.976,3.816 -13.025,4.188 3.257,26.052 -6.977,26.749 -10.234,0.698 -11.398,-13.259 -11.398,-13.259 -42.102,2.326 -79.784,-12.095 -88.856,-15.351 -9.072,-3.257 -13.026,-1.397 -17.445,-3.489 -4.42,-2.094 -0.931,-6.979 -0.931,-6.979 -9.304,-6.514 -6.28,-16.979 -6.047,-31.635 0.194,-12.274 22.895,-15.734 30.27,-16.535 -0.551,2.501 -0.85,5.096 -0.85,7.763 0,5.84 1.402,11.349 3.875,16.223 1.057,2.985 2.495,5.969 4.853,8.399 10.981,11.313 24.699,13.221 34.914,10.752 0.724,-0.175 1.751,-0.42 2.115,-0.543 4.575,-1.552 5.655,-1.616 7.727,-2.784 4.63,-2.608 9.131,-5.455 11.99,-10.4 4.494,-5.998 6.371,-13.576 6.371,-21.647 0,-0.493 -0.018,-0.982 -0.037,-1.47 -0.105,-9.579 -0.742,-11.854 -0.742,-11.854 l 145.758,0.229 c -1.589,4.059 -2.472,8.472 -2.472,13.095 0,19.839 16.083,35.922 35.923,35.922 19.84,0 35.922,-16.083 35.922,-35.922 0,-4.207 -0.729,-8.241 -2.058,-11.992 -0.353,-2.111 -0.685,-3.425 -0.685,-3.425 27.7,0.697 33.477,8.606 39.525,10.467 C 5.109,-1.628 1.619,-0.931 0,0"
       style="fill:#ffffff;fill-opacity:1;fill-rule:nonzero;stroke:none"
       transform="matrix(1.3333333,0,0,-1.3333333,532.946,861.5352)"
       clip-path="url(#clipPath304)" /><path
       id="path305"
       d="m 0,0 c 0,0 9.04,-0.821 13.806,0 4.766,0.821 14.956,3.535 15.285,6.492 0.328,2.958 -1.644,4.193 -5.917,5.506 -4.274,1.315 -8.611,3.106 -8.611,3.106 0,0 -6.643,-2.616 -13.397,-2.82 C -5.588,12.08 -8.423,9.198 -5.28,4.106 -2.137,-0.986 0,0 0,0"
       style="fill:#ee3e38;fill-opacity:1;fill-rule:nonzero;stroke:none"
       transform="matrix(1.3333333,0,0,-1.3333333,76.9304,811.18613)"
       clip-path="url(#clipPath306)" /><path
       id="path307"
       d="m 0,0 c 0,0 23.291,-19.987 34.11,-19.529 0,0 7.552,-0.385 5.538,1.547 C 37.324,-15.755 18.52,-4.299 14.485,-2.714 10.686,-1.222 -3.209,4.401 0,0"
       style="fill:#b3b3b3;fill-opacity:1;fill-rule:nonzero;stroke:none"
       transform="matrix(1.3333333,0,0,-1.3333333,471.06187,802.30733)"
       clip-path="url(#clipPath308)" /><path
       id="path309"
       d="M 0,0 C 0,0 105.923,-1.573 127.196,0.464"
       style="fill:#1a1a1a;fill-opacity:1;fill-rule:nonzero;stroke:none"
       transform="matrix(1.3333333,0,0,-1.3333333,207.41013,867.76173)"
       clip-path="url(#clipPath310)" /></g></svg>
