<?xml version="1.0" encoding="UTF-8" standalone="no"?>
<!-- Created with Inkscape (http://www.inkscape.org/) -->

<svg
   width="106.81971mm"
   height="38.123352mm"
   viewBox="0 0 106.81971 38.123352"
   version="1.1"
   id="svg1"
   xml:space="preserve"
   xmlns="http://www.w3.org/2000/svg"
   xmlns:svg="http://www.w3.org/2000/svg"><defs
     id="defs1"><clipPath
       clipPathUnits="userSpaceOnUse"
       id="clipPath524"><path
         d="M 0,800 H 800 V 0 H 0 Z"
         transform="translate(-742.33012,-180.3701)"
         id="path524" /></clipPath><clipPath
       clipPathUnits="userSpaceOnUse"
       id="clipPath526"><path
         d="M 0,800 H 800 V 0 H 0 Z"
         transform="translate(-519.34571,-149.1504)"
         id="path526" /></clipPath><clipPath
       clipPathUnits="userSpaceOnUse"
       id="clipPath528"><path
         d="M 0,800 H 800 V 0 H 0 Z"
         transform="translate(-510.58591,-149.1504)"
         id="path528" /></clipPath><clipPath
       clipPathUnits="userSpaceOnUse"
       id="clipPath530"><path
         d="M 0,800 H 800 V 0 H 0 Z"
         transform="translate(-503.57032,-149.1797)"
         id="path530" /></clipPath><clipPath
       clipPathUnits="userSpaceOnUse"
       id="clipPath531"><path
         d="m 486.865,154.686 h 11.01 v -11.012 h -11.01 z"
         transform="translate(-497.87501,-149.1797)"
         id="path531" /></clipPath><clipPath
       clipPathUnits="userSpaceOnUse"
       id="clipPath533"><path
         d="M 0,800 H 800 V 0 H 0 Z"
         transform="matrix(1.3333333,0,0,-1.3333333,0,1066.6667)"
         id="path533" /></clipPath><clipPath
       clipPathUnits="userSpaceOnUse"
       id="clipPath534"><path
         d="m 490.566,150.981 h 3.606 v -3.605 h -3.606 z"
         transform="translate(-494.17191,-149.1797)"
         id="path534" /></clipPath><clipPath
       clipPathUnits="userSpaceOnUse"
       id="clipPath536"><path
         d="M 0,800 H 800 V 0 H 0 Z"
         transform="matrix(1.3333333,0,0,-1.3333333,0,1066.6667)"
         id="path536" /></clipPath><clipPath
       clipPathUnits="userSpaceOnUse"
       id="clipPath538"><path
         d="M 0,800 H 800 V 0 H 0 Z"
         transform="translate(-497.23051,-160.0674)"
         id="path538" /></clipPath><clipPath
       clipPathUnits="userSpaceOnUse"
       id="clipPath540"><path
         d="M 0,800 H 800 V 0 H 0 Z"
         transform="translate(-503.75392,-153.4473)"
         id="path540" /></clipPath><clipPath
       clipPathUnits="userSpaceOnUse"
       id="clipPath542"><path
         d="M 0,800 H 800 V 0 H 0 Z"
         transform="translate(-503.68552,-144.15431)"
         id="path542" /></clipPath><clipPath
       clipPathUnits="userSpaceOnUse"
       id="clipPath544"><path
         d="M 0,800 H 800 V 0 H 0 Z"
         transform="translate(-497.06451,-137.6279)"
         id="path544" /></clipPath><clipPath
       clipPathUnits="userSpaceOnUse"
       id="clipPath546"><path
         d="M 0,800 H 800 V 0 H 0 Z"
         transform="translate(-487.76951,-137.6973)"
         id="path546" /></clipPath><clipPath
       clipPathUnits="userSpaceOnUse"
       id="clipPath548"><path
         d="M 0,800 H 800 V 0 H 0 Z"
         transform="translate(-481.24611,-144.3164)"
         id="path548" /></clipPath><clipPath
       clipPathUnits="userSpaceOnUse"
       id="clipPath550"><path
         d="M 0,800 H 800 V 0 H 0 Z"
         transform="translate(-481.31641,-153.6123)"
         id="path550" /></clipPath><clipPath
       clipPathUnits="userSpaceOnUse"
       id="clipPath552"><path
         d="M 0,800 H 800 V 0 H 0 Z"
         transform="translate(-487.93551,-160.1357)"
         id="path552" /></clipPath><clipPath
       clipPathUnits="userSpaceOnUse"
       id="clipPath554"><path
         d="M 0,800 H 800 V 0 H 0 Z"
         transform="translate(-493.44731,-160.9121)"
         id="path554" /></clipPath><clipPath
       clipPathUnits="userSpaceOnUse"
       id="clipPath556"><path
         d="M 0,800 H 800 V 0 H 0 Z"
         transform="translate(-502.40041,-156.8271)"
         id="path556" /></clipPath><clipPath
       clipPathUnits="userSpaceOnUse"
       id="clipPath558"><path
         d="M 0,800 H 800 V 0 H 0 Z"
         transform="translate(-504.16021,-148.10351)"
         id="path558" /></clipPath><clipPath
       clipPathUnits="userSpaceOnUse"
       id="clipPath560"><path
         d="M 0,800 H 800 V 0 H 0 Z"
         transform="translate(-500.91802,-139.1484)"
         id="path560" /></clipPath><clipPath
       clipPathUnits="userSpaceOnUse"
       id="clipPath562"><path
         d="M 0,800 H 800 V 0 H 0 Z"
         transform="translate(-491.35161,-136.5459)"
         id="path562" /></clipPath><clipPath
       clipPathUnits="userSpaceOnUse"
       id="clipPath564"><path
         d="M 0,800 H 800 V 0 H 0 Z"
         transform="translate(-483.23831,-140.62991)"
         id="path564" /></clipPath><clipPath
       clipPathUnits="userSpaceOnUse"
       id="clipPath566"><path
         d="M 0,800 H 800 V 0 H 0 Z"
         transform="translate(-479.79491,-150.1973)"
         id="path566" /></clipPath><clipPath
       clipPathUnits="userSpaceOnUse"
       id="clipPath568"><path
         d="M 0,800 H 800 V 0 H 0 Z"
         transform="translate(-484.72071,-158.3105)"
         id="path568" /></clipPath><clipPath
       clipPathUnits="userSpaceOnUse"
       id="clipPath570"><path
         d="M 0,800 H 800 V 0 H 0 Z"
         transform="translate(-714.11912,-149.1504)"
         id="path570" /></clipPath><clipPath
       clipPathUnits="userSpaceOnUse"
       id="clipPath572"><path
         d="M 0,800 H 800 V 0 H 0 Z"
         transform="translate(-705.35742,-149.1504)"
         id="path572" /></clipPath><clipPath
       clipPathUnits="userSpaceOnUse"
       id="clipPath574"><path
         d="M 0,800 H 800 V 0 H 0 Z"
         transform="translate(-698.34182,-149.1797)"
         id="path574" /></clipPath><clipPath
       clipPathUnits="userSpaceOnUse"
       id="clipPath575"><path
         d="m 681.637,154.686 h 11.011 v -11.012 h -11.011 z"
         transform="translate(-692.64842,-149.1797)"
         id="path575" /></clipPath><clipPath
       clipPathUnits="userSpaceOnUse"
       id="clipPath577"><path
         d="M 0,800 H 800 V 0 H 0 Z"
         transform="matrix(1.3333333,0,0,-1.3333333,0,1066.6667)"
         id="path577" /></clipPath><clipPath
       clipPathUnits="userSpaceOnUse"
       id="clipPath578"><path
         d="m 685.34,150.981 h 3.603 v -3.605 h -3.603 z"
         transform="translate(-688.94342,-149.1797)"
         id="path578" /></clipPath><clipPath
       clipPathUnits="userSpaceOnUse"
       id="clipPath580"><path
         d="M 0,800 H 800 V 0 H 0 Z"
         transform="matrix(1.3333333,0,0,-1.3333333,0,1066.6667)"
         id="path580" /></clipPath><clipPath
       clipPathUnits="userSpaceOnUse"
       id="clipPath582"><path
         d="M 0,800 H 800 V 0 H 0 Z"
         transform="translate(-692.00201,-160.0674)"
         id="path582" /></clipPath><clipPath
       clipPathUnits="userSpaceOnUse"
       id="clipPath584"><path
         d="M 0,800 H 800 V 0 H 0 Z"
         transform="translate(-698.52542,-153.4473)"
         id="path584" /></clipPath><clipPath
       clipPathUnits="userSpaceOnUse"
       id="clipPath586"><path
         d="M 0,800 H 800 V 0 H 0 Z"
         transform="translate(-698.45702,-144.15431)"
         id="path586" /></clipPath><clipPath
       clipPathUnits="userSpaceOnUse"
       id="clipPath588"><path
         d="M 0,800 H 800 V 0 H 0 Z"
         transform="translate(-691.83791,-137.6279)"
         id="path588" /></clipPath><clipPath
       clipPathUnits="userSpaceOnUse"
       id="clipPath590"><path
         d="M 0,800 H 800 V 0 H 0 Z"
         transform="translate(-682.54301,-137.6973)"
         id="path590" /></clipPath><clipPath
       clipPathUnits="userSpaceOnUse"
       id="clipPath592"><path
         d="M 0,800 H 800 V 0 H 0 Z"
         transform="translate(-676.01951,-144.3164)"
         id="path592" /></clipPath><clipPath
       clipPathUnits="userSpaceOnUse"
       id="clipPath594"><path
         d="M 0,800 H 800 V 0 H 0 Z"
         transform="translate(-676.08791,-153.6123)"
         id="path594" /></clipPath><clipPath
       clipPathUnits="userSpaceOnUse"
       id="clipPath596"><path
         d="M 0,800 H 800 V 0 H 0 Z"
         transform="translate(-682.70702,-160.1357)"
         id="path596" /></clipPath><clipPath
       clipPathUnits="userSpaceOnUse"
       id="clipPath598"><path
         d="M 0,800 H 800 V 0 H 0 Z"
         transform="translate(-688.21871,-160.9121)"
         id="path598" /></clipPath><clipPath
       clipPathUnits="userSpaceOnUse"
       id="clipPath600"><path
         d="M 0,800 H 800 V 0 H 0 Z"
         transform="translate(-697.17191,-156.8271)"
         id="path600" /></clipPath><clipPath
       clipPathUnits="userSpaceOnUse"
       id="clipPath602"><path
         d="M 0,800 H 800 V 0 H 0 Z"
         transform="translate(-698.93162,-148.10351)"
         id="path602" /></clipPath><clipPath
       clipPathUnits="userSpaceOnUse"
       id="clipPath604"><path
         d="M 0,800 H 800 V 0 H 0 Z"
         transform="translate(-695.69141,-139.1484)"
         id="path604" /></clipPath><clipPath
       clipPathUnits="userSpaceOnUse"
       id="clipPath606"><path
         d="M 0,800 H 800 V 0 H 0 Z"
         transform="translate(-686.12302,-136.5459)"
         id="path606" /></clipPath><clipPath
       clipPathUnits="userSpaceOnUse"
       id="clipPath608"><path
         d="M 0,800 H 800 V 0 H 0 Z"
         transform="translate(-678.00982,-140.62991)"
         id="path608" /></clipPath><clipPath
       clipPathUnits="userSpaceOnUse"
       id="clipPath610"><path
         d="M 0,800 H 800 V 0 H 0 Z"
         transform="translate(-674.56642,-150.1973)"
         id="path610" /></clipPath><clipPath
       clipPathUnits="userSpaceOnUse"
       id="clipPath612"><path
         d="M 0,800 H 800 V 0 H 0 Z"
         transform="translate(-679.49222,-158.3105)"
         id="path612" /></clipPath><clipPath
       clipPathUnits="userSpaceOnUse"
       id="clipPath614"><path
         d="M 0,800 H 800 V 0 H 0 Z"
         transform="translate(-458.00981,-185.9961)"
         id="path614" /></clipPath><clipPath
       clipPathUnits="userSpaceOnUse"
       id="clipPath616"><path
         d="M 0,800 H 800 V 0 H 0 Z"
         transform="translate(-493.59571,-203.67581)"
         id="path616" /></clipPath><clipPath
       clipPathUnits="userSpaceOnUse"
       id="clipPath618"><path
         d="M 0,800 H 800 V 0 H 0 Z"
         transform="translate(-571.26562,-198.1865)"
         id="path618" /></clipPath><clipPath
       clipPathUnits="userSpaceOnUse"
       id="clipPath620"><path
         d="M 0,800 H 800 V 0 H 0 Z"
         transform="translate(-740.28712,-180.61721)"
         id="path620" /></clipPath><clipPath
       clipPathUnits="userSpaceOnUse"
       id="clipPath622"><path
         d="M 0,800 H 800 V 0 H 0 Z"
         transform="translate(-528.57232,-146.0225)"
         id="path622" /></clipPath></defs><g
     id="layer-MC1"
     transform="matrix(0.26458334,0,0,0.26458335,-155.95729,-200.98826)"><path
       id="path523"
       d="m 0,0 c -0.721,7.045 -24.564,21.315 -53.074,20.773 -28.512,-0.543 -44.555,8.281 -73.166,21.296 -26.901,12.239 -105.506,7.066 -119.053,4.718 -13.547,-2.348 -28.172,1.45 -24.559,-6.679 3.614,-8.128 -18.414,-13.717 -24.736,-16.608 -6.322,-2.89 5.086,-20.57 -0.695,-26.694 -5.781,-6.124 -5.942,-12.263 -3.381,-22.917 2.312,-9.625 17.478,-10.908 20.389,-11.066 -0.403,1.923 -0.616,3.915 -0.616,5.957 0,15.994 12.965,28.96 28.961,28.96 15.994,0 28.959,-12.966 28.959,-28.96 0,-2.916 -0.435,-5.727 -1.236,-8.382 -0.057,-0.567 -0.104,-0.893 -0.104,-0.893 l 138.495,-0.327 c -0.045,1.703 -0.016,3.354 0.072,4.96 -0.242,1.512 -0.375,3.061 -0.375,4.642 0,15.994 12.965,28.96 28.961,28.96 15.994,0 28.959,-12.966 28.959,-28.96 0,-3.354 -0.576,-6.572 -1.625,-9.568 2.547,0.257 18.547,2.045 26.015,7.191 C 6.32,-27.997 0.723,-7.045 0,0"
       style="fill:#ffffff;fill-opacity:1;fill-rule:nonzero;stroke:none"
       transform="matrix(1.3333333,0,0,-1.3333333,989.77347,826.1732)"
       clip-path="url(#clipPath524)" /><path
       id="path525"
       d="m 0,0 c 0,-14.885 -12.064,-26.947 -26.945,-26.947 -14.885,0 -26.95,12.062 -26.95,26.947 0,14.882 12.065,26.947 26.95,26.947 C -12.064,26.947 0,14.882 0,0"
       style="fill:#000000;fill-opacity:1;fill-rule:nonzero;stroke:none"
       transform="matrix(1.3333333,0,0,-1.3333333,692.46093,867.79947)"
       clip-path="url(#clipPath526)" /><path
       id="path527"
       d="m 0,0 c 0,-10.046 -8.143,-18.187 -18.186,-18.187 -10.046,0 -18.187,8.141 -18.187,18.187 0,10.043 8.141,18.187 18.187,18.187 C -8.143,18.187 0,10.043 0,0"
       style="fill:#fafcfb;fill-opacity:1;fill-rule:nonzero;stroke:none"
       transform="matrix(1.3333333,0,0,-1.3333333,680.7812,867.79947)"
       clip-path="url(#clipPath528)" /><path
       id="path529"
       d="m 0,0 c 0,-6.187 -5.016,-11.201 -11.201,-11.201 -6.188,0 -11.201,5.014 -11.201,11.201 0,6.187 5.013,11.199 11.201,11.199 C -5.016,11.199 0,6.187 0,0"
       style="fill:#bdbdbd;fill-opacity:1;fill-rule:nonzero;stroke:none"
       transform="matrix(1.3333333,0,0,-1.3333333,671.42707,867.7604)"
       clip-path="url(#clipPath530)" /><g
       opacity="0.199997"
       id="g532"
       clip-path="url(#clipPath533)"><path
         d="m 0,0 c 0,-3.041 -2.465,-5.506 -5.506,-5.506 -3.039,0 -5.504,2.465 -5.504,5.506 0,3.04 2.465,5.506 5.504,5.506 C -2.465,5.506 0,3.04 0,0"
         style="fill:#bdbdbd;fill-opacity:1;fill-rule:nonzero;stroke:none"
         transform="matrix(1.3333333,0,0,-1.3333333,663.83333,867.7604)"
         clip-path="url(#clipPath531)"
         id="path532" /></g><g
       opacity="0.199997"
       id="g535"
       clip-path="url(#clipPath536)"><path
         d="m 0,0 c 0,-0.996 -0.809,-1.804 -1.803,-1.804 -0.996,0 -1.802,0.808 -1.802,1.804 0,0.996 0.806,1.802 1.802,1.802 C -0.809,1.802 0,0.996 0,0"
         style="fill:#bdbdbd;fill-opacity:1;fill-rule:nonzero;stroke:none"
         transform="matrix(1.3333333,0,0,-1.3333333,658.89587,867.7604)"
         clip-path="url(#clipPath534)"
         id="path535" /></g><path
       id="path537"
       d="m 0,0 c 0,-2.651 -2.15,-4.802 -4.803,-4.802 -2.65,0 -4.799,2.151 -4.799,4.802 0,2.653 2.149,4.802 4.799,4.802 C -2.15,4.802 0,2.653 0,0"
       style="fill:#bdbdbd;fill-opacity:1;fill-rule:nonzero;stroke:none"
       transform="matrix(1.3333333,0,0,-1.3333333,662.974,853.24347)"
       clip-path="url(#clipPath538)" /><path
       id="path539"
       d="M 0,0 C -1.877,-1.874 -4.914,-1.874 -6.789,0 -8.666,1.876 -8.666,4.914 -6.791,6.791 -4.914,8.667 -1.875,8.667 0,6.791 1.875,4.914 1.875,1.876 0,0"
       style="fill:#bdbdbd;fill-opacity:1;fill-rule:nonzero;stroke:none"
       transform="matrix(1.3333333,0,0,-1.3333333,671.67187,862.07027)"
       clip-path="url(#clipPath540)" /><path
       id="path541"
       d="m 0,0 c -2.65,0 -4.801,2.148 -4.801,4.801 0,2.651 2.151,4.801 4.801,4.801 2.652,0 4.803,-2.15 4.803,-4.801 C 4.803,2.147 2.652,0 0,0"
       style="fill:#bdbdbd;fill-opacity:1;fill-rule:nonzero;stroke:none"
       transform="matrix(1.3333333,0,0,-1.3333333,671.58067,874.46093)"
       clip-path="url(#clipPath542)" /><path
       id="path543"
       d="m 0,0 c -1.875,1.876 -1.875,4.916 0,6.791 1.875,1.875 4.916,1.877 6.791,0 C 8.668,4.916 8.666,1.875 6.791,0 4.916,-1.875 1.877,-1.875 0,0"
       style="fill:#bdbdbd;fill-opacity:1;fill-rule:nonzero;stroke:none"
       transform="matrix(1.3333333,0,0,-1.3333333,662.75267,883.1628)"
       clip-path="url(#clipPath544)" /><path
       id="path545"
       d="m 0,0 c 0,2.651 2.152,4.802 4.803,4.802 2.65,0 4.802,-2.15 4.802,-4.803 0,-2.651 -2.152,-4.803 -4.802,-4.803 C 2.15,-4.803 0,-2.652 0,0"
       style="fill:#bdbdbd;fill-opacity:1;fill-rule:nonzero;stroke:none"
       transform="matrix(1.3333333,0,0,-1.3333333,650.35933,883.07027)"
       clip-path="url(#clipPath546)" /><path
       id="path547"
       d="m 0,0 c 1.875,1.876 4.916,1.876 6.791,0.002 1.873,-1.877 1.875,-4.916 0,-6.792 -1.877,-1.875 -4.916,-1.875 -6.793,0 C -1.875,-4.914 -1.877,-1.875 0,0"
       style="fill:#bdbdbd;fill-opacity:1;fill-rule:nonzero;stroke:none"
       transform="matrix(1.3333333,0,0,-1.3333333,641.66147,874.2448)"
       clip-path="url(#clipPath548)" /><path
       id="path549"
       d="M 0,0 C 2.65,0 4.801,-2.149 4.801,-4.803 4.799,-7.453 2.652,-9.604 -0.002,-9.604 -2.654,-9.603 -4.805,-7.453 -4.805,-4.803 -4.803,-2.149 -2.654,0.001 0,0"
       style="fill:#bdbdbd;fill-opacity:1;fill-rule:nonzero;stroke:none"
       transform="matrix(1.3333333,0,0,-1.3333333,641.7552,861.85027)"
       clip-path="url(#clipPath550)" /><path
       id="path551"
       d="m 0,0 c 1.875,-1.874 1.875,-4.915 0.002,-6.79 -1.879,-1.874 -4.918,-1.877 -6.793,0 -1.875,1.875 -1.875,4.918 0,6.792 C -4.916,1.875 -1.877,1.876 0,0"
       style="fill:#bdbdbd;fill-opacity:1;fill-rule:nonzero;stroke:none"
       transform="matrix(1.3333333,0,0,-1.3333333,650.58067,853.1524)"
       clip-path="url(#clipPath552)" /><path
       id="path553"
       d="m 0,0 c 0,-0.566 -0.455,-1.019 -1.02,-1.019 -0.562,0 -1.017,0.453 -1.017,1.019 0,0.561 0.455,1.018 1.017,1.018 C -0.455,1.018 0,0.561 0,0"
       style="fill:#000000;fill-opacity:1;fill-rule:nonzero;stroke:none"
       transform="matrix(1.3333333,0,0,-1.3333333,657.92973,852.1172)"
       clip-path="url(#clipPath554)" /><path
       id="path555"
       d="m 0,0 c -0.398,-0.397 -1.043,-0.397 -1.439,-0.001 -0.399,0.399 -0.399,1.042 0,1.44 0.396,0.398 1.041,0.398 1.439,0 C 0.396,1.041 0.396,0.398 0,0"
       style="fill:#000000;fill-opacity:1;fill-rule:nonzero;stroke:none"
       transform="matrix(1.3333333,0,0,-1.3333333,669.8672,857.56387)"
       clip-path="url(#clipPath556)" /><path
       id="path557"
       d="m 0,0 c -0.562,0 -1.018,0.455 -1.018,1.016 0,0.564 0.454,1.02 1.018,1.02 0.561,0 1.016,-0.456 1.018,-1.02 C 1.018,0.455 0.561,0 0,0"
       style="fill:#000000;fill-opacity:1;fill-rule:nonzero;stroke:none"
       transform="matrix(1.3333333,0,0,-1.3333333,672.2136,869.19533)"
       clip-path="url(#clipPath558)" /><path
       id="path559"
       d="m 0,0 c -0.398,0.396 -0.398,1.042 0,1.439 0.396,0.4 1.043,0.4 1.439,0 C 1.838,1.042 1.838,0.398 1.439,0 1.043,-0.4 0.398,-0.397 0,0"
       style="fill:#000000;fill-opacity:1;fill-rule:nonzero;stroke:none"
       transform="matrix(1.3333333,0,0,-1.3333333,667.89067,881.13547)"
       clip-path="url(#clipPath560)" /><path
       id="path561"
       d="m 0,0 c 0,0.563 0.455,1.021 1.018,1.021 0.562,0 1.019,-0.457 1.019,-1.02 0,-0.562 -0.457,-1.018 -1.019,-1.018 C 0.455,-1.018 0,-0.561 0,0"
       style="fill:#000000;fill-opacity:1;fill-rule:nonzero;stroke:none"
       transform="matrix(1.3333333,0,0,-1.3333333,655.13547,884.60547)"
       clip-path="url(#clipPath562)" /><path
       id="path563"
       d="m 0,0 c 0.398,0.397 1.043,0.399 1.441,0 0.397,-0.396 0.397,-1.041 0,-1.438 -0.398,-0.397 -1.043,-0.4 -1.441,0 -0.398,0.397 -0.396,1.042 0,1.438"
       style="fill:#000000;fill-opacity:1;fill-rule:nonzero;stroke:none"
       transform="matrix(1.3333333,0,0,-1.3333333,644.31773,879.16013)"
       clip-path="url(#clipPath564)" /><path
       id="path565"
       d="m 0,0 c 0.564,0 1.021,-0.453 1.021,-1.018 0,-0.562 -0.457,-1.018 -1.019,-1.018 -0.563,0 -1.02,0.456 -1.02,1.018 C -1.02,-0.453 -0.561,0.002 0,0"
       style="fill:#000000;fill-opacity:1;fill-rule:nonzero;stroke:none"
       transform="matrix(1.3333333,0,0,-1.3333333,639.72653,866.4036)"
       clip-path="url(#clipPath566)" /><path
       id="path567"
       d="m 0,0 c 0.396,-0.399 0.4,-1.043 0.002,-1.441 -0.398,-0.399 -1.043,-0.399 -1.441,0 -0.397,0.397 -0.397,1.042 0,1.441 0.398,0.398 1.043,0.397 1.439,0"
       style="fill:#000000;fill-opacity:1;fill-rule:nonzero;stroke:none"
       transform="matrix(1.3333333,0,0,-1.3333333,646.29427,855.586)"
       clip-path="url(#clipPath568)" /><path
       id="path569"
       d="m 0,0 c 0,-14.885 -12.064,-26.947 -26.947,-26.947 -14.883,0 -26.948,12.062 -26.948,26.947 0,14.882 12.065,26.947 26.948,26.947 C -12.064,26.947 0,14.882 0,0"
       style="fill:#000000;fill-opacity:1;fill-rule:nonzero;stroke:none"
       transform="matrix(1.3333333,0,0,-1.3333333,952.1588,867.79947)"
       clip-path="url(#clipPath570)" /><path
       id="path571"
       d="m 0,0 c 0,-10.046 -8.143,-18.187 -18.186,-18.187 -10.044,0 -18.187,8.141 -18.187,18.187 0,10.043 8.143,18.187 18.187,18.187 C -8.143,18.187 0,10.043 0,0"
       style="fill:#fafcfb;fill-opacity:1;fill-rule:nonzero;stroke:none"
       transform="matrix(1.3333333,0,0,-1.3333333,940.47653,867.79947)"
       clip-path="url(#clipPath572)" /><path
       id="path573"
       d="m 0,0 c 0,-6.187 -5.014,-11.201 -11.201,-11.201 -6.186,0 -11.199,5.014 -11.199,11.201 0,6.187 5.013,11.199 11.199,11.199 C -5.014,11.199 0,6.187 0,0"
       style="fill:#bdbdbd;fill-opacity:1;fill-rule:nonzero;stroke:none"
       transform="matrix(1.3333333,0,0,-1.3333333,931.1224,867.7604)"
       clip-path="url(#clipPath574)" /><g
       opacity="0.199997"
       id="g576"
       clip-path="url(#clipPath577)"><path
         d="m 0,0 c 0,-3.041 -2.467,-5.506 -5.508,-5.506 -3.039,0 -5.504,2.465 -5.504,5.506 0,3.04 2.465,5.506 5.504,5.506 C -2.467,5.506 0,3.04 0,0"
         style="fill:#bdbdbd;fill-opacity:1;fill-rule:nonzero;stroke:none"
         transform="matrix(1.3333333,0,0,-1.3333333,923.5312,867.7604)"
         clip-path="url(#clipPath575)"
         id="path576" /></g><g
       opacity="0.199997"
       id="g579"
       clip-path="url(#clipPath580)"><path
         d="m 0,0 c 0,-0.996 -0.807,-1.804 -1.803,-1.804 -0.994,0 -1.801,0.808 -1.801,1.804 0,0.996 0.807,1.802 1.801,1.802 C -0.807,1.802 0,0.996 0,0"
         style="fill:#bdbdbd;fill-opacity:1;fill-rule:nonzero;stroke:none"
         transform="matrix(1.3333333,0,0,-1.3333333,918.5912,867.7604)"
         clip-path="url(#clipPath578)"
         id="path579" /></g><path
       id="path581"
       d="m 0,0 c 0,-2.651 -2.148,-4.802 -4.801,-4.802 -2.65,0 -4.801,2.151 -4.801,4.802 0,2.653 2.151,4.802 4.801,4.802 C -2.148,4.802 0,2.653 0,0"
       style="fill:#bdbdbd;fill-opacity:1;fill-rule:nonzero;stroke:none"
       transform="matrix(1.3333333,0,0,-1.3333333,922.66933,853.24347)"
       clip-path="url(#clipPath582)" /><path
       id="path583"
       d="m 0,0 c -1.875,-1.874 -4.914,-1.874 -6.789,0 -1.877,1.876 -1.877,4.914 0,6.791 1.875,1.876 4.916,1.876 6.791,0 C 1.877,4.914 1.877,1.876 0,0"
       style="fill:#bdbdbd;fill-opacity:1;fill-rule:nonzero;stroke:none"
       transform="matrix(1.3333333,0,0,-1.3333333,931.3672,862.07027)"
       clip-path="url(#clipPath584)" /><path
       id="path585"
       d="m 0,0 c -2.65,0 -4.799,2.148 -4.799,4.801 0,2.651 2.149,4.801 4.799,4.801 2.652,0 4.803,-2.15 4.803,-4.801 C 4.803,2.147 2.652,0 0,0"
       style="fill:#bdbdbd;fill-opacity:1;fill-rule:nonzero;stroke:none"
       transform="matrix(1.3333333,0,0,-1.3333333,931.276,874.46093)"
       clip-path="url(#clipPath586)" /><path
       id="path587"
       d="m 0,0 c -1.875,1.876 -1.875,4.916 0,6.791 1.875,1.875 4.914,1.877 6.791,0 C 8.666,4.916 8.664,1.875 6.791,0 4.914,-1.875 1.875,-1.875 0,0"
       style="fill:#bdbdbd;fill-opacity:1;fill-rule:nonzero;stroke:none"
       transform="matrix(1.3333333,0,0,-1.3333333,922.45053,883.1628)"
       clip-path="url(#clipPath588)" /><path
       id="path589"
       d="m 0,0 c 0,2.651 2.15,4.802 4.801,4.802 2.65,0 4.803,-2.15 4.803,-4.803 0,-2.651 -2.153,-4.803 -4.803,-4.803 C 2.148,-4.803 0,-2.652 0,0"
       style="fill:#bdbdbd;fill-opacity:1;fill-rule:nonzero;stroke:none"
       transform="matrix(1.3333333,0,0,-1.3333333,910.05733,883.07027)"
       clip-path="url(#clipPath590)" /><path
       id="path591"
       d="m 0,0 c 1.875,1.876 4.916,1.876 6.791,0.002 1.873,-1.877 1.875,-4.916 0,-6.792 -1.877,-1.875 -4.918,-1.875 -6.793,0 C -1.875,-4.914 -1.877,-1.875 0,0"
       style="fill:#bdbdbd;fill-opacity:1;fill-rule:nonzero;stroke:none"
       transform="matrix(1.3333333,0,0,-1.3333333,901.35933,874.2448)"
       clip-path="url(#clipPath592)" /><path
       id="path593"
       d="M 0,0 C 2.65,0 4.801,-2.149 4.801,-4.803 4.799,-7.453 2.652,-9.604 0,-9.604 -2.652,-9.603 -4.805,-7.453 -4.805,-4.803 -4.803,-2.149 -2.652,0.001 0,0"
       style="fill:#bdbdbd;fill-opacity:1;fill-rule:nonzero;stroke:none"
       transform="matrix(1.3333333,0,0,-1.3333333,901.45053,861.85027)"
       clip-path="url(#clipPath594)" /><path
       id="path595"
       d="m 0,0 c 1.875,-1.874 1.875,-4.915 0.002,-6.79 -1.877,-1.874 -4.918,-1.877 -6.793,0 -1.875,1.875 -1.875,4.918 0,6.792 C -4.914,1.875 -1.875,1.876 0,0"
       style="fill:#bdbdbd;fill-opacity:1;fill-rule:nonzero;stroke:none"
       transform="matrix(1.3333333,0,0,-1.3333333,910.276,853.1524)"
       clip-path="url(#clipPath596)" /><path
       id="path597"
       d="m 0,0 c 0,-0.566 -0.455,-1.019 -1.018,-1.019 -0.562,0 -1.019,0.453 -1.019,1.019 0,0.561 0.457,1.018 1.019,1.018 C -0.455,1.018 0,0.561 0,0"
       style="fill:#000000;fill-opacity:1;fill-rule:nonzero;stroke:none"
       transform="matrix(1.3333333,0,0,-1.3333333,917.62493,852.1172)"
       clip-path="url(#clipPath598)" /><path
       id="path599"
       d="m 0,0 c -0.396,-0.397 -1.043,-0.397 -1.439,-0.001 -0.399,0.399 -0.399,1.042 0,1.44 0.396,0.398 1.043,0.398 1.439,0 C 0.398,1.041 0.398,0.398 0,0"
       style="fill:#000000;fill-opacity:1;fill-rule:nonzero;stroke:none"
       transform="matrix(1.3333333,0,0,-1.3333333,929.56253,857.56387)"
       clip-path="url(#clipPath600)" /><path
       id="path601"
       d="m 0,0 c -0.562,0 -1.018,0.455 -1.018,1.016 0,0.564 0.454,1.02 1.018,1.02 0.562,0 1.018,-0.456 1.02,-1.02 C 1.02,0.455 0.562,0 0,0"
       style="fill:#000000;fill-opacity:1;fill-rule:nonzero;stroke:none"
       transform="matrix(1.3333333,0,0,-1.3333333,931.9088,869.19533)"
       clip-path="url(#clipPath602)" /><path
       id="path603"
       d="m 0,0 c -0.398,0.396 -0.398,1.042 0,1.439 0.396,0.4 1.041,0.4 1.439,0 C 1.836,1.042 1.836,0.398 1.439,0 1.041,-0.4 0.396,-0.397 0,0"
       style="fill:#000000;fill-opacity:1;fill-rule:nonzero;stroke:none"
       transform="matrix(1.3333333,0,0,-1.3333333,927.58853,881.13547)"
       clip-path="url(#clipPath604)" /><path
       id="path605"
       d="m 0,0 c 0,0.563 0.455,1.021 1.018,1.021 0.562,0 1.019,-0.457 1.019,-1.02 0,-0.562 -0.457,-1.018 -1.019,-1.018 C 0.455,-1.018 0,-0.561 0,0"
       style="fill:#000000;fill-opacity:1;fill-rule:nonzero;stroke:none"
       transform="matrix(1.3333333,0,0,-1.3333333,914.83067,884.60547)"
       clip-path="url(#clipPath606)" /><path
       id="path607"
       d="M 0,0 C 0.398,0.397 1.043,0.399 1.443,0 1.84,-0.396 1.84,-1.041 1.443,-1.438 1.045,-1.835 0.398,-1.838 0,-1.438 -0.398,-1.041 -0.396,-0.396 0,0"
       style="fill:#000000;fill-opacity:1;fill-rule:nonzero;stroke:none"
       transform="matrix(1.3333333,0,0,-1.3333333,904.01307,879.16013)"
       clip-path="url(#clipPath608)" /><path
       id="path609"
       d="m 0,0 c 0.564,0 1.021,-0.453 1.021,-1.018 0,-0.562 -0.457,-1.018 -1.019,-1.018 -0.561,0 -1.018,0.456 -1.018,1.018 C -1.018,-0.453 -0.559,0.002 0,0"
       style="fill:#000000;fill-opacity:1;fill-rule:nonzero;stroke:none"
       transform="matrix(1.3333333,0,0,-1.3333333,899.42187,866.4036)"
       clip-path="url(#clipPath610)" /><path
       id="path611"
       d="m 0,0 c 0.396,-0.399 0.4,-1.043 0.002,-1.441 -0.398,-0.399 -1.043,-0.399 -1.441,0 -0.397,0.397 -0.397,1.042 0,1.441 0.398,0.398 1.043,0.397 1.439,0"
       style="fill:#000000;fill-opacity:1;fill-rule:nonzero;stroke:none"
       transform="matrix(1.3333333,0,0,-1.3333333,905.9896,855.586)"
       clip-path="url(#clipPath612)" /><path
       id="path613"
       d="m 0,0 c 6.865,1.782 19.871,6.118 12.465,7.382 -7.406,1.264 -24.596,4.808 -24.596,4.808 0,0 1.258,-12.347 2.541,-12.19 1.281,0.157 2.727,-1.782 9.59,0"
       style="fill:#ee3e38;fill-opacity:1;fill-rule:nonzero;stroke:none"
       transform="matrix(1.3333333,0,0,-1.3333333,610.67973,818.67187)"
       clip-path="url(#clipPath614)" /><path
       id="path615"
       d="m 0,0 c 0,0 5.781,4.516 4.154,6.683 -1.625,2.168 -7.406,6.322 -7.406,6.322 0,0 41.365,8.308 74.24,7.586 l 4.877,-26.08 z"
       style="fill:#1a1a1a;fill-opacity:1;fill-rule:nonzero;stroke:none"
       transform="matrix(1.3333333,0,0,-1.3333333,658.1276,795.09893)"
       clip-path="url(#clipPath616)" /><path
       id="path617"
       d="m 0,0 -5.238,26.125 c 0,0 34.254,0.084 54.191,-10.882 C 67.105,5.259 85.617,-2.819 75.504,-2.639 65.389,-2.459 0,0 0,0"
       style="fill:#1a1a1a;fill-opacity:1;fill-rule:nonzero;stroke:none"
       transform="matrix(1.3333333,0,0,-1.3333333,761.68747,802.418)"
       clip-path="url(#clipPath618)" /><path
       id="path619"
       d="M 0,0 C 0,0 -37.449,8.99 -32.809,5.379 -28.17,1.767 -12.371,-6.738 -7.18,-5.192 -1.988,-3.646 0,0 0,0"
       style="fill:#b3b3b3;fill-opacity:1;fill-rule:nonzero;stroke:none"
       transform="matrix(1.3333333,0,0,-1.3333333,987.04947,825.84373)"
       clip-path="url(#clipPath620)" /><path
       id="path621"
       d="M 0,0 C 0,0 102.123,-2.909 122.664,-1.503"
       style="fill:#1a1a1a;fill-opacity:1;fill-rule:nonzero;stroke:none"
       transform="matrix(1.3333333,0,0,-1.3333333,704.76307,871.97)"
       clip-path="url(#clipPath622)" /></g></svg>
