<?xml version="1.0" encoding="UTF-8" standalone="no"?>
<!-- Created with Inkscape (http://www.inkscape.org/) -->

<svg
   width="100mm"
   height="100mm"
   viewBox="0 0 99.999999 100"
   version="1.1"
   id="svg1"
   xml:space="preserve"
   sodipodi:docname="7.svg"
   inkscape:version="1.4 (e7c3feb100, 2024-10-09)"
   xmlns:inkscape="http://www.inkscape.org/namespaces/inkscape"
   xmlns:sodipodi="http://sodipodi.sourceforge.net/DTD/sodipodi-0.dtd"
   xmlns="http://www.w3.org/2000/svg"
   xmlns:svg="http://www.w3.org/2000/svg"><sodipodi:namedview
     id="namedview1"
     pagecolor="#505050"
     bordercolor="#eeeeee"
     borderopacity="1"
     inkscape:showpageshadow="0"
     inkscape:pageopacity="0"
     inkscape:pagecheckerboard="0"
     inkscape:deskcolor="#505050"
     inkscape:document-units="mm"
     inkscape:zoom="1.4402371"
     inkscape:cx="73.598992"
     inkscape:cy="216.631"
     inkscape:window-width="1241"
     inkscape:window-height="755"
     inkscape:window-x="26"
     inkscape:window-y="23"
     inkscape:window-maximized="0"
     inkscape:current-layer="g514" /><defs
     id="defs1" /><g
     id="layer-MC1"
     transform="matrix(0.26458334,0,0,0.26458335,141.70084,53.094802)"><g
       id="g514"
       transform="translate(-704.49609,-425.99999)"><g
         id="_x39_"
         transform="matrix(3.2598344,0,0,3.2598344,-378.48431,-459.44417)">
	<g
   id="g285"
   style="fill:#000000">
		<g
   id="g282"
   style="fill:#000000">
			<path
   style="fill:#000000"
   d="m 265.438,275.398 c -9.759,-0.136 -17.781,7.665 -17.917,17.425 -0.136,9.759 7.665,17.781 17.425,17.917 9.759,0.136 17.781,-7.665 17.917,-17.425 0.136,-9.759 -7.665,-17.781 -17.425,-17.917 z m -0.403,28.937 c -6.222,-0.087 -11.196,-5.201 -11.109,-11.423 0.087,-6.222 5.201,-11.196 11.423,-11.109 6.222,0.087 11.196,5.201 11.109,11.423 -0.087,6.222 -5.201,11.195 -11.423,11.109 z"
   id="path281-5" />
		</g>
		<g
   id="g283"
   style="fill:#000000">
			<path
   style="fill:#000000"
   d="m 265.403,277.912 c -8.371,-0.117 -15.252,6.575 -15.368,14.946 -0.117,8.371 6.575,15.252 14.946,15.368 8.371,0.117 15.252,-6.575 15.368,-14.946 0.117,-8.371 -6.575,-15.252 -14.946,-15.368 z m -0.357,25.659 c -5.8,-0.081 -10.436,-4.848 -10.356,-10.648 0.081,-5.8 4.848,-10.436 10.648,-10.355 5.8,0.081 10.436,4.848 10.355,10.648 -0.08,5.799 -4.847,10.435 -10.647,10.355 z"
   id="path282-9" />
		</g>
		<g
   id="g284"
   style="fill:#000000">
			<path
   style="fill:#000000"
   d="m 265.267,287.717 c -2.956,-0.041 -5.385,2.322 -5.427,5.277 -0.041,2.956 2.322,5.385 5.277,5.427 2.956,0.041 5.385,-2.322 5.427,-5.277 0.041,-2.957 -2.321,-5.386 -5.277,-5.427 z"
   id="path283-4" />
		</g>
	</g>
	<g
   id="g289"
   style="fill:#000000">
		<g
   id="g286"
   style="fill:#000000">
			<path
   style="fill:#000000"
   d="m 189.678,275.308 c -9.722,-0.135 -17.713,7.636 -17.848,17.358 -0.135,9.722 7.636,17.713 17.358,17.848 9.722,0.135 17.713,-7.636 17.848,-17.358 0.135,-9.722 -7.637,-17.712 -17.358,-17.848 z m -0.402,28.826 c -6.198,-0.086 -11.153,-5.181 -11.066,-11.379 0.086,-6.198 5.181,-11.153 11.379,-11.066 6.198,0.086 11.153,5.181 11.066,11.379 -0.087,6.198 -5.181,11.152 -11.379,11.066 z"
   id="path285-6" />
		</g>
		<g
   id="g287"
   style="fill:#000000">
			<path
   style="fill:#000000"
   d="m 189.635,278.332 c -8.052,-0.112 -14.67,6.324 -14.782,14.376 -0.112,8.052 6.324,14.67 14.376,14.782 8.052,0.112 14.67,-6.324 14.782,-14.376 0.112,-8.051 -6.324,-14.67 -14.376,-14.782 z m -0.332,23.874 c -5.133,-0.072 -9.237,-4.291 -9.165,-9.424 0.072,-5.133 4.291,-9.237 9.424,-9.165 5.133,0.072 9.237,4.291 9.165,9.424 -0.072,5.133 -4.291,9.236 -9.424,9.165 z"
   id="path286-9" />
		</g>
		<g
   id="g288"
   style="fill:#000000">
			<path
   style="fill:#000000"
   d="m 189.525,286.392 c -3.688,-0.051 -6.718,2.896 -6.77,6.584 -0.051,3.688 2.896,6.719 6.584,6.77 3.688,0.051 6.718,-2.896 6.77,-6.584 0.051,-3.688 -2.896,-6.719 -6.584,-6.77 z"
   id="path287-2" />
		</g>
	</g>
	<g
   id="g290">
		<path
   style="fill:#3d3231"
   d="m 210.767,296.763 h -20.963 c -2.127,0 -3.852,-1.724 -3.852,-3.852 v 0 c 0,-2.127 1.724,-3.852 3.852,-3.852 h 17.793 c 2.127,0 3.852,1.724 3.852,3.852 v 0 c -0.001,2.127 -0.682,3.852 -0.682,3.852 z"
   id="path289-2" />
	</g>
	<g
   id="g291"
   style="fill:#000000">
		<path
   style="fill:#000000"
   d="m 169.76,284.578 v 0 c 0.407,0.242 0.934,0.108 1.176,-0.299 l 7.684,-12.927 c 0.242,-0.407 0.108,-0.934 -0.299,-1.176 v 0 c -0.407,-0.242 -0.934,-0.108 -1.176,0.299 l -7.684,12.927 c -0.243,0.407 -0.109,0.934 0.299,1.176 z"
   id="path290-4" />
	</g>
	<g
   id="g292">
		<path
   style="fill:#ffffff"
   d="m 275.587,278.228 c 0.375,0.011 0.566,-0.432 0.306,-0.703 -6.601,-6.884 -20.1,-5 -24.975,2.672 -0.001,0.003 0.008,0.015 0.008,0.037 -0.009,0.89 2.003,1.996 3.597,2.674 l 9.21,3.822 c -1.643,-6.497 3.073,-8.757 11.854,-8.502 z"
   id="path291-7" />
	</g>
	<g
   id="g293">
		<path
   style="fill:#3d3231"
   d="m 266.957,292.232 c -1.74,-16.854 -5.567,-22.687 -12.836,-39.386 -0.343,-1.02 -1.448,-1.567 -2.468,-1.224 -1.019,0.344 -1.567,1.449 -1.224,2.468 l 12.836,39.386 c 0.344,1.02 1.448,1.567 2.468,1.224 1.019,-0.343 1.567,-1.448 1.224,-2.468 z"
   id="path292-7" />
	</g>
	<g
   id="g294"
   style="fill:#ffffff">
		<path
   style="fill:#ffffff"
   d="m 263.845,258.838 -14.949,-18.681 1.075,8.27 c -1.326,-0.018 -6.803,2.997 -6.241,4.198 l -1.548,10.538 c -0.076,0.516 0.158,1.028 0.597,1.309 l 4.21,2.691 c -5.624,4.123 -10.691,10.581 -12.891,13.578 -0.735,1.002 -0.96,2.287 -0.6,3.476 l 2.436,8.049 -8.576,-0.12 c -0.221,-0.003 -0.439,-0.018 -0.654,-0.044 -3.815,-0.46 -6.008,-4.626 -4.544,-8.179 l 5.25,-12.737 c 0.918,-2.228 -0.699,-4.681 -3.109,-4.714 l -42.155,-0.587 c -3.334,-0.047 -6.1,2.643 -6.146,5.977 0,0 31.418,29.221 49.055,29.333 l 7.78,0.049 c 6.048,0.084 8.857,-4.245 11.771,-8.341 -0.754,-9.019 7.572,-17.237 19.18,-25.166 2.305,-3.488 2.331,-5.796 0.059,-8.899 z"
   id="path293-5" />
	</g>
	<g
   id="g295">
		<path
   style="fill:#ed9f04"
   d="m 242.194,263.085 -0.011,0.078 c -0.076,0.516 0.158,1.028 0.597,1.309 l 3.968,2.536 c 3.926,-0.583 7.987,-1.418 11.219,-0.708 0.859,-1.449 -15.773,-3.215 -15.773,-3.215 z"
   id="path294-4" />
	</g>
	<g
   id="g296">
		<path
   style="fill:#a9c7bf"
   d="m 263.845,258.838 -4.972,-6.213 h -8.446 l 11.773,10.188 c 0.629,0.544 1.432,0.844 2.264,0.844 h 1.012 c 0.167,-1.588 -0.358,-3.08 -1.631,-4.819 z"
   id="path295-8" />
	</g>
	<g
   id="g297">
		<path
   style="fill:#ffffff"
   d="m 235.935,292.265 -8.576,-0.12 c -0.221,-0.003 -0.438,-0.044 -0.654,-0.044 -20.895,0 -50.703,-20.241 -50.703,-20.241 0,0 31.418,29.221 49.055,29.333 l 7.78,0.049 c 6.048,0.084 8.857,-4.245 11.771,-8.341 -0.754,-9.019 7.572,-17.237 19.18,-25.166 -10.419,2.966 -24.755,15.061 -27.853,24.53 z"
   id="path296-1" />
	</g>
	<g
   id="g298"
   style="fill:#cccccc">
		<path
   style="fill:#cccccc"
   d="m 192.374,285.346 c 3.56,3.02 -2.36,-1.618 3.212,2.335 l 26.492,7.532 c -0.294,-1.205 -1.933,-6.649 0.083,-11.29 l 2.526,-6.127 c 0,0 -1.606,1.078 -3.919,2.039 0,0 1.257,1.623 0.426,2.904 -1.3,2.001 -10.872,2.024 -28.82,2.607 z"
   id="path297-2" />
	</g>
	<g
   id="g299">
		<path
   style="fill:#3d3231"
   d="m 235.935,292.265 -8.576,-0.12 c -0.188,-0.003 -0.373,-0.014 -0.556,-0.033 -3.731,-0.389 -5.956,-4.32 -4.768,-7.823 l -2.497,5.649 c -1.114,2.521 0.707,5.36 3.463,5.399 l 5.833,0.081 c 2.713,0.038 5.308,-1.114 7.101,-3.153 z"
   id="path298-8" />
	</g>
	<g
   id="g300"
   style="fill:#cccccc">
		<path
   style="fill:#cccccc"
   d="m 224.154,264.98 -12.32,-0.172 c -2.207,-0.031 -4.201,-1.324 -5.129,-3.327 l -0.322,-0.695 -16.496,0.332 c -2.222,0.045 -4.004,2.284 -3.979,5.001 0.008,0.906 0.615,1.628 1.355,1.613 l 15.164,-0.306 20.706,14.009 4.209,-9.85 c 0.873,0.012 1.635,-0.663 1.661,-1.536 0.083,-2.753 -2.105,-5.031 -4.849,-5.069 z"
   id="path299-9" />
	</g>
	<g
   id="g304">
		<g
   id="g301">
			<path
   style="fill:#ae5e00"
   d="m 245.274,276.992 v 0 c 0.361,-0.446 0.292,-1.099 -0.154,-1.46 l -0.936,-0.758 c -0.446,-0.361 -1.099,-0.292 -1.46,0.154 v 0 c -0.361,0.446 -0.292,1.099 0.154,1.46 l 0.936,0.758 c 0.446,0.361 1.099,0.292 1.46,-0.154 z"
   id="path300-3" />
		</g>
		<g
   id="g302">
			<path
   style="fill:#ae5e00"
   d="m 242.364,280.586 v 0 c 0.361,-0.445 0.292,-1.099 -0.154,-1.46 l -0.936,-0.758 c -0.446,-0.361 -1.099,-0.292 -1.46,0.154 v 0 c -0.361,0.445 -0.292,1.099 0.154,1.46 l 0.936,0.758 c 0.446,0.36 1.1,0.292 1.46,-0.154 z"
   id="path301-6" />
		</g>
		<g
   id="g303">
			<path
   style="fill:#ae5e00"
   d="m 239.589,284.015 v 0 c 0.361,-0.445 0.292,-1.099 -0.154,-1.46 l -0.936,-0.758 c -0.445,-0.361 -1.099,-0.292 -1.46,0.154 v 0 c -0.361,0.446 -0.292,1.099 0.154,1.46 l 0.936,0.758 c 0.445,0.36 1.099,0.291 1.46,-0.154 z"
   id="path302-8" />
		</g>
	</g>
	<g
   id="g305"
   style="fill:#000000">
		<path
   style="fill:#000000"
   d="m 243.974,232.886 v 0 c 1.232,-0.556 1.78,-2.006 1.224,-3.238 l -1.3,-2.88 c -0.556,-1.232 -2.006,-1.78 -3.238,-1.224 v 0 z"
   id="path304-0" />
	</g>
	<g
   id="g306"
   style="fill:#000000">
		<path
   style="fill:#000000"
   d="m 248.939,243.031 c -0.388,0 -0.72,-0.296 -0.758,-0.689 l -0.699,-7.269 c -0.029,-0.309 -0.061,-0.629 -0.165,-0.862 -0.084,-0.188 -0.243,-0.387 -0.398,-0.579 l -3.991,-4.969 c -0.264,-0.328 -0.212,-0.808 0.116,-1.071 0.326,-0.264 0.808,-0.213 1.071,0.116 l 3.992,4.969 c 0.194,0.243 0.438,0.545 0.602,0.914 0.205,0.46 0.25,0.925 0.29,1.336 l 0.699,7.268 c 0.04,0.419 -0.267,0.792 -0.686,0.832 -0.024,0.002 -0.048,0.004 -0.073,0.004 z"
   id="path305-2" />
	</g>
	<g
   id="g307">
		<path
   style="fill:#ffffff"
   d="m 254.22,247.918 c 0.808,-0.067 1.251,-0.975 0.803,-1.65 -1.746,-2.628 -4.964,-7.805 -5.229,-7.839 -6.383,-0.82 -8.733,0.375 -9.149,3.616 -0.136,1.057 -0.269,2.176 -0.387,3.204 -0.229,1.999 1.425,3.708 3.43,3.542 z"
   id="path306-1" />
	</g>
	<g
   id="g308"
   style="fill:#000000">
		<path
   style="fill:#000000"
   d="m 239.832,247.049 6.805,-0.632 c 1.165,-0.108 2.022,-1.141 1.914,-2.306 v 0 c -0.108,-1.165 -1.14,-2.022 -2.306,-1.914 l -6.805,0.632 c -1.165,0.108 -2.022,1.141 -1.914,2.306 v 0 c 0.108,1.166 1.14,2.023 2.306,1.914 z"
   id="path307-0" />
	</g>
	<g
   id="g309">
		<path
   style="fill:#f76a40"
   d="m 260.152,278.284 c 0,0.947 0.768,1.716 1.716,1.716 0.947,0 1.715,-0.768 1.715,-1.716 0,-0.947 -0.768,-1.716 -1.715,-1.716 -0.948,0.001 -1.716,0.769 -1.716,1.716 z"
   id="path308-5" />
	</g>
	<g
   id="g310"
   style="fill:#000000">
		<polygon
   style="fill:#000000"
   points="182.663,261.767 187.263,267.733 168.934,263.815 168.934,261.941 "
   id="polygon309" />
	</g>
</g></g></g></svg>
